<mxfile host="65bd71144e">
    <diagram id="R8APci3p4lO6UIfs2EWo" name="Page-1">
        <mxGraphModel dx="1243" dy="766" grid="1" gridSize="10" guides="1" tooltips="1" connect="1" arrows="1" fold="1" page="1" pageScale="1" pageWidth="850" pageHeight="1100" math="0" shadow="0">
            <root>
                <mxCell id="0"/>
                <mxCell id="1" parent="0"/>
                <mxCell id="2" value="" style="shape=image;verticalLabelPosition=bottom;labelBackgroundColor=default;verticalAlign=top;aspect=fixed;imageAspect=0;image=data:image/jpeg,/9j/4AAQSkZJRgABAQAAAQABAAD/2wCEAAYGBgYHBgcICAcKCwoLCg8ODAwODxYQERAREBYiFRkVFRkVIh4kHhweJB42KiYmKjY+NDI0PkxERExfWl98fKcBBgYGBgcGBwgIBwoLCgsKDw4MDA4PFhAREBEQFiIVGRUVGRUiHiQeHB4kHjYqJiYqNj40MjQ+TERETF9aX3x8p//CABEIBFgGQAMBIgACEQEDEQH/xAAtAAADAQEBAAAAAAAAAAAAAAAAAQIDBAUBAQEBAAAAAAAAAAAAAAAAAAABAv/aAAwDAQACEAMQAAACoCAAAAAAAAAGgiwmpRZAWQFkosgKebLIDQzDQzDQzC3AWQFkBZAWSi1LG5CiQokLUhRIU4CyQokKJCiQokKcBQkUSxiBiBuQokKSBiBiCkgokKJCiWMkKJYyWMQMQMQNyFEhRIUkFEhRIUSFEhRIUJFEsZIWQFqQokKICyAsgLICyAt5hZAWQFkBoQjSZBjYPNlkBZmGhmFkA6hlPMLIRoQFkBUpGhAWQFmYaGbLgoGMADMAAAAAAAAABoAEMgKcBRIWQFkBZAW4CiQokKJRZIUSFEhQgYgYgYgYIYgYgYmAAAAAAAAAMJbBDCSglsJYxKglsEMEUhDBFITAAZLYSUCGCGCGCGCGCGCYAAAwQADBDBDBMAQxNMQANMBA0AxA0IbQMQMQNyDcMohlKQshlEMtSi1IU5RZDKICyGUSFEBRIWTJopC1DLICiUWQFkhRFDaYmBmNAADQNAAANAABFwUxiAJaoAATQNUCYSmigYhompsQMlXIMYlQSDAbJVBLVElBKuRlBJQZtsRQQXIm2SUEK0J0EFhm3RBYSrkRYQWEFMkpkKwhuiCwgpAUEOghlElBJSE2yCwgpCLCSghqySglUgGxK0QUgKCSmZsokoFNyA2SUEqpG2CYzOlQhslUhNUIYJVJQwQwhjAYIaJqNBDBTUlAAAJUhjQAE1NCYCjSQqLAAzBiAAAABoAAAAIvM0AAMx3zWbqaBOShMYAkIsAE0TcWAmEuSxA0wlpjAAAm4oaAJqSmAAEVNDACakbTAAJaKAAAmpoAATkppiAE5oYIE0FSxpgTUlAAMJc0NMEqkbTAAJaKAAAmosAAmpG0wACaQ2mABNRYACVSFIAYKakoAYIi4sBgS0K5oAQ4uCwAAEJjABNkNUAATUjBiaYk0UJgmEtMYmKbkm5oAZkwBAAAAxAAAAAZ3AykRhvgqaoN8Nx5rE6b5tk0TzKnMN3CLfPqN5o2JkIlL0VhqlkA3nRbgLUoqsNCyAuRFkMonM0rks6DKi1Mmj52dBjYyZNjENjJlVnRRAXJJoSFEgVmy3AWpBuQpwypSNCQokCoZRIUkFOGUQFIRZIUJBWdFIBy5LJYyQpJFkhaQKoZZKKQiiQoSKlBZAWkCvOiiQpEjqKGgCakoTBNA5Y3IUhA1QIBJooGJoEOS0wlgJpiGCACpoGgzGgAAAGmIaAAABTcFKkTy9XAr046Xs6OXdMpvnN9uTc2zERthsa464i14+oSQaxWYTlRrrz2dEOUm8qNorI0M9Tk6ufVdVImmemIXkHTlpmYt0peXOejlpkjSS1rhaXhvzlNamdYs30x1GiC0IppgCE5oGmOWgaYAAhFADJYnNA0DloKkKaAAGAABLmwABNDaYIAQi0A0BNTQOQYIpMAAU1JQAAEVFjACWgpUAApuBsATQgBiY00JoKExTclACTQ0BSaGIJpUIEAgdRYAEACGCAAAYAhghgouC5AXF08y4HbxHXpzsvCMjfqgOjljpTzuzLddudtOXqx5l6unHcvPbjTAvVeT0Megp586GOiXuzykfX5noklSRrwdqbZctmmeOh6GWmZnU8S23onXnpzFYZ9Sxt5/opeO2Q9vOY9eTuK2y1FltxG2qZTQASK4oaTGkDaAaAEFNAIQVLKQhpyWIG0wQFIQxAqllJA5qDQQMTJmpLEi0gHLKTkpOSxMAQk0UNAmiLjQJABBTlggKkRQmCTFUhZLAkGSxuQaQWlJTQMlGqlFIBXAUkxNMLzsYBAAAAmAJgCGAAAouClYc+thnnrRw77sx4vTg87XtZm9EY4dqMdNAzz3Dyde+zz9esOd7yefXoBwb7o58O1Hm+lWh569DExx6ug809EOHbpRHH6IcB2M4F32cGPrI4Dvk87btDye7Tlrbl6OiPO64RxeiuY7L5usjPZEsYFISoIoZDYJUCGyVYSrQmwkoIZRJQJXIm2IYJUAMIVhFJiKBTpIDZFMJi2JWGZoGbdElhKtCbZDoJVIFYQWjOijOdZJdIRYQMApAUEOghsEUEq0QyhKglaQJ0ElBIwBsgoJaoQ2IaFU2ABAAAAAAAAAAAAouSwABE3FgAE1I2mAAkwYAAE1NAAE1JQAAEtMbAE0DmgACakpoAYRU0MAIuRtMABJgwAmgikwBii5KABMIqaAYJNA0wAEqQwYhompoBoctDYCYCAGAABNTQABNSUMEAIAYwACamgABVBbQNMJTRQAJhFTQACVSMGSmhpwaiYAE1NAACYTSYABNQU0xMBJg2gACKVADBNE3Fg0EAAAAAAAAAAACi8zQhlJAVnRREG0nOdL5tiyUU4DQgLUg6yoshlSIsljECqGWSFJIdQyiQqRGillJFKocWSFSIpyxkgOWUIGgE5YwAlooEMQTU0NACAGmAAgRQAxAmmMQCapuXDEAIKEwBCqaAAJqSyWDliAKEDEgqWMQVDktyFEsQgskKSCbhlEBcoKEipAEI0JYyQKgLchSQFSFCRUiLIZRINILJCjKwqWUSFJAriwAIAAAAAAAABghhOO3nEa5a13ZZ1E78FlbnMd8zR5/bfnHpKM61rDU0AgECqaAAE5KchQgTTGAJVIUqFnrz1smobGJUqh8/UIoiVSBsJKCQYDBDCGMQwSpUFKJdFZsqJdBCuaBuJKCVSBjENkUnSKCAzNRsh56CG4RQSMJpUIbJVSNtVy9PN1kNOBqhFIhlCGCm5GwBZuqacMYIYRNcel1tgdCTik1DTBJooAYgmpZRFDEA5oFSJz24664vnOhIhjRScGHTx9lKs7htMEIKiwAIAAAAAAAAAYmmLy/T4BVpJE9El49GB1UsDDu4e0vzuizLq5OukjA0i8anpnOtZyyO3RPIikTWO1crLroqKwrDfh002y5zuk5Y7ubbGo2nM6LWUbYGpz9WGhRhsXNTFp8Vdawyrrrl6YrPLcsSB83QNLM259KFeFmhEGlRY0SOYzOkxDdGJqsMq7aw3gacS1nWpjoPm6OCvRcVHLvx3ptty9WUZR0VG3PpC157NnnRUNF53BG2KM9jKulzWTDKsNXqAszWXgbXzuo6PP7Snyaxu84OhIhef38G3TW3HGxpkGlYxribimcTrxx0qruYL59xZvnrrSyjeufYsTjHn030yldJGefZCzzo1UaHn92fPptplrls5cOLgdxQwCAAAAAAAAAAGBOOyINQjk7g8/sdkLRELSAdBhj2lcj6GRz9jObHvVYZdVRDYSXJzHWVCshNVBydkUstwxx65papxzrWqznSyM9yM9ZZGiBoRfNvAreJq86MOvkK00xyNWkb5aZF3mErSBarIveKh5aYUt+fQ5+rOht1HPS1rLphxRLHzb4m+We9LDbAfZnUck9uej0w1y5e3Daued0Rrz2G8VDQjQkM3YYT0AxMrn1BXx2VOhWnL1c504aZxC6Lrk6M0ZdGOppQoXH2unz7kGOyMdaDBbTWO2fRHJruERszzPQbOXn9J1ny9mRz9UbRJTjn1ua59tQ4NOpnHvqjz+vdGUdAY57skoiFoguLAQSAAAAAAAAAAAJNFNMEBFxQxARcliBghOaGACaE1QhglUGiASZSqahpgk0NpgAJVJQADCKmgACLgsTAAQAwdCaJpOAaCakoGIaJqbpY75meuOxQOEMEmgKQKkKpsSoEmhjBMCWmNMBMJaYDBTU1TCAAmpoBglSFU0CaCbgoYABLmhUAhoTmwACLkbAxw2K0KmKAAGRU0JgCaFU0AARcliYAEgimgACKmgACaQrihpokAAAAAAAAAAAkEWZ5HSpYnLG+HsqoaiyYNRFDlxSAAQqmhoB53JYmJp1NRcMQNCG0wAEmqoCATJqaAAJqSgAAEJjAHLQVLGJhFyUAABFzQAVDqRtOAAkGNDAEK4oaGKaksQDEAmMActCpMAAi4LABoJqaGACAVSxgBFwWCGgJqbATBORXNAmCm4LAAASaGNA0E1NAACaByxiY4qSgBiQ0IoQMQJyyhA5aFU0DTJABNAAAAAA0xMCAKw6ObqENRNTZlz9vFp1zc5HPWlWUEPOxqiEqQgokoJVyBZUFhmyhFESrQimQWVCtCLRJz9RFFRJQSrkTbJKCGOkMEqQmqAAQ0MGIaFUXAmUpqYbRTAEDAHAmyKTACkqQxkIYS1QhghhLbJKCY1gZQSUGdKhDBDCW2JUyFpAFBJTM2USUhFBI6ILCC4BsEUEDAVBJQQyiSgkpEsshtBOmZTARSEmhjBDRLVCGyVSJuaBoJBghiGgBgAJpgAQNVz9PP0C5t+al2cnZBx9OB1ReZz9vL1AIia5eup53tWU42dNRzR2nF2DzzZrSYEZl6codZy9JneWhVS4YmKFFbLOajrx2hVLhrnutZxZunkXXHVdKziNNsUb5Xiap8hrvzdIgk0SYxMm89IBqiamHLCmgQAwAGgcsYgcVmaiYAhOWUTQS0U4oYIE5LAAAlzQ0AmgbTAEOagsQNJ0nNQJg05G5YyWOXJbkBywSZQgYgVRQ2gJqRuQYgqGi0mAmCAbQAgQqGIHLQVNAASADQAANAwQxAwCAZx76FTz9YZaKiKCHFSU0ACrm6+TpObszo5L0Kvk6uA6enK4x1llVhqLl7OOurj3onXLQec1F6wyiQyenHXRzdGo3jrCqWYVnvWVlxgaqteVaku6iuffnK2OelV4HWouHM0NiG5ZNzUMQOKkaaqjOwE4bkKQgaBiBy5KpAyQVQy3DGiCqiikgqBGhKLJAcUMQBIW5CiApJGilDcqqrOiiSKSVOs7gcMqRFoQ6iSqzZoZhZAOsw1IZUpDJCyQYkaEI0IY0goQMliqQpwFyAXNAAQAMAAAAAAABiCKmxgAmhOaAAIuCwAAJqaGCBNVPP0ZHQBCVSUwEMIqaBgQ6kYMQwQAxhJSIubEMFNyNjJGzMdEGiJVolWyCwxNFSVkSUEUUSMJVyBQSUENskoJKRLbJdBCuQKBKgzooQwSuQGAMFNIatCGzOlRKsJKQDZJQSrkapCGEUrEMEmgaoQwSqChghhLAapAARSoTASaBqhDCVUlDQMCQBjQmBNTQMBJoKmgAIABoGAAAAAAABFwynLHLQrigBDi4LEwBCaY2gE5CpoaAJaKYhgibigAHFSU0DExJooAaEK4oYmE1JQAACFQwQKpFSYAglooAE0TcsaYKakoAaGRU0A0A5BzQxATUlNMTETU0MASqRtMABJosQABNTQAxKoKaBgBNSUmCGiamhgBNSNzQABNSUAAAgBtAAE1NAACaBpgAE1BYIYBIBQmJgRcUMQCcjqaAAgAABgAAAAAAAQ1QKgkqRMYlQSrzLSBthDKEUiSkJjEMJGhjBDCWqBMEqkoTGgAQUIGJBUUUSFSSaEhRIFQyyAtSFPNlkAxIsgLUgVDKcBcpFkhZAFQy1IUkDchRIVJJo4CiGFZ0USxoktwyiQaEWSFEgVnRRIUkFEsZIUkixAxAqiiiQqRDqGMTBOSgAExOWMTAATTAAEIbTAGKakpMEMJaYAwQyWqEMEqkdTQAEDBDAAAAAAABMIqLAAcsFU0JpkYdOJoloJmRdYalHLuWjMustBkZG659DYllJAXnoCMTac7KeOwxAhMoAFIFxQxA4uCxMaAmsQ2ABNA0wGCmoLABNE3FgALPLU0AAYRU0CcFzGgOaAAJqSiaBMMtMlWzCBOSgYJgk0UAA0TU0NAE1JTTAASaKEwAIuLAAJqRtMAAloppiAJaYwAAJqaAAJqSgAExJooAQAmmAwkaFU0NAOagdTQAEgAmCYAAAAAAAZ1NDJCkgbljcscOClMnRy74GudYnVhtxndw93IXdQXh0YHVx9fGaVNUt8doKih5uycqit2nDmpMdc9SgDk0XQZXhqY78uw7hGjw1LYEJ2TEdBMa4j0MToxKIHkLrijNLQz3y1CaZhpnoZXeZoGRZFFZUiB5lG+BrpjuKaQZ5bFvHcnm6cTdphFyNpgIEAUCGATUWAAJyUDBNCAGxDBE3FgAE1I2mCaCagtzQgCallCBiQOaAEOXJaAYgE0UIGJicspACaE0waBy5Lc0ABIAAAAAACYAAIIuNAABNA1QmgIuSY6JIqmc9XRya7BE6yDGJUExrJz6bBJQRSsxnoDNayY3oyHQZtgDDO6RhqWY1oERtAFhBYc1aUZGwZ59EmJuEWwjPYEUGS2CGqAYQtJIjoBc/TzHP07UYvUIx6UIYZ2wh0jHW0Z1QTFsBslXIFBKoIYxNghhLVElAk5LBklBDYIbEMIHRDbJVwBQSWiVciLCHQZumSWEFBDbEqBTcgUElAkwBskbIYxFBJQQyiHQSrkdTQAEgAAAAAAAAAJhnpnYwAQhtMAAikUAABLmhgBNSNpgAEtFAAATcUMTCagpoGgEAMAAQVFDEwipLAAAipoGmE3IxMYmJAMGIAmpYwQ4qDQAhaomooYAlUlCYgYSwYAICWqBpjioLEwAJAGJjTRNTQJoE0U5ChAgBtAOaJqKGgHFSU0wQAhFDQAE1NDEDTQqmhAhzUlCYCYgRYgGgTTGAAIVSxiBxUlNUCYSAAAAAAAAAAAZtWIpCVIBghgk5LAAEQlRoIHLRRIUSFJBZIUSBWdFEhUiLJCiUUSFvNlEA6hGhDKlZm5AaKQV5st50VIinAWIAQUIGhA5YxMJaKEFJAqljBAnJYmDQNCKEAIFWdFCBy5LEFEgOWMQMQKoZSQOXJaFVOQQgskilLC82WSFQ0WJDJY0ItJFOAbhlEo0SAchThjkRbkG5ByIsgLICqzZbhjEhuQokKlyW0xiZIAAAAAAAAAABncWNMEnJTQMAWWsFs5zd8vSY0ZHS8tAy14Dq1ws0BkkWUAABFxkdBNBMho0wTyLOfoGpCwBY7ZmowXP04GgmMiyI0zNRozpaBlszK8eghxoA2SrRDKJKCZ0kmo1IbCWqJKCVaEMEwAACkSqDOiySglXIFBJnqSyicejnNhhFKyVQSrkCikqRJNgUQhhFKhDBTcjKCRgkBQAhshjAAE0KkwBimkMYIYJNDGCVBFJjABUhNUIYKLgtpgAIAAAAAAAAAAAzuKKJBy5KaCiWHL0850YXJpOuJpFSatMOHuxNcN8zQAxqNasCBNCSCnjZGsM0eTNObp5y1WZOyslZ2Xz9EF2mGWsCy1yLW+IsevI1VMyqGaTUBoBlomMAaaJqbDPTIl7ctaaRcZrMNLyDdPnOhc/QExqS8qKM5NzDcjTKiq5+gGAReBq+fY5uvn6SKTIx3yNMtYFvy9RjWdGs5I6MXrQsyFrloMWRuNEy8ytcg0WOw6ljx24y53yrpIuAEKooGgaJG0waBy5KaBiBAFCBiCbmgABCHUUMQEXJTTAAQAAA0DQAAAACCLjQQwU3ANgignPVCWgQtAzZRJTJVSBQSUyFQIoJKCI0ow1tGFbQRVsSoJGE0MWWyEnQmIE0MEXDBAxkhUiLJY3IY7c+5ZIUkDrOisryNuS1WzIjM1ZWOiJGEbRVRcZla4aGW83EjC8FsRtnRRLHzdGQ8r0FphqFZ0Vz7BnosiN5Cst8zTKwlDAjYz1liytmhIRGqI2lmWiKoki+Lqg1y0VGkOM9cdAqGUkDSBtAxA5EWIKSBiRQgYgdQykgaEMQUSxy5NGmAAgAAAAAAAAAQ0RpFgAE1I2mAAk0UAABFTQwAmoKABoEAUACYTU0AARcFNMABOaBgE1INUAAlUFoAAJuKGICaQ2mAmYagNoGnIVNDBDipLBDAIqaGJhNSUAABIAwAmgmpYVLHFyUATQEUqAAFUipMABTcFgAmiamgAENCqaAAUXJQADQgYAAAS1QACVSDGJUhTcFDYgZLTAYJMJuLAAQ0DTAAedwWwAAlpgAAAAAAAAJoi4oYgcuSyQokGSGhKLUwXWOhTgKkxOg59SyJNCGaEBakHWdFEhUkmhIUSxOWUIHLkd50UIHDRQgYIVRYABNSUCGJiaY0AgkpzQ0AIRaApATU0AA5clghgEgwABNCqLE0xy5LAGgJqLAAE0DTBoCLgsAACKmgABNA0wEwi4KaBoCWmMAACLmgAEqkYMTAU0igAAJaYwAAJqaBgJNA0waYZ6ZmjQA0ITAAAAAAAAATRGkUAMU1JSWRsZaiaCgYpvmF08fYAwzzehQBCNDn3jQFWBG7gpjBVITNGe2WwlQQyhFBKtGGsaiJoSuQKZGeuRbLJKZnO0GcrUnTPYhtkqwhaIhtiKCVSAoEUiRsQUSrkGwQ0IYQtcSxMVDILBK5AoJbCKVCGCVITKJGyCpAoJbCGUSUEFyJjJABVIyglWEDZLoILRDKJFZJaEUElBKtCKCSwzbZJQSrDOiiHQSrQimQWELTM0AGIJAGIGJgAJoGJgmiNM7AAJqDM3CSINVhqa1IMz0Ofp5ukEwxtSagAAJphlVAHIb64TXRhHVGDehzdfPoWcuhpfF1GgmCqTNXgaLowNcNEKsugObaRaqSrlGk1JK2RnoMhmZG/JqbRpBnnn2g8NwmpKOfoBpnPtGphvNDi+Q6xBhdUTSYUg5tsNwaoAAmkUAJiIuLAGE1IMBiAmpKaYAEXFAwCakIvMUdCENFAAJk1NAAIhFXOQujl6Ry8ToEwaZKqSkwACamgGgTCamgACakbTAGKLkppgmEAANAAA0AAMAmkQyhKgWe0EGgZZ9cnNpsjPPShlox0KEMFh0SRbBDBNMWe0mJuGM3ZG0szuaM7bMOjnDHoncbhlIkvHUHFBnOwZaOBO0EXkb8zs1QiyQskByx4byXIjl7MtDHfKx8nVJh0MKSArOhuQuHibiBksHLGSjLeLE0FCBxUluQpIFUUMQVLkoQUgCXJbSG5AcUUSFSIeWmRsRJOnP0E6YUGuGhnvzamegDy6Mq0acRpLHjridAgYkVIFOQYgVSFpAxANA0A5YFSwACKktpgJkNAAAANAAwAQ5aFU0MAIuCwAAEAMAACamgACagoAABOaGAABNTQJgTSGDCWE1LGCGmhtAAAgKBFIBOaAAJqCwAAJqaAAE5G0xDBJoYADRNJiYyVcFDZIwlqhDBK5ExgmCVSMYIpEUqENklSAwEwSqRqgQ2Q1QhoJVCbCSwzx6cDQtmbsMx0Ya2Eq0S2xDBKpGMEMEqBNslUiWqAYJUEMolsFNyAADBTcGgACZAAAADEMAEAAJoV5UWQFwItwyiQHIWSFJArhlIg0ipKBDECqWUIGhBUWAkVIiwAEyamgTQ5qRuWMTJAKEFJAOKGIHNSU5CiQHNAAOWgaY0ASBQgpIFWdjEwi4LaBiBVFDBDQhtMBMJaKAAAmoobQCclNMQATUlAA5ZNRY8Kozu8jQxg6IjQOfp5zqMmaHH2CrOTYiwTBNMBoJqSmgAASC0A0IVTQADJAqGUIBORgwACLg0EwAIAAaBiGIGgAAJqRXFgAEXJQMQwh5ybAAmCaoXP0YGyuQbCSgkbMzCzYpE0qJLRKuRlBBaJGyWwSuSSmQ6kDKyhghshjENiVIFSFNyTpgVu04JpADAAliGADlk1Fg0DlyW4ZRKCpZSQMQUSFPNlJBQIYgVQynDKkktwykkUSFOQbkFcMy2WRpzb2ThvZy9SZlGyHh0YGtZwT084Ppw1GICoZRIVIinIUhAhFkhRIFQy0gaEFSFEsaEU4ZQkVDRY0DTIAGIGIAAAAACakVzQJocuSwAAOfbLYjPXIqpkllGvL24iz6uQ68LyN65+kmpo5ieozM+ghJVvFYROshs+WzY4usVTY0SXLQwYc/RiWwGmAsaLrHcQwJqSgCL5OsnPRDrPUSqRsACQTksTAAmoobigmpMOnm6Q5+jA1qaAAJpDaYIYpuSgQMCamgACLkoAABADBgmibiwEDmpKBghkgigZlbCLiwAEmgaYABNQWJgNEgFIYhhFTQxMQ0Jpg0xKpG0wACLkoGIaJAAAAAAAAAAmpE1QhglUjGCpBhq4InoZy70GVVRSQVhrJlPQGe8odQEbSzm6UCz0orDUMWIKtGC0oGI0zvnNbzYtcNS8NkBizclmHRzdBhvlZYszWWistQ5+nLQWO2RswEqkpoGAc9zA53wJ6+LtOPoy6RKQzHIrjSpouDm6OWujTCjeQimmJpiTRSaBpk1NDTQTUlADQCaYMAAJqaBDCagppgAITGAAgmooYIctA0wACakoEMEAIoAZIKpYxAAhuWNoBNDaBiYRcFgAASAAAAAAAAABFwOpoAAi4LAGARU0MAE0KpoAAmpKAGmiamhgAmhUmJVkRpGpSYABFTYhgpuQCiSkJUgGCGGVUzOdWSrkY2SMJVMBhMTRYwTGTnqyVoGRoGbdElBM6QUMJGyGMUaBKtCnQEUEFIFYQUEsoh0EzaAoIdMhUCLQigzZRJQSrkCgl0EDQFBKsICjN0xTck2MkpCVyBQSrRKoEWiCwgdEOgkoJbZLYKakGwQwE0WAAwgAAAAAaAAAAmpCooYgcVJZLKSBVNDEwQCqaAAJqS0A00TU0MTBOQqaAAJqCwAAIqaBphFwU5Y0AgBgAATSBiYTUlAhiQ3NAxBLkpoGIGTQxA00KpoAAi4KBFAEuaBgEVI2mMQJNFoATQqixoRUuSxMABADExoCamgaAmpKAGCEAUhiAIqbEACcjaYAhxclAAAS0xpgAE1NAACaBpgAE1BTAAAlosAaAkAABiYgYgAACbgTGZXy0bgwLCCwhjE2hFITVkqmSrkCmSqCGUIbJVIQ2IVCVSMYJgS5yNzLUJaG0DEASy0gpSwcMokKkRZINwDrCTqICpEU4CnDG86LebLUg3FFEBUiLSRoZsKhlqUXKk0edFEgyQskKSQ6zopJFS5NCGUSDcBoQyiQKhlEhUVBoIGIAQUIGIJuGUSFRUlEsYgJqSxAxAnLKEwAIuaAAE0DljACagsTBpkposAABJoAYCYmmJgCYEVBVTRlMaFq8i3Ek6EGkxqXKYZa5lazQCYTUlNMQ0TXJ0GggFUFS0Z7c25SkLYAmHLrloPScjeYDRpgmEtMYAKWDVCACakoaFk9DPaLAAJqRmNGgwlpjYCVISYMAUXgbsAAJrHYQwU1JQMEwlpjABOSW8jdDFNyMbEMIYxMAGEtUIYKdIKTZJQQMAoJKRDKJLRKuRNskoIVyBQJWiGUS2ySgzpWSrCVaJKZKsIWkAWEFhBSKAAAQgAYJoABghiB53I6zYhoed8xo6oU1JO+eZV47GnNUnRg9CN8NRpBbhlY6ZFaYo1zw2N+Pq5i+nLQy2y1OXeAJjU2Jo5erl6Tnpal82uBWxmbZ57mU50bUZGgMVZBScmskmjQZa5ak3FgAHN08xtOqBxoS0xiktOQm8jbg7savn3k2AgHBlvnoE5o3w35DqDE3FiauMzoTRneeopuCqAJuCmmABLVAAAIVzQJgpqSwYJoQAwAAIuLBMFFyNpgAEXJQMQwhqgGAmibixDAmpCkwVIU3BQwEwlNFADEyAAaYJoGmCAAAi4KqWMAU0igAAIqNBDAmpFaYmAk0UAAw59XRE6gptCZRJSFlshTqElBlTokbInWDKOrIWlhza1RzT1M59NEct6sxz60TGkg6ROPSHNoaCKCY1RFUyCghuqnHfGNVSEFCKCFaAYJUHM9qOa9gidEZ1VGWfRkTo2K4omgFNMpIHLksQMSHWdFEhSQFQFkBcOTQgNDMKcBoQFqQLyZoZsqUFOAsgLkRZIWShuGWQFpILzoogLSBuQokKkk0JCiQEBQMQ0SAAANA0ADQABFwW5oABJyWIGmibihiYTUjaYACTksAaAm4sAAlyUJjBDQDaBiBNUJoHlrJMasYgVZ0U5BoBNME0EXBTmgaCLiwTQ5qSmgYgTmhgBNSFSxgBLRQAJompoAAQimgYmS0waABBUUMTFNwUMAETUUUACchU0IAcXBaENgS0xgA0E1NAJhFyNgAAk0UAABNTQxMARNxQ3LCakbTAGKLgoABAJopgJgQAAAAAAAAABF5lFBJQQUCKCCkTSskoEqkGAACAKQDEA4oYgcplCBiBiRZIU4BuGU5ClIWSFJAqhlkBakHUMYkNJFOUaEAtM6KJCpJLcMokFedFkhUORuKKEDSCyWOWib49Dc59ipcmhLG0CcsYmCATTAAJaLAAAipsAAQhUmAA5qC0A0kFTQxItSwrOwaBxcFMAAEmhtAAE1FFEsYkDmhiBoQ3LGIBOSgAABCLaBgEAAAAAAAADQGemZoAAAgAxbFqSLTLUAAmoKT5zoMdhDRQgZFCrHYHnRKgN2mAgABghoBVNDEDQDWGwwZFRYAAmhuWA0KaQxghompoBgpqRjAGiWUIYKbkGMSoJVICgltkMonl68C00UNiKCBsQ2QUEjogpmZcgWEqwzZZBYZrREOmQaIlXILQM1qjKnRKsJLRFFEthK0gCgRSEqQK0SUEMZLbJVBFKhFISpCYxDBDkoAAYk0WADAgAAAAAAAAADPTM0JChAmgrKqM3FC2w1KEDipJvPYUzibXz9Jhvz9Jzb4bHLrGxn047E475moAc/TzG1c/QZ5HQc/TKKpMABDRzdOHQYuKI3WRrXHsTpONb7RgVqYx0J850ksYImpoAYouR0mABFTQwATQwAABAUIAAm4YwDm2w2LExiZLmgcgDQNBQARcFiYCBVFgAE0hMYJgTUlAxJhFxYDBDRNzQAxTcFAADEmhgAARU0AwQ0Rc0NDEmgaYACm5KGCYCTksAGgkAAAABoAAAAz0zLGCGEsYsegMrpGVlEtglUk59DMa0DDRsimEVQZWMy0oILkCgyWzM22Y6UE57BDKJnQMzSRVQYLoRljsHP0as5NtYMY6LMsOjQjHSxoYgCamgABOSnIUIE5ZQgaEU4YxIpSFkhZDBxQ3Ic2/PuWSFOAKgLIZaSKSCnKLlI0ICyGF5sp5stSFOGUki4EaEsZIFQynIUkBUsoQOGihAxAIChA0AnNDQDAJaYxMJqQaYwAmpKAAAQSWAABIAAAAAAAAAKNMzQAACWmUgBNA0wACakoAGgmpYwAAE5oYARUliYNMkAYAAgaYAAmigATgjTDpBoHLQ2gABJoYAhom4sAAmoKYAARc0AATUlAwQEsBjQAE3FgAcuuWxQwE0cOmWxvU0CcjaYDQRaGElEgry1AGKaQ2mBnoKaRQwlVAVjuJjJbRNKhKwlVIxhI2SqQKkJtkMYmIapEsoQwSqRNskoEqkBgmwlUigAAJAAABMAAAAAUXBYgYgVRQ3IUpB1DKJBy5LcMZINyFkotSwrOi1IVKC3myyAbhlEhakKcMokGhFiBuQKhlCBy0UIGIBAMAEIVTQNA4qSwQwCamgACakoAABNA00MEKpsBhxdGOxYgbTPM6Z6jOogz6SCOlUJ8+pc47EVy9pza3iaPKi3MGuVMpxkXUhUzB1iZLw1Obr5ukGgCaE0waBxclpMABJgAAAJpgmik0JzQxIqQG5YADipKAAAJaLAAAkAAAAAAAAAFFwWAA0TU0AsjZRQ3FgCHGVmrQMQJyyhME0KpoAAmpKAAAlpjABME0wAEqQwYhhNTQDBKpGMCaCVQIoIVohlkFhCuQLCHQZ0rJVhM6SJ0EthIwRTIKCG6IdBznRymxkjdlGNujPPoDLLqgazDHfTMjakRo0c+tszZRzz0UYvVGG5iNbZmnLehYqMFowuWAIARRLG5Cs6ktyFEhRIWkiiQHLKIRoSDrNlJIpIKJCyUXIi0IpIAAsAACQQNAxMAABDEyZqSwAAJqLFNglNE3jsPHbMMdUbZ6ZBrz9BOOqNHFDQhXFDEDipLEDBCc0MAE0DTBoCakpoGIFWdjaATksQMQAgpACaJuKGJhFSWJgARcUMAJqSgAEA5Y2gaEDmhjQc3TxHTbQxMjSKGIHNQW5YJgk0UAIaJuaAEOWinLGgFNIbAQ0S5sAAmpFSY0ATUlACVIEwpNAmE1NCGgAFU0AAlUjAAYKaRQAKkSNFiYAEAxADEDTBAwQCi5GUElBmyyc9g59bkzumQWhTcg2CVBDKJKCSoBlElISqShghhLTAYCaCpYAhoRZIUkBUMskGhFuGMQMkLIZSkG4ZTzC5QaEBZAFQyiQuUjQhlEobhlkgxSO82aKWPl6eY6lIW86pVDiiWVJJoQymgQkaS0MTJqaBCKlyWSxiYk0WgAETU0MAEIVSxiYk5KBgnImgsQMQKooaYJiFUUMAJqRtMEwJqSgAAEmimgYBDQAAxAAAAAApqSwAAM9M9AACakKljAFNQTTk0Igu87GAHNvy11VFxPO+kU3BbxZqARUhYkVNZlVFiVQKpYs+gJrm6SamhpglUlAAAIGMAE0JqgBBNSWmAARcWIYEVJTAACWmMAE5ClQlQLl6+Q6CglsIpWQWEK5GqZJQQrQloiXQQ1oZrVGZpAFhm7CFaEaIgsMnVGZoGa1kgqiHQQtIBsJKQhgmwQwikxoAAE5oYgaaG5YCBoRZIUpYxBQANMgAAAAAAAAAJTk0SRZIKs6LJRSSKcMokKyuDXB0Y7kGd6YV1ZPOOnm3gq4o5unl2NIqTPfn3A52Ibrfj68I35NtqwmtSubUgphQYEdWehNTQADlyUwBoE0xgAnIVNAAKaRQACCbiwACLgsAACaljACakdTQNAcnXyHUADQTU2AATUlAxMQkwBgAzO5oBgouSmmCYKaksAEwipoaGKaQqmgTBTcFAxACAGAABNTQDBJhNTYhoE0FJiGCm4LTBDCVUlpgmBAAAAAAAAAASmigAEE3FgDFNSFJiYBFwWAABDVmOtIRlqIVhNAo04jri7JVhDVCGzPLpgVDJbZKuQVghhDKJKxNEmMoENkMokoJVokpklBKoEWiCmZ1OhJSEqkbATTE+TpqxENCKchRLHy9HKdblFkgXmyyGVIiyUWSDJCyAt5g6zotSFSSaOAtQFyI0JRZITcUUSFSIKllJA4qC2gaAQA2gAZFJjEwTQmqAAJYDTAaCakpMAAU0igAAIAAAAAAAABAkBQAAibiwACLzKqWNAPk6ucvV5D0iC8p3GstjHXBm14M2OboMcNnWxzaxsog0axOhyFROJ0kBogGsdSyKGZ2Kosx2x3CXJRz5nY8dialg1JczQVLGgBOSw5TpcSTvx9Y08jROSwzFrw9oufooT5Ooc0htMaTHw9vGdgmABFzQAxRpBYIaAQBQAgZFTQwAmoKaYJoE0UDEARU2IoJVyS2ySwidIGrRJTIVICgl0iGUSUCKRDKJbBKgQ2SUEq5ApCGEjRYmABAAAAAAAIAAJTRQAhom4oYgJqRuWNoDn6JIw66OfoQZaoJ1hmbtC59aM+jLQyNAw3YLG0UzM0xehlqoq0BRcwo35zebyrPqzuJuGZ7ZI2Us4vQ5egw6cdREwb4a4HTC5TofPobZa5GuVgac3SY9PN0HP0c+5ny9/IaVarOOmDLpy1iakObqw6AmpLBmVXBkLYoQUARU0AMU1BYAJghBTlgATUUMAedwWIGgGhFtAAE1nRZFDloGmMQEXBYAAEpgwABCqLAQMEKpoBMEIpwyhIcuSxMBoJaKAGAQJgCGCGgAAACUBYAJojTPQABTcDqaAAIuC2mABFTQwAmpCpoABTcFgAARUaHP0c3SOWhgxDQSwbATAipsJoFNyUmyW0YXVAqDK6kaoEqCYtgUhDCKVCx6AzNJCNQw0tGca0QWEK5GNkjZBSErBKwzbokoJnSBlBJQQNktsltEUqAAJqRgDEhiCyGUShXnRSQUkFPNluAuBFkhRINILJRQkFQykgbhi0zoZLGkinLGgBNFADaAlooAYIhpgCGgAAAABEgi2gaAi4sGmEVI6ljEBNQaOQbQRcUMAE0FSxgBFSWAABzz0URYDlyU0DBCGigAAJqaGAKakpoGCE5oYATUFiYAEtMYA0BNTQABNQaCBiCaiwACakoATTEgKTQNMi4oYmEXBbTEmCaY00NNE1NA5YRpBQA00JNFAAARcWAATUhSYNATUlAAAJNDYCBkNUCYCpEtUIoJm5E2AMFNyMoJKCG0UADQQ0xAAAAAAAmETSAbJHIGLNhslXIqASoMqixtgnlJqyiWwSpCZQhslXAOgkuSWqBVmNsM7MTYVkjAKCSgilQhgpuRsYgCamgaBy5KcsZIDllEhRINyFOEWpDQgLIAvOiiQqBFuAtSAILJCiQKihiRUVBo5BiAcsoQMSFedjEwmoLaBoBCCgAAIuLAAJqRuaAAIuCwBoBAigAQCqWNJgATcUAATUlCYCBpooAAQJooAACAAAAAAAAEASmikARbOfVZHSRBtPPuN8/QKJZG2OxSrEy68dSbmjmvPqEsrLrDYZy9QRFGpzI6gxLrm2LyUnQpopqjk6FBo0xgAATUsYMU1JYAAE1FgAE1BYAAEtUAMU1IXLBoHLksTENE1NDTBTcFAxDCGAwZIwlqhFBM6QMYJWGbKJdBBaM6LILCFpAyggsMywRQQWiGWQWEFITbJGxTUlAAAJNFIABA5Y3IUSBWbLICkgollEMqRFksZLBAW0AAQAAAAAAAAJhCcFkhUPM0xWhQY1oZdBhvGUXdBGmdlwwx3yDSs6MNlJlrrkZdE2YdOVmGjAcainDrDHbI3lhFxZTjInox2AQUIGhBUUMQE0ihMGgmpoBA5cmgmABNTQDQJyNpgAEtFNAIBVNACKlyU0ANCc0MAE0Tc0AARcFgAAS0xtAAE1NAAE1BbQNAIAYAAEXFgAE1I2mAARclAhgCQDYCGiamxAAATU0A0IaBpiGgTRQAACTRTAACAAAAAAAAEASmFAAARpnoJgKbgbTAYKaRQAAEVNgNAqgppgAJNEzsE0BFzYhgRcjVAgZDABgikRRRJQROkDLCSgzoZDpma0gZYSUzNlElohXNJ04haBC0kFYQ6CGrJKCZ0gbAYBFSyiWMQKpZSljipLcMokBxRRIUkBUMokKhyaEhRIMllCBiCbihiBy0NyxiYRUlACZI0BTQAAnLGJggJuKGIHLAaYmgcuSxAxMScmgmABAACYJgmAAAgJAKGhoZnpnoAARcFOaAQE1JQAxBN52MQVneZo5YxAJBYgYgVRRSQOXJYIbQS0xgAhDc0MQJVJaAYgVRQNMIuCmmJgTU0CaHNSOpYwQICkAAE3FDAFLRYAAiaVCGAmiaVAAKaksTAAmpYwYhyKlQhoIuCmAgCWmMbJGGdKhKglWhFMgpkK5AoJVhm2CdBJSJBgNAmEtUAAk0U5YAhy5LchRLHIFtAwCAAAAAAABANEpgFBJQZ0rJKQlUjGCKQlUjGCKRnSskoEqkYMACRooAACblg0AnJaAbQKoZZKKkRThlOAokLJCiQHDLcBUNFkg3KHeVFqQuUi3IUkhgihIskFcUMQCJNHFDQCc0DQNNCqWMQEXBoIGgJqLByxpIdQykIqKkoTBNEsCxMACKmxMAmpG5oQAS0UNAAJNFAAmiamgAENE3NAAE1I2AAxTUlMQ0ATUltMACAAAAAAATATRIgsAE0RpnY00OKgsAGmKaksABBNxQwAi4LEDEAJlJgAE1NAAKaktpgARcWAATUjaYACAKEwTRNTQNMIuCmAhhnc2IYKakoGJUiRgDBDCKVklBC0kCgkoM6LJVoSpEtslWELSBlBJSIYwVAlSE0wBFSIsSKSQ3IaPMLJAvKiiQpSi3DLUsJEaCRQgEBQgHIKooGgYgVTQxA5EUJjTQJyU0AACclgADIAAAAAAAAQBCAtgJATYAAEAWANACAoAQBFgNAOAKYAASwGAAAqAABSBYAMCKAaAcgNgJgSAWACAmgAAJAoAYBFgAAQBYAIBAFACAJsAACALQDAJoBoAQBQAgCALAAAlgMAEAqAQASBYAAEMCgAAJoAACAKYAgCQKAAASAYAIBMAABADAAAkBsAAEgGwGAIAsAAD//xAAC/9oADAMBAAIAAwAAACFShzzwyDgAABb774Iw6LDL7ZqLLJ764ILr7qbbrLa4JLb5465r7rrLLaAw54DJKL7boI5DjzxzrIa7zIYRgIAgKSizzDa7pI5pjgTyxzzzyzwC7QqLYLrLLKLLoIL7Za7qbba54KqL665655Y7a4rLIJK6776Y5I7JLKJqr6I5YZzC4IK4pYpBR7AAwhAzARZorQ4LijTTyxzSTyBhxAShhDwoYK765Ioro7bICKYKIIL6bKbob74opoqI4KYr75LIjJarop5Lb5oax4Z66IpLqprz5ZizyShC4AaIayKRCgTjxBxzzwTXW1WRwGQDYpq47Lryq566IL4JIL4oYwL66r4qb65IZ7J5LZopqjI656r5KoooKKbILwbrB6JTZIAyDhDyZCgAhAQjDTiBzTjxzxztJ/Aq9VM+9+ETs/65pc4rJsP+8s+ssMqaYLK645a5475LboI7ZQQ5BZq47pL47ZZZoxaIYapzTzwgRzBxgSiRAQTiRCTSjwjTzyTHbY3G4zZZ54jFZfut8Le+f8cZee8fus9a6qQrp5rKr4ppZK66IAJgiIB4Zb6KapZJbzpKxrIDDCTQwQAjBzQhRDCgxzwDDzwDDCBnJ/Hd5vaeeaeuJM7K4If9s/4sP588scNfK6a5p6aL6L6ILYrpZbqZpYZLI4KoaIob7T5poL7ILwiQpJKLo6CQxS7qgwgABAgQAARWt/8Ar333S/7TXDP7TTT7KDHb3LnxzP77/wBsioimusshrvvhvukmsivkmgmggvoGrrhmJoqpkvgjolgkjntpiKKGgipENAHEBAFPkoNgvosIkvAOvvvvjrvnjurslgkvrkrmtmmhkqgijisulntistoqhihmsjlsirnJhgkvMhusknjigqvOgrhiKCLLMGAKAAEAEbPPljkivpvlpjnjuoukrghqsgmkFgggjvignoipiumquutvrtjqLjvuooksjotkrsulrusgkoiitkjuvvokttgnquvuthAKAJCKHeMMm/PlhvqhmsjqoprjnjoohAqhGMupsrjivviBoOqkOslrmjILGPOgntqrrKCqpsjtrjBivjBKFkushrtvlspsPstqqoAmAEABPHOKn2lsoionvsgPCODPBgGFmOBvlntgqJOrAFCBMEGMklLsKiHmIhMuEmgGGpkBtFpFJLnsGjJmKrnjhqGNiAqsCuqLEjFBBEAFPEPItuhu5ppurikMjMCCmsiuAhNCgDOPsvqLMoIDiEKLovmvOHmDvqMBCHFPBADmCusEPkkogNHLFnAvoJgKJmtALgMEFHNCDLLCENPOtqnBzejhjvvksomrNknjvtjohjnnghiANtnupgLrghhttmkikojnmjsrJrjslohtsgvppkgkptvvuvrjjjnigrrLqnGDFPPKDFPLulsvgEvtCkoskliqGlrspvMqksgknntnpiklgutAOgumjrmtjpnsntvvkprgihgktnkuvoktkilsossMnvmspnnrnhENKAFPPPKIuKAkkGqlAOgnvjsMPDmgsOIGIooqkoLHEAIOMDnHqHOHghjOAggrqsglsirirnmpvsutqgkprkqnivviirljsnghnuGNLOGNOAKAJMPuisCliJNsmjGPttHLurhNtmuLlHkiusvFDLtImhlssnrkgpsunjlrsgnktstovmOslgkpoqmjikpMhrikskopmjEIMELPDBDAMqiqKgotHsvrqttBvNJqLKMiJDjgkhtlOjCAIIikoEOpqsvroiripqnnjgisngiontENpIrlsrrjqvsvnipjkusuvrkJDPEIPPPDOoElrhgoghqOvoosviokviktqjiiqvtutguDnojgpgojrvorjnshhlgmlmpqumslljugjigrtshlissrmoulonhvhoLGMMLQUMIGBqkohgiploprjnphhvnpilvngigstlhotrrvnpknvmqtonjuqpvgsqqrhsnuphkhktlvvmgivvlrPrvqrvhpsvmrrjLqFHfQQQAKBkptvqnpuhqhiqusnnumliohsihtvslqnpovluqgvhrnvksrpuoqsogspginqutvtqnhmrirsuiiklqjripkkruGMPNqPMcQQQAEGvmoqmkiAjiorhvlinnsjuhirjlnn7tstslplqjmsoqskgvtgmmM7kkvttjntqgsikpgthuiqokvKuggkvqpqosMKFBoFAUZQYAAGmksqjngrvhinvuHlsrGlpkhusihs5gpjknhqjvipvovtstkiklq06jstsnormlqphqmsglpqtqgBstrknsqinGFAsliFLTQQSQTMtukruoogkhhrtrvivimgvjhvux4kpuhnlqjmnlrlnsnklsnlmsuokkgpviurispihmutvtqqoplmtlktsiqmvEMAouqKPfQRTQEDmjktGveWlIkonvPjihrHlnBiq1ws8vsiimuqltnksigkg/2inkuhiijrlvvqrqsoujnjgijpiujMqvBinLALtAJBCGuENeTXFCAPpCFPjgRemklrikiimgvtljjkqjlkqtvisttnkqjlnoppmogoyilntjijqjnmhIOBljhsgvrlpivksgqoolvvtqpljAsqHfdfKMCNELNPCpqRrKikonrqvuq0lkgktlkwvvkimqnnkqkorhvmvhihvuggojmvgunquHFEgjvusutrughnouOltjhkphsnvPmvMdXcffIEjFtiqnqnoshmpEthmjo0srrmlsn0lmvgihvgugtNgsvqiprslipiqosojoszrNlkpskgqgnChjrhkgBrIvjjokvqAMqjPTaWMJDqohttjvIrmjvuunvjppmkhuligsvutvnmomhniltPmnhhKOCquuvokmrukormvsrogoqqCmmAvusjks/skljkhnhkijivAVVfYQMokEqsrtingBsrvhkgllutqolkipjmpjmqutrhuhnlqlvmj6vj+hjkjr8hssvtphjiqjgqhhglrkgpstrmurokqjqinHpvKQQUaQAuvvmsvhknrvnvmjnjjjhuvvurgmjhiglpggnrmujmlgtjh8ks8ikrskytqgjlggnvvwilrinvPoqsmrOhmpggoovvKFhNCQQQcYQ5uulgpugosjtqqovtlupkmgilghnukgsnhwmsnhilhknurgrplpsgpqohmggrtrgitzgpgklopjlsgngvtrkvrrskohrDPDSQbSV7vruphqqgljlkikupGpoori9zrrmpjmloy38tnq2l+4sljroozmgmhpuuhtjtrirpF2qggigvvoomiiNHQzokivHvCGqEPNfdbYU1nluulohnnurtsgjrumgoki1khvqjjmovw62nqr/AKdsqYZJpb+rYL64o55ZZL6a5q4v667otppzJYYJZKX9Zo5ZjiDDKgi331zAR9YJbboaqJKKL775yqxArp68fMb5oZroIYdeuY4OMq8+aKIMor/fJ656e/uJZ6aJp65KYKprN47ZYoYJ7qgJ4JLIBBzRYAz33nATyo44qJII7oZYLd8a45p77IuMcfrr4oprZa89PYot9+88ppYe8sd+Ip7+P6a7JtYIv57ILLZroYJJbYa7J5Abbk62GDjTQjD3WUxzz677rKLL5pJaq5Q6o44LKJdcuPoYYpqpKpf6ALpv+uMvqY6Kb5utKpLPIqobJe6KLo7Z7r7545LqqcrZYYIZ4LLXkIhDDSjQwTDzDLLI7LKbZ7rp5ZKJ7Lw46LYZI/5qJ5vPMe+55Kbf/wDDDOuuW6jL7CayHjCeaWuu6Wq+iCau66qLqWCGamaYy+Oi1piMEQ40QcoAAQCeqGymiK+C/Oqmu66KS2G3i6OizOGO6X/jueSSHHW6u6iKIe8Ifqq+erSWqCWqiyGaGqSKyKa3i3nmnCGyCj3GNvqGwU08MMEc4weCGGeCyEMf/v8Alpgggrskw+tgm30xitsvm3likxjmsusktgjohm5gogmhqmhqhtgtvijojumiuno9xijnlvupqg46slnMMHLPNPKCihinnkiGv8+31miButruw1qkjn7+qpi49z0ovptmnthoktknoW+rvnnuhhkslqmlpqtpgm6m/brx09w60ihgIlyR5HHHHPDCefPIvtqsshpIi2hy36yXmigs43smog+kmw1v040rvrimihmiugotnwoujhkgttiqggqtvlgkhtorz1yw9zzz+otsqnox24qPPFKCaYECgogtulhKojgqsrjNhqgplhphvmqghsvy966hjssvoskjopiis32nrjlqkqsgorsnvomlnhhltq4w5v16qqrnilmzkMqFPDeVfBDGg9oujivFqqqqnjmnumonnukhiliopng7p9ivrskijtthCHshiglkksvsnsqjkjxomqgljkog0+2702428VkOBIFYdWTPCPaVaHPPpwk16mstqvv384vuutlrsgjjjhqvojhyp7rlsmvsJkskggkmmqgkqrmt3zxlqmggkknjpjlri+88w0xwzUjDMAPRRRfONPfbXNOOCEh3dxyQutt/0wgilpjqhktrrihr6o19i7onkprlilhvlvmlsrpihrryy9tjjhhovtnotkrly083/wBPPckcwjwDlXH3CiD3lTz0jYLrIL7LIKbq98p5LpL7YqJ6K7rLIYuPO7Y6Kc/d/LJKbIpZaqpY+c7or9PvKrJIvOZIpYtdqq9LMuuPO889c13DG7SgaQD2l2321ZT4IqapKbZ6ae5u4Ks4YZIIaJrqr/c/frae/M8YbK449/47r5q7tOYpLsu+JKoNtdb7IJN8bY/Z5Y9fOduu/VOtWbygZSBUn313V5bKJq64DZI4poZ6I78K6aKIKrprI6ChKJ6f/t+o77atfNIpKKobtJqrL+dZI4N9vZoLpqvOOJoY6oMsP/P/AHZtpd2wgOsshB5lpVS+qCSGeqOqiaOiGiiGq6KSqCyCKWSi6yKKu/7nufeyz7zeqqauyaumKGTnmWaPrrCOa6CHn/2Ceii7BfffjXJV8BGCCG0891BF5RmSH2U+W8i1rm++WCe6qWymSyqCmCuLn+u+3rDHnvjPDDLnyaqGSyaiuuP3SKinLfOKaDrbrn+2eO4vdzjlfjJFh1C+mSwc5B5hBBiOKqyKCCyi+uW6aSque6yeKC26jfyzbO2yXzrfHjDCO3/H3H6yyOiW2afrOOKOuqO+mCHrj7z1TSU75fDXTePTN9aKyWQkpFJBhBG+2i26S6aOOSKSy7iW2+Pa+e6a7jDnXebLnLzr3jreOnnH7v6m6KCWbbPeiWKO+ymaua3zzjXpfn7HXvyCCO+SPHL3a20MF9JBFL6w2K+KWmamGauOiGaOGWzyiqSmGPvjHKPf/vLbbjvnjT/Pvff2GSCif/HqO+2iiabD6j3bPHndHzz/AF24tvv7/wB/Ps9P4gDn01HllByLIKYKZ6I7L4YJaYLp7Lab6575cL8PIYstO+sc/rIIMf8Ajn7aiKkq3vfiuWC2qif7SLH/AFw9y54xzzyx25n/AHflFU0lKQG30X20BT2q4IIYK7Kqr6B456IL4NKKIbKJZLNf5sO9sc9MOrI6c9c8eN8rK6PO9sL5IILa4OtratNNNuPe68P8ut/993Okyg56bin3233yyhQZ4aJL76KJTbrJ77ZKi8iR5Jrbb5/e7bOeMPMM8JJJOM9feuMf67t8tqbr4pfPsNMYJNdvsdudu+t++8NtvWmyAROuJCHAXXCAALo6YrqaZoI75YJ4aZ5oppa6oJ477K/9uretcssfqqKa7ogcsfP+eKYoJbYr65tPeJZIYfM8fMceF+uXvMldEVmgQxEFIAkAEHTAwqobJJad7rLL77bIJAoJK5r55Kp6ropdua/Od9PeZ7aKa7p/LptNv/b7IZ56rJMOvrIbo/8Az33zXV7f9Hz9H5lZA00F1uIJFBBhdr6C2+eK/G2yuGu+CKCSmiuo4yOQiy2+K3CKfS+6KqKCccC2SeSWOvDW6i2yiCSPDbeeOi7Lb6TFrJx751JVnlZtNF1tFe8BJFFdpBLDWiCmrOWqCWiW6G2+uSOKS2SvrKeSbnP/AH4kutmv4805wrznmp/10gsz+uqhrzwljqmty22k4w+8+xV826afTSXYcY0vBKBXfZZT40sokr1rrgrvqhkjsotvihht843gopz38w24ktig+7zzyzwkqg1w72g4+glll603ljv7qw1976/794f330FcXbRXQY4vLKPHeQUvurkivpmttqsosqiovttgotvtt+5jmgz67zwjuvol760368371ut+8tslvupivgrpnjsog0V3/V/TxwXQWaDddSTaURRnPfCGKQPn2Znplg/jvqogvqustpkqluoi/wCtdLpNMPeddbrpaa8cvfdPbsOevt7KIZI6JaJLaYYIOZPO+Ns9PP8ARTWwqNNhRBVJr+F9wgABAS3/AOjgOFsihy1hgsvggvlkmgrk89wwsmpt7/w+qshg42530vip9yw14gkggnrqnvrrnk//AJ/3delM8N+HUv2LUW03300v6FUBHEEP5M86qLb7JoIL7YYY64KKLpJJqfuOurZPsb75aIqZSPPf+NutYcI5ePNPK4JpZLLLJL4//Oe9M8kusdOHFVlve1gG1yhh4nEAlGEN4bZoIJIo6Ko8INYoY4Z5575apPF+oe9sMv8Aaiym+evDDb3vD+Xu6zD7DvOqm6mS2Or3PbLnfrT77vbvhlFBCKC+N10kYbtBAAABH3C6ay2u2GGfH7niKG+KumumO6/HyOurjLf/AGuptrht945z8/4n6jr3hzVzmjqjpvkqw92604RSe+9/1wUXadrhjteaJGFSUYBAAEUy98htllvtgzx41zkhkggjvqlqq1jkqi10qwoos8nugx7mqhoghuljv3pmplkgvovlrq7+6878w/8AdNMO220oIxhhSSywX3nwAAEGP+EKL4IJ4IOON4KKKL74L6J6J5976L8F96KL4IJ55+MMP6IN54L776N/94J774KKIIL7/wDD/fDfDf8A33n3YAgvAoAHvwffff/EAAL/2gAMAwEAAgADAAAAEKVYeccVyz+w4c+8jFvQRzQRQ+VfUdedVZTVbYRVWYx3+807TAXWXdfec90UGvKGFKotDGsinrjDjsFjCGqrCijAl7vuz+tKPad0kkdZZcdbR78c8XSYwQfYXbQe/wANe9M/nt/+f+9vOMtPOePeecudMO9d9eE03ATjJKtq4KgxAg47RaYIlJptbC4sLou/edF9efH087rdOVlkn1OMN/8APrTvZ8rJj77N5DPr/wDydwx56wySUX31+86608634xy5xZR0CHAqi56wuzkiFYBbLpkO2f7AJu2y653X7XfHjbx2so07eUfQbzDouuyyj81QaSXXef8AO/tPX/dU9UlfnN0O+HmsfeVkkEN9udX23dxpT70J+v8AKMgizdjhE7ZtHBFzXzWbPZ7r/rDXPTmahLZhp1L/AIAzbnEQ0ZFXXk9GswUwp3w9s1ii3vtoE/10TQ7y96TcZ386591a03HvIXxz19lPL5y/+SiQ7Z3/AN8ud8MvdMuc+O+t+4r3/WnWOvMI2iqLnpAomjpvy9nHo5uqov5q8rfeucYO+le+8OG9fcc+s+0WCtVoKCtk1Fv0CBk+UcW1O33Ofdd9tPcedNd8IrMtPYb/AH99FzzTecekIRvWe2Ax2yf2eSaXyzXH3bWz/wA8+M34Sf5+82+xy9z/AOesg13mGjUFnk0V3XGffP3GlXF10s8cUkkm2FO9ZJ1HP/YNf1vecNeqSpMMjSCkhzwCDKKr895eb6cBCpSaMcaIOW8O99sOMf8A7D7bPjb/AI89mf2wx9w4b6yxwR325468VYaS2f8A3mOcqin1tsp+O3F+sHE8mkEm91Eesd/lW0NNMXku9P8AV7TTPTjzzzXPnT/jf/br73eHrf3PPZkR9d9xV3ltRXjZbFNjPF9dNDVlRhvzKCCS7Djm3jdsTDBTZdPvDF3tlR//AN0cb7y9Kg3gVzXu47983/yxp5z25/5/z1nuC/jgly4fCusn555TdizuOMpsgjj4wxYfecrqJ+gCAIy9ii91Zh88QgWY7w39GAAV373h56tkhhuiFF7s9335z04d4b59Q3zy/wAByaCj5L4FlaJo7tNPFoZQ4VIaZBL7asfcOk85RISoKCxOG64//lePv1ptuOctspCYyRhITgsCpZ7LJJp1YxqaykrYoYLDDZAaw/8A+wyUcg+GatMc4k758xqo0MumuU8i2SicGCqsCo4u4mserzCStvJBvfhZdpIl/LJvbtrhVNwLNTP9Zplbb5t/5qnBXpbOi2aOKCm4OgO24KyCsKww/TBc+eIOEM2kwKqUUGzZhg4QrZzphXENPLq6bR1v/wD1VQS5HuR1+34e8918A9SU+5+a39b39z2Sb333/wB0LgvNfNuLMreO5/a84D8OHNvnXZZAG6p998bZV0uWlyxXF0N3NgE/8ZZ81XOt/wBT3zalrXhXjzzXTiYKJLPb4LfvPrnjbbTrr3DrDcxzyrbHOfO7jiPSrPS/b7POsFSmS/O2q+XmyptPtXoC7z6ONl4VPHrvBdvDfrhMGhi0iKpMfbDPj0sEP3/N4mnXTDzXpBU4FtJAuQ+xw9Lb3t4//KfCj7XXzv2rmaCCSGKKCyD2inXHdBg6vnj3lxLR7zjvxJ3bH7vim0aaYhL4E+uEq8uOQ8nPYWfOcWAAOM8qX1ZRT8bPuv7/AA3943yh73595/0zq/8Ae8Nhr4JKJ8af9Pf2c1YdN/8A5hZVXfff9hztnfDWMGA+yDkEkICg8OWCg4dQWQ3iM2iEqeYGac1M/wB56Xd619/+051wx283533+tx/6xlEAuGvmlprz9n2cgtvkihlg5zc3/tYXecdTcf6T223b0ZaWy449T52y25o675+x2y914ywXzw+1/wA8Nce8fv8ATv8A23x384891974xwyvmks4+6olY+5We07/AOece+28us4WQgVl2UWlEvIYFUW2dtc/PGHNtftdNe8uMtNsWFEc8s+/u99v+ce98fOMcOPcfMs+csfvMN//APXXv/8A0x7f+UQQfz31y/RcaT9U6iHAKNeVQWRzHPk0Z444z/8Aevk+dMsd8c8cOMOPtMs+NuNee88NdMOe9OO9tPcsc8u9uOd+8v8A3LLnzzrPKPZ9vVvp5nf7tfXLjNnDpwEMRx5N9/J9Oxbl5r3jrTXJFjVJ3NzHvzZQPjJTzHffHvfHDPjbbDPP3puHDfnfXzb/AFyw78y9y0Q2zW9U5TVU4QRWdyf9811ay+UIEHaWYbZyeS9RTz5z60gE2x0dcSdYz3/6fP3+613++1773/730844/wAMs5o8uceet8Pvv+deOGWGs9Ht1cVmlvkH8tudONkUkstHHXzmC3kGPm1GG2t1tcOfWsNEU3MtWV0i43U+evsd/Ncuu/GfcePcvef8tsOM+Os9dNcu/N89ftdeffddFm3112n1ln3fevHVWtPQDygD3mWX/WPl6Z3fE/8AZD5l9Vvdlv11c+RIv3TLBP7TP3XV5vTbO6f197HD/H3bTHX73nXPj/zLj7Hnn9HhBHRdL/Txb/jnXhTTYA4pJhrZffXdtqWhFZ/3TNj/AJ+2R4xbb096202+zww953247fT0z4313KTy4+x/+19zx9QfU74w38y0y335YYaeYXaSTRaXRdwfW4MDHdSc18+x09QZuS/T0+1Yxw33j74eWy28g3zzx232873197y5+175978/+0wx/wDtcu8VWW9+f/eM9t/Ffte0cnn8XnFXVFnN2XcwiBwjEv0PnE1UkUvnX9/GVW+cNZuNU+vufKvvtf8AHbzn5Dhbf/zD/r7/AK5202250z56tyS5+83z647/AAt2cseWcmtlHHPV1FPdFX8HGx01u300+8uXPkf03Nt+0N/vddN9ufNfc8/s/wDvnHTzDf8AUy/w8Bbcy3zw7z6y+y69z69y75+/4Wwwd+ez285nwVx8/wAtON1nPE/WmmBTuXEcH00F3WFft+/HFlemG0k8cNOMcMestNN2+eOdO+dOsvPYsMIM8W2d6P8AXFx/Lf3njbDbf3xt53PLJx1FtRZ/f/nFXJxXwAZpW/5l9P7TjF7Jl3P/AL1Ry943T5w06z36w3/80248z/35836//wDYPupeuVns5vfvWWv++c+Z9++N/UsG1WfnO3mHvcs8Oms9U+cxy8s54yXm/dev/wDF9XLLrfrXXHjPPjDHP77fXb/HujT/AN733x5yx96w48w358xyy5+y4/w714q97/8AeWFv+cP23kUGs9uvU9H31c8Uz+uMdj2GPuNsMOnltnXXm9XL/Pe9abp+IdPtPeb/AKT7TGDSqLfXfzvGzRB7rr/znrHPrRJ7gr/jzvFJjnzvJrna8xVv1DFr7hLTtA33byQnfHLnrjzfrX9vNVfDDXj/AG/o/wD+vu9sufbfLdOs5dJZvseN+v6NdfeNtP8ADPZ33rNdULPTjenTZHHzZlZOIvTzBX7r/Z/3gyGfzHAVBxZ3X3blpP1BJndjf5pBOPKH/vXX/vj0r27vOfrW2DLTi/X/AAmx851lvg02YzyZy2+fW/8A5+NPNWE2UGNUu20W+M/+FdsYJrMf/kU3f2f/ADb1V3ssRZB9tZFSOUZ3/bn9vfjsC+7j6L+dKLH3+a2vmLb/ABuk4zx4H77K20+S0/8AsvmtWHkE10NUHI0Y4f8A/rTj+iGPbH1ZhdJFlt7VtzlrL/zlVbHye2W7DLDj37zmPpPT2Om06Lz3zPzySHfr23nDHDyPj/nzzLbv7fXnP9QHpxNNTrRduf1znbDjDDLfjPFFdVF9rTX7VzvpJDv1HXnr7b2TT7Li2zeSPj/7GJiXO3H7jbO3PbbHGmPLTfzb5frZRzblJfLgRJprthtbBZJdTrhj/wA8874x99/3ZY436YUY9WO257f9347/APaPNdcLPtuMp4If88+gp/vuM8sndm34Nv8AXqnDjTPrFPb5VnbrLB90ZA+381NxFQgrWNppfTfvf7zjHPRdZXRVF13gEoFFZdVV3TeCL7/y2m//AMe/wv2wxj6+7yw896877yDy00044584z0y3w/587/8AEPke5YudccOPus8C0+2XN8O/d/eteHXtd10FNWhyVRVEsWFecYL/AP3feuXzjSaC2XjnzLj/AP023x53Y3Ozx09101y8826+y405/wAj2h+VrrKrJr/ek81j7yOMONt/s7r+9E+ONFMW9Np97wRQonf+eLIMt/PYtPpa+ouKfN9tMcd9NOecttQ0uf8AzPPDj/7rTHHP37jDZtMMSeq2OG+P351zp8sMp3D/AH+yqq0zXfx3TWR8QWfaZXT9V976+w8x79w830/thtiw0w/xx/44y+/08uv0y618280x83wx69y65+/9wwnwu9gyz++VUW9sfyW+07elvxzyaN73w4Y7V0/TVb7RY896z922727304wm5n7085/89z08da609085703841y0+8q096232zWbGLhbAJUTR3b93/8AKtMLM+vmpatP+Ew3ihvnUnUW4Qw/MPmUuMMs9e9Mu/N8Z+JO+e8+/kOvf/v9fMMe/dfP/YKKvMO9PevPutdn08puH5Jkt1sWv8PfafvpfvfPIbvfc8OGQ5QBLGVlxFwt/wDfdzn/AM/z0+68u9vs1q70/wCct8/u+MsMfeOuv/O/oMK/ONMPevsN+Me+EotOWir8/nMCe+OvzrZIvecM4ccackUUGm8tGOsfo5c/8sPP/d88Psf88P7pKscetLYKbscd/Nfu9t8uors/dobL+9e8ZZMdcOLbv2xeDDK3dmGwBea+a0e909cUOL5a48d0WU+2V9t9fZfLu8KfPP8A7nH7rni6umrLWyyyd3DbbW6v/jfb3OKLLveNKfT7i6GXrTTOCTTqz3Hajz+zu8XsQqhbbBrD53DHjLz1Bl9ntfbXzL/PH/vy3fvzDTjLvHLtNz7vK+7+vzf7mT3nL3nnXGPnL7ySHLbmn69zLDzSOu/Dj/JAVJ0hAoPrOSBXrlfrV7HLXrHh11N/xhFtl3fTPf7DrLvvPX3zz3bP7v3fLKXa3y7Xe/TDLHLzDLb/AP53piz64uiu832w0s3o0w3XQP8AEhVZhMKdr3XWU/cF+Pse3PEDVvV2tnqS/fNt9c+vetMf9vNMcPYKtMv5o8vps7bJtNofcs8dNMdeOL7uN/qJ6OOerraOaNufltAcGTewAYdr4XEdk+MFM9/+1/O8sMucOev9O9u9/Mu8MMMc/Ne6c9oYNvNrsePfPL/N/wDDXmHzPDH/AJ9wpjw85+9zy0z/AKrO7zbKmOg+FKbbERj+t3WNW/sfvPtftl3Vv+NkXeMst/8APGfrLzCzXv7/AIn9l4i4gmonx8yzs813l+/g1y90w5Oqj2x8z0wz7x0+htzwU3kEAEdX65zXTURZFO3Q8556/wAYiU+GuNf1G8tO9Oc/ttOdNZt8e8sv6LIq85pMcsM9sZr5caqEYZfKsOcWr7+MEve+NwxGjyhl9U+sVFBV+v8A7QoE1x49Uxf9q+OT6e3jJbfjzfD/AE6x750292826+92438n4isw/py708418x0xrs9jt8j4V3z1ky1++28yqo0FPAZy+a2l7Pb/APaOzPQtoJYK0nY7J7/7sdKVvMOcM9f+dd0fd/P+c6tuMf8A/HXuS/WqT2GnXLL3fjiG3+KSDHTarze/rHDbTHWufFM+v2aH2P67LDnOq9Pdi/r5ZNBoyG6qTTDXRfHrD/Dj/ZzXHzzP71eZdf7vfL/OjjD+fayajOrj/wBkht+kDOq50oog5088QugrPlwxHGHgFZFGSfcQ0nrf6479zMPUwA2q3377T51+xxzyw9y/58338836/wDcud+8Ne7Y5s5fqqr7+NP+8c1aYIMrZ8dMu9O8+0puZP8AfnCiA6+ftvB9P5lfsP3C/wAx200X5H/lyz60V5z94/u7809z5+y0I/8AOOueeNv9fee6Ivq8Y7a7s8Nf88s6Mc5oorPvtdvNnl6268/ttby0KnHlfm08VxvA+2rOE8cMUuTL79rrSNPe++tbP+s9Pe949MeMcd3CeeE9ttdvp/8AmLX33LjT11DLTjTDbCCLbv8A/wAPEGL2a99MeZI1XQ90MvH+dqvBs184T7vcE9Aoe1ru5qB3s+e5P/8A/HbLlJDDD3rPXLzim7Xf4mWuGXbHHvOuC6eD6rr/ANhiv2wvjz3Zcsg010zaisc/tzt9UZxXFLtsW99186BQzaxn/wBs46RlOsuA3e/9fGH3GMf9t9e8OY0ocHvyRY8cIs8sPtdY557K8+t7WuI/Kpv9VXq7L+eVzEC3yQ3ykkW8lywP7ffM8+NSFOGuuIf7FO8PPcO8Oe8cfkHNcMO+t+PvNtgKPfeI648a88Pf9aarr45OKpu8Y5uMOtNdfcttf/MElPiuCjv2d0XseZ7eLmpe8MPdXPjPedKfmgc/8OsiWOfvfu+9fNfs9vdteoDi4Nc6JYs6qvutecoYrZ6Kcrb5qIctM9MMe+Mt8+vEQ+gwhDgM89X9TG+G7Pp89/NlGgC8s+odlSzPsEmv8/5qO9sttJtNvuc/u7lC5vMMdp7ZofEG9II4K4fedLL5+Je8Mf8AXP7PznnDk9PgDIp/h1jtrm4e9+QiT3qyENgojmKmY/CGtJt//wD6/wBdsHWlnvn3mN9M+YUZZP8A2Wnrf7T3j96Xya+uajuD/wBrkmt8/wAut9teO+8jF5All2J7+dEf8vuixgOaMMcuEhX8pqIx/nHmnXE03f8AeL2HvTbxl/fDvnwfoTOiqe2jjbbdpHCPKb2GUfqDry+4wobDHLHjXXiKk1CosZwIWXO5iXPmTzhZrHPnHcnBLHPGA0pDrH/vzHPi2K6H7L/3T3jXb3qcdbTme+SG7/8Az+/4hslvqiC6i0zo7DjPf23828y9kovCOM42/XMdTf34/vQfZVqg796qZT2wx1lHONeTSec/zr9jqj5+2608z8773GV61zkq/l786v8A9fao89utMOuNstLH/dNf/vP9Nd/a6ZqMawioeNoiM+qX0s/9M/deYHkGMEIPyAL1318N/wDefefDfD/jDfffjj/8hD/8fgjDf/8A/wCN8J/76P8A+/f/AP33/nfo/wB98OP/AP8Aw/wgvg3novogoo3IgwfX/Q//AGAL4GH/xAArEQABAwIGAgEEAwEBAAAAAAABAAIRECESIDBAUGADMUETIlFwMkJhcWL/2gAIAQIBAT8A5o8HA7zPEnjhoRonqY2JpPWyUMxpHEH3yZCHIRfON+dlPHz3k8BHOwdjGxmobaSnC1lfLBzNvUI5xmOlFppEZxchPs45Dki05PG2SjcFQVGYyMgbLSVhyPsAEdkE701NaSYTWsWFhX0mATRqA++E6AYFGBpklHxgjEExkh3+LxgA3Ra0kotEWQADVElObAo1k/KHjH5RbBUAC6CLVhQELCSUGmkSsBhfTI9oNQ8XySnC9AJUINlh/wCoNuEfHLpPpPaAUWtaJRbcQnBqijP5BRLii0EWoBJCcR6hYU0SiwBO8ZgJzMKwOiaeD+x/8pvyV7REtJUAAT7KwLCxt3IwXKIKwy0oNBTmxTFDITpwgIiICw3TRD0Wtc6fwvIABs5EQseH0g/3K+oj5DBFAViEypNGugFYkHgAg/KlYhJRc2ICBEKUTNGmAVNoo5swi0YQAhFgmwnQgW2KkTMomSV4oxowHp5a5yJEQEXNACJk0b6IRs1MIHjRcMUoeX2Ef9KcQWtEoOEhEI1kzKD4o03RF1LYQjCV/RfViESHEXTrf8ox+GViUlSmmYTj9xTnAwgbpzgUPLEhNcPlPI+KSi6YWO8pzpKPkNljKLiRfYjUOrJUlSaTk8Zh4Tz97taTlOjJzSBeUZmpoMxqdXDQCU5sUg8CTJ441OoAnzMK9AZYZQRENoVOqE5sHWPIGpqdFvwng4k1sNkp8WKFmlASvIZMfihBshAbdHxhN8cynMwkItgCgbIRZ+EWkRKMTVoESSmNl4XlP3mmCFhvCa2TBWATZYU4QAQg1NZJ/wATw0G2Q8QdM6ZQMIuaUPJYhFxIU/CmryIRI+1F4JK8Ys4p5uAjBKKa6PE5B2FqNwFYOXzRsEXTXBrk7+RQ9hFzQ6UXfdIQc2VZsn8oulsL+qmWqfshvuVHEnhAVIDCMszCk6ArNJUlAlSVJ4snTO0PRT2w7YdDOmdsMh588AKzlmsqSp/TZqaDaDMenRsB046x0BrnOeYOsdAdcOxPZDz5zHfnsh6KdA7+ein9BxzB1fnqwzHsAyHez0MDId4UeKnhTtDsDvBtjrHROmcx4scaMxoOPHBTsx0M7QVOseIH7vPpDMesHKfSH7OOgafHQz2Q6Hz1k1OwOudU8qanYH0h2M+v2SeIPJnRPZDxY4U7Q1O0HKWrbbH9XHcn10s7KM59dLNTQFHTNShkPrpZzHUOc+uBO/G9jQPPjWPfjwR5w5f/xAAiEQABBAIBBQEBAAAAAAAAAAABABARUEBgAjAxQXCAEpD/2gAIAQMBAT8A+NYUHoC5NFxbkoUNCCIhQgoCPRAlflgoeKYuc/ixYoLkuHdckOyDENCheWh+KKKHdiEGOjheUSpaSpQKPZgi3lBivD9wuKhh3UolcUe7+Lo9UlS8tKlpYFS0qVLSgV+lLSwMMTeHexiGoGUF59lx6FPokbILw1A2QUovDUD5NGoxoo+LD8XnYRsgqDeCoPWNcKg3gqDeDEG6nHO8DZBsIcURcYg9RnZDRxoJ3U4J2Q5p00bIOsf4RBzpQxxUGlGOKg3gqD7OjrDBF4McYIvBsgxDqZwTshrjRDZB7fOIcP8A/8QAOxAAAgIBAwMBCAICAQMEAgEFAAECESADEiEQMUEwBBMiMkBRYXEjM0KBUhQ0kUNEYnIkgrFQU2Bwwf/aAAgBAQABPwL12J//AOkWyP0zI5WWWWd/paKw5689OenJycnJb6Wy30ssssssssssssssssssssss3Fllllllllm43Flllllllllllllllllllllllllllllllllllllllm4sssssss3I3G4s3G4s3G4ssss3G43G43G4s3Fm43G43G43G43G43G43G43G43G4sstldaeHJyWzk5OTnpycnJycnJycnJycnJyclHJyUyiv/6nWFFFFFFFFFFFFFFFFFFFG02m02m02m02m0oooo2m02lFFFFFFFFG0oo2lG02lG0o2m0ooooooooooooo2lFFFIoooooooopFIpFFFFFFFFFFFLpRRwUV/wD4DefJz0t42WWWWWWWWbjcWWWWWWWWWWWWWWWWWWWWWWWWWWWWWWWWWWWXnZfW8bLLLL6WWWX0vpeVll9LLLLLLLLLLLLLLLLLLLLLLLLRuNxZuLLNxuRuRZuNxuNxuNxuLNxuNxuNxuLLLLZZZbLZbLLOTk5OevJb6c9OTk5OenOF/SMWDxYsGLCsKK6UUUUUUUUUUUUUUV0ooooooo2lFFFFFFFFFG02lG02lFdNpRRRRRRRRRRRRRXSiiiulFFFFFFFG02iKKKKKKKKKGiiiiiijaUbTaVyUUUbUNFG0oooSNpRRSK5KKK6MXpP6FYvFi+j84vFiwYvSeLyXrsWK+lXrsWKx84sWKx84sWDFj5xYvSeSxeSxeLF9H59J5LHz67F67FgxeuxYMWK9J5L0nkvSYsVj5xYsfOL9N5LF4sj9Gu+DkbhSFLqxYMXrsWDF6XnFiwYvpGLFY+cWLFY+cXksfOLxYsfOLF6T9N5LF4sX0tkmX1UhSNx7xCmbiyxyFI3Fm5F9LLLN5uFIsssYsV6d4Msvqxeu8WL0vOLFisfP0HnF4sWPnpZZYxFlllllllllllllm4ssssssssssvrZZZZZZZYxfRrrLqxCJDIi6S6JCRLouqJFdEUV1RRRQxejJstikxM56OzktifRm43G43F9eTnHnrz6S9JnPTnqvTrpRWFMrrRXSulMooorpRRtK6UUbSiiiiiiiiiiuj6VgslivTX0TF1ZqSUe4pWWRPA+kRMsl0j0l0Q+iJPoxMT6PpHo2JkuxDVudEX0vo2WKaur6T6LpF9JCGIRLtkvSeLFivSeS9di9J4sWPnFi+gWLyXpr6Ji6s1V8f8AoT2zolqfYiXwM1NTaaeopdEMlJLls05JrjpIWonPaRY+/RDJ6u11Qpbi6ExDGKaXd9GIfKZCKiIsXSXTSh3fSXTb0jOUtel2XRl9EJkvlf66qJ7RJwSruact0EyPR+g8WLFfQL12LHzi8WLHzixfQL016a+jXVmvVWQ0nLl9jRjc3L7dETdJsjz8Rp86za7V0RrayTqPLKlqT5Zow2FmvPil3Zo/2/6HLarNGTabf36IZJxjv+5B7YHx60qXYSpJCGa+rt4XcjoOXxTYuwx6yWptrCWoo9xCJD4TZ7LOUnO+kujkoxtn/U89j2Tn3kvyIkNpctj9o0/uQ1Iz7ER9mIXT2j+7/wDU0v64kejHJR7mjq+8UnXpsWK+gXrsXpPFi9NdbLzXpMRfpXivpL6amrGC/IoPUe6X/g2mjP3dxke9h9z/AKnTX3NTX3J0jTi5foilFUiU1E95qanwx7ENGEF92T+DXvwyMo/cnqpcLlmlou98+5rQlDU3xNR6rVyTo0v64kemprRT45IaG57tT/wS047ZceD2RL3Tf3fSU4wXLHqamr8vCH7Oq78lasPNmn7THtLg97KbqC/2bHDWhu+4h9PaZJqkQ+SH6N04Tk2P2nTrufyavjg9kfxTXnox8F+/1dq+VGvHTjp0lyezKtGP56a+pt/ZpacvaPim+CWjoxj8pof3KhHgonrNvZp9xaerpuLu/ua7/kmR+WP6F11NJzn34IRUVS9NixXpPJYrGQsH6bxZHBi79LL6r0HhfWyyyyy+ljZfSxMssvrZZfVfRMRQ0e6jdsoonpQl3R/08L7EdDS/4D04/wDEl7PKLuIoe0Mj7L/zYoJLhFE9KMlyL2WP/NkdGEexRRPS3RaL1NH4WiOvPxpnu/aNT5pUiPs8Y/spm091r6T+DsJe1SF7M7ubsqhj3t/gUN+tFL/Ztrsj2iEnta8EPaI/5dz/AKjS+45znxBD9n+D8mnrbFU0+Bz9/KlHgjoaa/x6amlOM98Be2V80R+1J/LGzZqaj+PhC0paepcVwe4crbIz1NH4XCz32tLtCj3CrluyHvdK0lwNS1FyabWnrvcbo/dEtXTS+Yc5arqPY9mSUpkpJI1fl3CfCEyxssUjyWWWX0sssssssssvpZZfWyyy+l9LLLLLLNxYmWWWX1stljOets5EWy3056WWy2W+iLZyc9PJz05KeVZNFFdK60UUUUUUUUUUUVjRRQxfRMWPnpXVlYr1qKHpwZCEY9l0onoaUuXEj7PpL/HpRtj/AMUUl2WD04PvFCjFdkiuvH26SQuk9GE+6H7EvEyPsmnHvyJJdkT0Jbt8P/AtKcn8fBraO+DSI6+yO2UeUezRnUpS8lFG1EIUutdX0oooeFehXpL0nixek8WLHz1rqvSfpvJemvomLHzi8WL6RixWPnF4sWDivt6bxeSx8+kxYrF4sWK9Jix8+gxdFi8li8l6a+iYvSeLFivSeLFisfOLFgxYr0nixel59JixWPnFixWL74sjj5xlguixeSxfpvFi+iYi/ReLFivSeLF6XnF4sWKx8+k/oHixYr0mLFY+cWLFd8XjYvTXpr0mL6Ji60VhvV1fTW38NPsaepvRzjzleFll9GWWWWWWWWWX0vpZZZZZZY2WWWWMsv6Kx5LO+ljwseF9FnZaLGy+ll9EWWWWWWWWWNiZZZuLLLNxuLLLLLL6305OenJycnPRHPTn03wLJi+iZKW2Lf2I++1+bpHs05b5acvHSWpTruxa3xfEhST7M9ok98YXSIaUI9ujNaEtGfvI9iE1OKkujY5IXrvOiifFFdKKKGKmUUUV0oooooooorpRRRRXSiiiulFFFdaKKKEUUUUeSiiiulFFFFFFFFFCKKKK6UUaXxTmyhoooorrRRRXSiurEUV0rpujyKD1fiul4NKXMoPuvQX0ClfRv4ksF19pfwJfdi7L9ZMX0TPa5cKH3NDWWnp1R7L8Wpqah7TqbIKu7NKGyPPfyas/eTqCs9nWyck+5PTjqLk/l0f/AJRNPUjNWukoqcXE9kbU56bJz2QbNPTbW6T7mpH4TSTUFeKzvq8l19of8d/kTuKf4FgzR+GU4YvF/QMWDyXoz+SX6NN3CPWL/kmvt6Ec5Ooy/R7J/U3930eSx89dd1pSNP5I/oYsUTl8UyPEI/o0lepOfgc1ms9xfVY6Dvd0hLdq6n46Wl0XXU+L2nTj9ul5L6JntS+KzQ0IS0tz7s9jXGp+z23vpDc9d7Y8RNPTjp9jVde0aXTgh/F7U4eJD6ezrd7RqTNfmWlH89bo95EnqeIj3wa+Kyc9qIStEtaCI6m7DTlcbJq4m+WpUf8AyNe6pp8DF0lrKPHkjr26arohzUe/TXlHZJWaWr/FHjsKa22KfV632VkHftHK8dN2Nljkl3Zaa4Yiz3sPQ/kTZCe70Xmn6Evkl+j2f+qPXQ/s1n+SUlFWyOopdFL4pL7DnqTk1Dwaeo23GXzdPewi+WJprjDz01f6p/o0P6YdNSU5fK+Eact0E8Y7tWTp1FGm53JPxh5N8bq+ntT/AIv2xcRX6JNJCxj3JfPP/wCwozkvi4JvaoxXklBKLG/hjR/MiElJWNpK2e9ffbweBdJanNI05TcmmakpRSr79aNN2n+y+iw1v6pmjCe29xL4NOUm7NCNaf7JS2xsUHPl9G6ESTfZmi/5nKRKcUrbN0pcx4NKbldrt0XVfRM9qVQs9m/7eJ7F8s//ALHtUd2na8Hsrj7pV/slOMe7Ify66n4iMers7o0Yy1Nb3sl+hk5aj+GC/wBmjpe7jX/k1+NTRfXXnWn/ALNKC2xf3NOO+eoLSSdt2R/l1JPwj4ndEI7tWvtjofJX2Y3Sf6PZV8zPaPk/2fbrFX7VM9ojem35RFzenvs03uhFl+81KG6Q9JbJN9z2b+lGkvjmvsURbU9prutP9kYqMUj/ANy//qSJx2x3WQdxTwpz15xvgnH3a3Ii7W6Sts04y3XVLprW5Qh9+5tVV07ouUJpvs2MTsnqbf2Rba56LjXa/BKaj3HI3yXzF9WT1K4Xcl75Kxaq2bhe97v/AMdJzd7Ydxy1Yr4qEtTU58GhW2vzgiL3zkvsSuH6LJfLL9Glq7YVRCSmrQ+zPZppb78snJT14xvhD/vVfbnprS2al/dGmqgifHtGk/ua09kL8mnpx28rkh3lXYlJRVsXK6eemtzoz/RoP+GBrycY0u7Iw2wS/wDIpXrJR7LDWlt0pM0VWlHo3QtSLddNSTtRXkloR2v7mk3PS/JruVwjInNRjZt3R3TND5X++CUlHuyOspdYn/uX/wDbpJuXtUY/YatNGlJNJeUXSs0OzZq/FqQh0tvVa8JFe9k/+KNSMYtKPcjozX+SFFRNSO6LRpT3L8rpHUUm19jRmlCf/wBhWW5XRCfjzh7Q726a/wAhKuD2l3sh92dkT+PWjDwu/TSk5SmzVi5Q47o0p7oL7+Ruoyf4PZY/x/tiUZaknLtZKf8AxZo/Jf5xX0TJ6a1I0yMNsVFeBRrpL2Xm4yoXsvPxysSpcdKws1Yb40LWcfhke8cvlROF6b+5DiMf0KXu9SfHDN+4507S8mmqgj2eLT1Gyyy+kn7vUb8Mcnq8LsJKKpDSl0XTt7X+0an9cv0aSr2ev2aPGkkezuMVK+5F73+CXMX+j2b+r/ZP4Zb1/s99D7kLlNzNWG+B72XbY7NNPlvuyh6e7zwLjDT/AO41T2j+lkK2Rr7D6f8Auv8AXT2ie2FeWQ/rj+jW/wAV+T2h/DX3EqSRL4Z7hzWzcuxF2rJce0x/Rq86kIGl88r/ANGt/VI0bcI311eNj/Jp86s5kuxoxufPg1ZVB13ZvqK+5pw23fdk37yW3wu5d/DE0OzX5wRof5r8jpxdmlzD/Zrf06n6PZEvdHs/Gpq/bp7PDmcZI9yv+paf2FCMewj2v5tPpP8A7mH4R7Q+dP8AZub4SIx2ovfP8LHumjR0npp8mrpuW1rwOOrLhs937uacewuvtP8AV/sh8sf10lJvWivBrV8Ndx9n+jR+LUcvsuns39f/AOxrrdraSZr6HwceCEIyiuS4xX2F/Nq//FGoltI9l0RqQ/8AyP210jp1rSm301NNSladM91J/NqWKkqRqp7ozXg97fyo0OVqM0oKEaNS46ynVo96n4LHq7e6Y9WK1lKP++mmv5tRj0pe+4XDZ5NKVSnF/c1ZpShXfpfRL+Zy/wDHTUjL3kZpXQr8l+71pN+SWtuVaaZownCNNdJLUWpcIs7x5XdGmtsaHowbuiklSRp7o2q48dLLZyR+iZHHz6Lin4KEVgkUUUUUUil9ihIZRQ4LcpeUUNFHuYN9hRoohpbLKPcwKKK6U+vPX3f8m+yj3Ml2mbWvJyaimpqaR/1D8QFpykm5d2R1Z6a2uJpqbe+SNe92m/yTcl2R/NJfKR02tPYaMZQjTNTT3/s0tHbbfcnpqR/07++Gvfu1+zT3pcI2zb+Ienqbt0SMH/kJV0lotybT7kI7VWKJac1JygNe0T4fCIrakjVTlpySIaD2JdiMdqpHJ+TUg5/srW+6FuNTS944fjps+PcasN8aI6rjxKJulP5e33Iw2qunPTk5OTkoplFMpko2mhe80+KtCetN8KkPR/8AlyR0adt2NXF/o9n05RUrJJ7Zfo0E1pInpbnF32Gh6C8Nofsyru7NJrTW18Ci5v8ABtKEjaijabSjaUeTVqGlJns8a0V+RFFFdGl9kVhqaMZ89maejCLvyUV189aT7oSS7IfqL6Ji9J98WLFYrBZMWK9J4vrXRi9X2j+pmh/Uh4sWK9JiweXnF5L0n0pfZYL0Icyn+z2l7nHSX+yqSQvSYsfOLF6TF9ExYrHzixYrFekxYrHzi8XksVj566sd2nI9mf8AF/seLFivSeLFiu+LyXpPFkcX1lCak5afk0tLbcpfMMXpMXpMXpMX0TFiul3184vFixXf0nkvSeLxYvWhBQVIeLFisfPpMWK74vFix84yxZH0mL0mL0mL0mL6KXRzo9638sRNll9FqPS1WpfKyy+lkpdiyxll9WIv1nixY+fSYsGL13ixYr12LFd8XksfOMsWLHzixYXhZYxY+S+l9L6WWWX0ssssYvopCH8ert8IpLCjV0lONHs0nzB94ldKNP49Vy8LsUUPpRRRRRRRRRRRRRT6cnJz0fTk5OevJyX6Nll9LLLLLLLLLLEWWWWWWWWWNlllljfSyy+iLLLL6WWWX0ssssssssssRfSyyyyyy2WWzks5OenJycnIzk5OTk56cnJTOenOVdKKKKNpRRQiiiutFFFFFFFFFFFFFFDI/RMR7N2m/u8F1XHtj/XXXnt0392aMNmml11VJpbWR7YMWKx84sWK67n73/efnF4sX1S9J5LFYvBDFisXksfOLFj5xYvSYvSYvomf4v8AR7L/AFf76PszdKapEHLT1FF9n1hz7XN/bo+4/wCT2hLxHCTS6N0e9m/lRp6m5P7olrxXgi7SZeCkrJXg2r74e9W/aMWDNyQmmSdRbNL4tRfjN9JS2o3xqyxjkkuSOvpt9+upqKIiTpWL2iNrh9V6T6eerFisfPpMWKx84sWK74vJekxek/TYvSYvopHh/o9l/ra/PRu7R7N/ka3h/Z9JSUVbPZV88/u+k3SbPZo1FyfeWGo/54Lp7S+Ir7kVtikSv30kvJrxUdKkQVQivwSnJa0kvJP3mn8e4TtJmrJtqC8kNNLrN0jUk9qS7s9wv9mjqfA93hn/AFHPy8dNnHHRYastum2aemqTZWyca8ntTrTNCO3TX5wnKTnsj/s0tOUG+eDS+LV1H47Gs6iLsv0WpSf2RHTeq3Lwa/wRjFGpLatM/sn/APFGppxlF8Hs0nLS58EntTZpR+HfLuxDmtSbv5UbXNrikujFj59J5LHzi8WLFY+cWLFYvFix89L6sXpP02L0mL6JlmnL3U5p9mPVj4dkeDRVamoOKYiUYyXIqSLyl/3Uf109p76X76aXxa05Gqr1IIQnftb/AET/AJHs/wDPSHOtN9Nyuumr/XP9Hs/xT/SGaUN85/az2lfwi4gv0Rluima09qSXdmnGS7vD2j+li1YbIuyPMt8j2i9T/wCqI8pfrD2flSn92Tm/liezcQf7NVXFnvktFffsan8ejX3IqopD+P2lLwj2r5F+z2f+q/ueD2b+t/8A2Paf61+zwa2p8LjE9nhFaUX98F6jPHR5LHz6T7ZLHzi+wsV1ZeTF6TFiu+L9N+mxfRMSHCL7oWnBdolFCRRRRXSiiijVhL3kJRKJaalVlMjp7LocLafTSjOepNp0RhsRyKNWcmx++cvwcn4NCEo6k+DXbjA0o7YJHtH9dfkfyV+D2d/x/pk4uU4P7Flllj5VHuJRfw8ijqP5x1VVwRjt8l9fc1wptIiowXB7uDd9Fp6e7dRrx3w48Hv5NbUuRaW2mnyakd0aIpRioj7M9ntKmiSUo0z3D/8A7h7uKjRCfuvgkKal26Kalf4F6T6M7dH0sssYniutl4WWPrfSxFlll9LLRuRuRYmWWWWJm43F9LNxuLNxYmWWWX0vrbOTktnJyc9OS2cnJz05OTnrycnJz6FdKfVfRMWKx84vF9PZPln+8FjXSl0jBRseLF1ooRXSijyUUbUUNG02m0ooocIvuhRS7G0Wmorgo2m0ooooooooooo2jRRtNptKEjabSiiiiiiiiiiiiiiiiihFFFFdKKNptQ+lFFFCRRRXoL0mL0mL0n6bI/RSFgxY+cXi+nsyqEl/8sFj5xeSxXpPFiwYvXeSxWPnF5LHzixYrHzixY+cWL0mLHzi/TYvomLBix84vFixWPnF4sWKx84vGQsV67xYsVj5xeSx84vJY+cWLHzixY+cXksWL0mL6Jl4MWPnF4sWKx84vFi9Lzi8WLFeu8WLFelLJY+cXksfOLFj5xYvSfpsXpMX0TKKK6r6GyyyxMsssvpZZZY2WWWWNiLLLLF0vpZ59JixXrvFixXpPJek8lj5xYsrLLLGyyyyy+llllotFllllnkssssvpZZZZZZfVi+ieLFjas3o3rq8WLFZV0oooooooaKKKKKEiiiiiiiiiulFM5ORnJycnJz05OTk56cnJyc9OenJz156vpycnJycnJycnJyc9eR2cnJT6o5KOetFFdGUUUUUUUUUUUUbSihoSKKKKKKKKKGiiiikV0orpXSiiiutYP02L6J4sWE20iCs2o2ISro8WLFY+fSYsV6TxYsGLFY7lffF4sWKxcoqVPF4sXpPJY+cZCxXfF/TP02L6J4sWDNvPAn9+s9TaLUvwN0rN+oyLtdJzjHuQmn03olq+In83dmnLcWl0ui8FKUux/IN0e8fhYN8C67khSjLsLHzjqPlIWmn5Fx1YsGLFYc60n/xRsiu2L6PsS5hL9Gi700PPdzWGpDcaMrj+sHixYrF5LHzjIWKxeS9NfQMX0T74vJDVkX46L4tZjRrPhIUaVG6tbZ46acd0pWShStEHuJr4GezK7fTTe2UyMHO2zRd7vwS+LUr7Y7a7CdmrzKMRLq1Z7n8kVXXUV6sV9x6W3mJpu0PhWNTa32QdxTIy3Tl0Uk7/A5ULpI212FLg3SfZEbrk1H2RCFCaba+3Scne2Pc03L4ovwSlshY4zUdzfSTbbRpeRNyl+Oup8kv0aCrSj0cPitmz7dWOSQnZqqoSIS2aMTfVbiH8lvwKexuLFO+qOGPVV9hNPp5NNbdaccHiyOK74vJY+cZZL6ZfQMX0Xnryc9OcX2IMm2uS7Ru2ajb8j1Ifcck9SJuFLdrqX5LIcas0P5WaHECXZns/aX76eWc7aLWnHjuaSpW+/WyLu+kfnZN1qp/gXV9jdL7C66nGtpdNPjUlE1FcGbpOot0i93wx7DWymj3kSOnLvfcjD79X36P/wD6V07ysRpfPqmtNxSruzThtX5F88yXxa2nE1f62R+VEY3fPkl8MHRpqo4Q+GTj48dYupbemj8v+yOpGT48Eo7qNNrlfY1/6yvjgvwa8X8zNNVCJo/FqTkzV7x/fVCbjpSNOK2I+Sa/PTyP/uF+sHixYrv6ax84vNYPJems79Fi+i84sWKHHyiUuDT+RDgn3PcwslD7IenqSFpRUaoUaHBbtxRtRRtXhFDgmjZqdiOivJRRRQ4fY2T+4oUShZ7n/wCTFCiihrryOFtP7HJUt6aOTYLjoo8nJyc9JOUZ2b3Lsjb8Jc1/ifEXtfJ7xy4ihXB9i1Jp/Ys7WJfybhi4VHY79yzcWbiXPTmIrc9zLHL3cpccGgmvj+49Rv5YmnHbf3ZqfEl+yXI4ylJX2RfR8tFkVSLHHdBoXZE+aLL5P/U3FllllllljYmWWWX0s3Fl9LLLZb62y2Wzk5OS5HJycnJycnJycnJ8RycjsplM5KZyclM5OetYV1oorrRRXWiiiui+i84sWK6OKfgSrNixXpPF5L0n3xlQikxJLoxYorKumt8TWmikqXprCsnixek++LFj5xeSxeSxeSxeSxYvovOLFivSYsVj59J5L13ixYrG+etS8EIbbfkff01j56Lq++LFivSYsVjLJemvTWLyWLF9F5xYsVkneDyXrsWK9Lzi8X6fnF4sWKx8+k+2SxffpfViwsWLyXpr019AxfU2WX0RZZZZJmn2LL9Bel5xeSxWPnF4sX0djxYsV0XoPJY+cWLrfRYvJemsX3yXprFi+i84vCuiK6V0mQXwooooZRRRXSiiisOTk56cnJyc9Oellsssc6LLLJT2m4s3Flm43G5G4bLNyLLGxMvGy8rzeSwsssvGy+jxsRZZZfTgtFosfTcWWixFllo3DLLNxuRYmWWbjcWWWWbiyyzcWWWWbiyy+lllm4ssvrfSyy+jF9F5xeTlWOqabW1Yauoo0Q1YywYvXeSNbwiulGr8ouy6UV0gvjmUUN26ihRoo93XYg7KGiiiiiulFFFFDpFFFdKKKKGiiiiiiiiiihIoooo8lFFFDRRRqcSgvuUUIoo2o2oo2lG1FIdFG1FFFCRSKRSKH3K6UV0XWismL0mL01ixfRecXlw+mpqO6Qp6kX8XSZCPkSfWNz1OSWkvHchK1+er1I/cjj9zdqMi2+kp1wu4m/OGpPavye8kvmESnRCe7qh/2xw1PlZH5UWPUihNNHkj/ZLo+ItmkuP2PrpfPPopqV14Fistb5P94ecXksV6GrPal0l176/66rHzg+xs/IsVj5xk0iOPnFix84sXprF9/o/OLytrUX7G6TZoK1vfcmriaT+Hpp8WvzhH/uH0XGtLrLSizTjtxQ15ExujSV/EecNX+zTNatjIP+OxRk1ZGO2JGVkp/ZEbr8nx7xKXnrLszT+RGtxtIaa28kOJyiam7daIyqdsTsl8rNP5R9Juos041HpCGyIsGLrqSaXHdmzUS+YhLcrNb+t9J6m39kNRt01ySnGL5Ymn0bS7vo+kZqXYfHRi6y1IxddF6Gp8WrXSR4IzTIte8kzcTk5fCiL2KKfSU+aXchK+nk7ckd0nfSTpG+30vBE51wu5GcrqXRNM84W9zNu7libg16TFj5xYvTWL+j8llllj631fzr9mr/XL9Gh/WukOGzydpF9XBb93Sv5L6/y/cj2x+5GQ3/NGjU+Rmm1tRfJOTSNOVrpqf3aZqfIxL+EjOO1Cdk18XBCqIj41UJ9X5NL5Ee0f4dHxrdIxW99flZ36NW11bFgxdVzqv8LppS+KUfyav9UhdkR+L2mX4Nd7ZRaI6XmXLIKtaaXajsiMfevc+3gnLdrQgvBI1PEfuKKXY/s3N9jR+Q1ZVSRub4iQ3x1Kf2HwrNOHG592Tlt2/knL/FdyqSwm257YkoKK/JdQtmgruf56S6PTiaS5kSe2LZpr4bNTmUB8I9nXDl9yXGomc6j/AAaN3JGpy1E7I0eYt/kl8U6+xrKtr/IyUUzSbtwfjrdKyNd2d6Y25MXw6tYIlLuf4I1V8BB3CP6w84sWPnFi9NfV0UPpRRXTZbNooJdijYUbbKKeXI+nJz056ShZCG12NmwSomrohwi+j5QuODbD7dFSJx+xHsicdwqSLL6KkPa+5Y18SfRKuvGX/qvJdYfNqfvpo/2TZqf1yIfLH9Gl/frE/i9ogvtyeTS5nqSNd/Cl92bv8IGhHmbH4H/cv0arqDO9QXbySe1GrxC/LNOG2IudWX6NX5GeBr3j/BpwUf3jB8t/cUf8pGpJyX4NJVpx6S6p02l9zUXEV+R0omn8U7NV1Bmmq04mt88URW2JoruL+yROW74UQ+GJpr/L7mr/AI/sa4FJUR+LXb/HRjVwaFSPmEqH/aecJr+SvyM1fkNL5I9Iam6TXTzhfqMXW/QX1HnF5LHzi8WLFY+fRoYutFCRRRXSiiijaUUUUUJfyTKKKKwoacZWOc5cRRprbcSmae6q+wtOpSl9z3fx7vx0jDaamm5pENPYjbJMdkoyfPknHVkhTceEuSMZ3ciUbqzkSZy+D3U/MuBcIVnJyUzkprsbNSXzMcfhZCXFHI7OTk28jTY9OXlm1qqJwlNCToem/ebrJJ0JEtOXhkNPb5Jac778FUNFMelZGG05ORGw2lM2lFM2s2seinLdZQ4bl3FClRTPdfFaZtKNptNptKKNpRRXSjabTaUUUUbSulFFFFdNpRRR5+jXfF4sWPnF4sWKx84vFi9Lzi8YqrxYsfOPnF4sWMcfPXar6SxYsV3xeSx84sXpP02LHzixY+fo1i8WLHzi8WLFY+cXi+xHFY+fSeLFisfOLxYsVj5xeL7CxXfF4sWPnFixWLyWL9N5efo0X6LF6TxYvXeLF6XnHzi8lisfOLxeS6rt084vvixYrF98WLHzjLJYv036by8/RoooooZRRWPJyTclHgi21fW+k9VI3ar7RE2WLUslOkKRZuNxYiyyyyyyyyxvpfWTLSReEcfOL74vFixWPnF98WLFYrvi++LFisX3xfYXbHzjLJYvJYv03l5+jWLxYsJfK/0ez/JhqPbGyGnVN9+snUWzSjtgS+N19hdHSVnvH/x4FTXSiiijyP8AsiiiiiiijabRxNRcFFFFdKZTOSbcVZycnJyfETbRB7uScpRE21ZycnJycnI7OTk5LfW30svpZfS+l9LLGWSnSuiOomWWJllsTZZ5LLLLLLLLLGJllm4sss3FlllllljYmWbjcX0ssssZZbLZb+xbLLZbLZbwtls56Wy2cnPXktnJb68lvHk5OTz9GsWOSRum+yIuV89GRwlqNX8J7O3TX5w1e+n+x9+uorjR4IqkLpL4514RxVEFUawboWrFuj/I/wDWj+sHizU+Xo9SEe7E1JcYvg1vk/2LFi/j1PwzVjcGaNbK6PFixWbaSt5uSVfkfXU0/Me5F7lfRek++LFisX3xYujlFeRSi+z6LF5Lpv8Aj29XksX9D5+iYsWPS5uzdKPdHBZZdIT6WM9n+WX7w1f8X+R4sQ+Eafa/v1U4336NpCXvZW/lNaKSTX3GnuTX2FL+bkvonY8WanyEp1BV3ZDRiu/LNLiU103SbqJpzlJyT8Ep7Wik0asKr7EbLI6kW+Or7mpHciMr4FDbK+j6TbjrQfh8dZuotk9VQivuzfrLmUeMFjrNqPHdkVUYo1udsPu8lcNR/aRqq0v2SwXw61ffosVi/mxeSx84sROVcLuR013fc1YqPxITuKFi8l0XOtLq8li8lixY+fomLF9+jVmn5Ix3Sk39yXwTS+5qfIR7EuEzS+RdNH/L94TVpkXaxYjV+RiXCXTXlulGC/2e6jXY024z2HtPeBFbYpGt/gvyeSv5/wDQ1t5FHfcps0o1f2NSW2ZF2rWDH8ppfFqfrppd5P8AJqSpV9yCUIns/wDm/wAjSkjSfFfY1vlX7Eaj7R+5GKiuDevebOnnFj1YI1tTdHhdiGturjpqK4S/R7Ot8rf+KJK4tfg0Hen+uvZNns3yW/Lw23qJ/bpSu+utctWEF1kr6PDU/wC40hixWL74vJY+cWI76r/HRq+ixeE5qJGe4RWqvPBDcm2hdIubbvJYv03l5+iYiiusk2bn5HqEE0v2KexEYyct7RPmJGfBqz3fAvIuEWQVORZuLLJfC7Fqo3FljYifMWe+jXJvlqcRVfklppR4I6ka5ZD49Vz8JGpDdKH46Sp6sf0eR/3J/gmrRpxuPSbTkzSVQWDPBpQ27r8j7M0k1Dk1IvihacpfMQ4tURkuTS5c3+TV7R/ZEhzOUhujT/tk+j74spfYlFOLR7P/AF19n0l8sv0ex/JL99NBfx/76PsT05rTl8Rpx1fdxoipf5P0H82MsK3e0N/YfYWKx84sWKx84sRp931lqVqKJEWp8e07ckZ73+Oilun+EXROUn2ZFtQ5Ixvlj+HV/wBCH2ZpfL11NVRklkvTWLFj5+iYsWUbI9NkbuhiJaV9nRDTjDGurKRRRSGhIo93H7FIo9xptiil2KKHp27KNnNm0cNSL+E/nfAtBeSimc484uFkVSokrQj4ovsVObtnxbrSL6WWWWWWWKl4LLIRjBUiyPFllneLRaLLLLLLLNyEqm3ZZaLLGWWNvwQW39sfYRZZZYiyyyzyWWWWhl9OC+kWWWWWeS0WWWPo5VKzfD7j1IoSvU3MQudazWf8UjQrYTlthJmh8pq041ZHTSJvc9vg4J1uQqLFwWOiWnFtFlllliZZaLL6WWWX1vpZfSyy+li7/RMWPnFixWL74vJY+cXi8WL0vOLxfWiuiKKKK6UUUUeSikUUPpRRRQkUUUUIoooo8lFFFIZRRSKKEulFFLpSKRRXSike7h9j3cP+JKCfg2P7kYKJKCkqI6aihwi1ybUh6aaPdT/5EYJIpDihJFFFIoZRRRRSEikUiiiiijaikUUUUUiulFFdKF3+iZHHzixYrF4sWKx84vF4sXpecXixYr0vOLxYsVj5xeSx89W0lbI6kZDFjN1t/eLyWLyXprF5Lv8ARMjj5xkLFY+cXiyOPnF4yxYvXeMhYr0vOLxYsVj5xeSx89V8cr8I1dPdyu6PC6tpK2LVj+TUntrg1ZpqNfcvB5LHzksXksXku/0TF0svrZZZYyyyyyxFljkrSLPJeDFh4I4+cXi8WLFY+cX4xeLFisfOLxfYXbFY+cXi+wsfPTUlUGRW2KXTUntSHpOX+RpuUZuEiXxzUfC7mrG4P8EXu01ZqRil2FEulyXqe8j/APx0bSY9Rr/EjNS7YLHzixemsXku/wBEyOPnF9K60LpRNfzQK6UUUUNFEmo92Rd+eqs5KZzjyc4X0fSy2WWWWWWWIssvp5LLLJakY9zfF+Syyy0PFiLLL6J9L6+cXksY4+cXku2Pnpr/ACL9l2OSXdmrep44QtSNcs5nqb64o9lXE2/uPszS/qRr/Iv2LlInfvKIx5t9NLmUm+lbdeNeevgWPnFi9NYvJd/omRx846sqFq13WK6bldE/7YdPOL6L+TW58DWzVjXnoxY+fSeD4N0n2IX5zrr5KKKHCEu6JaEfBB09siiikNFFFFIaEijabUUJFFFFFHF1ZRRQ0UUbSiijabfybShIooooo2lFFDRTKZRRXSmUyiutcHuftJi0Ir8lHu03fRRoaYobV3Nu4pomnHUTN6S7lT1PxEcZQnaPevwiEJXul3Kw5OelPpXWulFMopldKOelFCRz0orrXTk5F9EyPpS51P0NKSG1BC973s31wyTpWcz4RFe71EvuSipE1JTiPWrwLWt9jsPW+yZGSkr6SER49on+h/HrR/BqN8JG1ryJnvY3XSclFWfyv4rIfnGQnaweHz6n4R2FhYvQnJQVvozVVxv7EHcU+rxfYWKy1f7tHrr/APpr/wCRLvjIWKx84vFixXd4vJdGk1ye60/t084sXpr01i8l9EyPpf8AqMQ1yaOo5KX7NRJxZ30P9Hs3yX+SXOpHprf4v7HDRpR/llZPk0Odz/Jod9RfnpLo1/8Ak/sSS7EpVrdGa1KH/wDAuyJLfqV4RrP4KRpfIhylLVcYvsfyR78o95qOdrsKakSEPsyDuKZY8NLvP9jF1lJqQtJ1dkJVLa/Q1fjnFfno+5qf1y/Rpf1x6ywnLbGzurOybE7SeC6Jvr5NT/udLrqc62kh98XksV3xeL7CxXfF4sjj5xYsfOLFj5yWLyX0TEWWWX0ssssnxLcb4fceo58Q/wDJH+L8jk9ThLgaWxr8Hs/9aEv5G+j56Ti91o93qS+aRctP4UjSg4rnu+j6asLcZLuuk4v366ONoWlLdcn0cZ7m15NlQk2aXyo0dNxlNvyaz+A3JRUYmmq1CaNL5F00vkNPlz/ZLsbp/wChO0n0+Sb+zGLrL++K6ai43fY8YeekpbntiRX8q/HXXfwV9yKqKXSXYfgXVq1RpfK4/wDE/wAX+jQ/qRq3KcdNf7JuUNTSjfnpPnWjplbeUJ2rNSWyNkdNz+Kb/wBGm/5Jw8I1ZKOvB/gT1NTtwi5Q1Yx3XZ/7j/8AUk65OZLfKVfY0pfxJyIzjLs+jxYvSfdYvsLHzi8WLHz0vq8vOLFj5yWLyX0TF1rrRRRQ0e5gKEV2RsRtRRGJRRRXSmUUznpyc9eetstmq/45Gn8qLJco92iMVEkafwxosc3C1Rp8RRJj1LVJMVJJFodM5iLVibkyyX98H0n8rIfKizTnuvBUjT/yfTyfNq/iODxmtupu+65NWaUK8s047YRQpKGpqOX+i3PWhJrjx0hpv/qJyHwmaCrTRqwcq/BvnLhRo047NSX5PaNOUpwaQ9SXyxhyaelT3S+YcbaZqx3Kjt81shpOXM+32NWKS3LihcpMlixYrF98X2FisXixY+cWL0mLHzksXkvopEcfOMslj5xeL7C6xZr/AOMfuyOPnrx0fSkUUhpCS+xSKKRQ42hR4J8QZpQqBRRRRtKGiMaKKKH+yiivyUNHuY3uKY4WShYk15EV056VzZycnJycnPRwspodnIve3yzk5HZycnJycis+I5OTnpycls+I5oVly+xci2WzktlstlsstlstlssTLLLLfW2WWWWX0svpZZZZZZZuLL6WWWX0sssssssssssX0UiOPnF4sWPnGWL7C6uD7pkdOW/dJ5ecXi+wsV0atUL05LUn+EbdqSxkLFel5xePgjivPpMWKxffF9iPbHzixekxekxenH6KRHFYvJY+cXi+wsVj5xeLyXpecXi+wsVivOPnF4vsLGOPnF9hYrF98X2Fj5xkL0mLHzixenH6KQiy/QeS9J4sWK9J4sXr+cXksGLFY+cXixYxx84vJYvvi+wsfOMhek8vOLFj5xZH6KQkUTko1ZXSiiiisOenIjnpyc9OS2Wy31ssvpZuNxZZZZuLL6WWWWPpZfRi9JY+cX6axWPnF4vsLGOPnGXbJYvvi+wsfOMsvOLyXfFix84sX0UhdNX3kv8AGkacJyirkKCQsXi+wvSffFi6Wt1dUUUUUM+J9kab3JlFdKKNpQ0JG02lFFG0plFdeTkpktTaxPW+x8Ryc9OTk5OTk5OTk56c9OS315LLZb6WWWWMsss3DYmbiyyxMs3Fll8m43Fl9LN8TcjcixM3I3Fm5H+RaLLLQ2WWi0X1tFotFjLLRZaL6WX1ed9LLGLHziyP0UhdNV/xyNKUVpx5NyfYRfR6k2/hRCe79knRCe7x0iiTpG1y5ZFVivSfYRfI/wC6P66rHUt6u0m1GNGnHbHq8WLFYrCUnLiJGCWLxeSHJJpffC6t4+cXi+wsV2FJPDziyiiiuiKKRXTjcUUUUhopFIooork2m1FIoaKKKKRRRRRRQ0bUUUUUUUUbTaUUbTaUbSiijaUUR+ikLprwdXfBDSgkuPHTTd3+y/5EvwastsbNNVpoX98/0a/yEFUUjUltjYuyGhtx75LBlzm7RDd/lhJpLkTRKNlSWoi35JzUYORB3FP74y41myMbluZOVG5p/c3T8oUk8WLrNtI8cixXXVfCivIo7VR5yetzUVZDUvh8PrIWDESinX46snztX3li9RKdVi8ZdhdW6TFyiJqrbUhduvnF5LHzixYrvi8li/TYsfOS+ikLpqcwZpu4RJdn+jR+Q03u1JSPaP6maX9cf0L+6f6PaPlX7I9ka/8AWdoIR7R/h0cpzdRNOTva+qw1vkYlSXTiVqx3Dk8WX72X4Rt2SVdn0/8AWX66a8PlX3IdkS1LlsiPfDm7R46Tr366a3zxRFVLprRqpIV6hxCrY6S5PeR+5qaiS47m/Uj83Y95AjNSJd4mp8rIfKhuhyfZLkU3dSVdF1a/nh+unnH2iTVJeSEVGNGrHi/KIu4p9HixCnc5x+3S5yc5p8I4np/sWnWrHnHS8t+eu6K7vp7xSnWLF0tI1Jrb3PAjW/rkQ+SPXzi8o4+cWLFd8ZCxWLFiu+LFj5xYvopHJTORKiSbRt1q2rsQhsjQ1aojHaqNr32SVoUtSHG2xw1J8vgSe2jfOPG0UJP4pE5cEfhikf8AqJllllllmt8opxa7ktaK7cmk9s235NWa20vJDiKRpfNqfsl46f8AqRZZq/4sepGMe5BbGm/JqyW3au7I8RS6a/FSE7VnfXJrs0e8NWW9UkQjSSNb/H9ntD4gvuKEUhR7s+LU48ChFLsanwyhRqS2xs7x/wBGi7h+iT3aij9u5H55GvXu2RvZH9D3VwLt01eHGX26ecfafli/sxc0yfyS/Rp/JH9dJdYyUo30fZi7Gn/Zqsfyv9GnDbo0zT/riV/Inhqf1y/RDpCTlqSfhGsvlXls7Ggu8vuPiLZpfFHc/J2Jzbuuwn/Gmxub5XZC5SY4qXclBXHjojV5Sj9yuvnF5LHzixYrGWSxeSxYsfOLI/RSFgxY+cWUu/SuqwoejBsjpacfBKEZeBaMEUbUUUUUOKaI6MF4HBNC0YI2lEoKSoUaVG1G02Eom50aibolo7qt9in9x6L+4oUqRva7kYznLcycJSpeDkenNfIQg4/snCT5Xc93qSfxHJdHJbHyi56fi0e+gLUvsWznpqLdGiFqCXRG4bLLNGXEv2WWWdiyxUkI3Flj5TFNx42nxz78ITendIjzLdIn8kqIKoxRryrSkadRhFGq/hEr7vglNT+FdiVKDItbUWf59ItCpybLRaLPOLLLwXW+nnF5LF5LF5LFi9Ji+ikLBix/yxeS9J4sXpPuijUfbqxFL7dWL0tkN3Yr0X0lwrNBfA3930YsqK6+cKGuRwjJUykOKZ7hfcqKXY2poWmkUiikJI2o2ooorkoo2lDKKKKKKKKNpRRRtNv5Nv5KEiimU/uUzkp/cplMqX3OSmUzkpnJycnJycjs5OTnpz05OTk56cnJz056cnJyc9F9ExYMWPnF4sWPnF4sXpal8NHvI1yL4p31ZeDFisfOPnFiGk+suwsVj5x84yFisf8AJ4yxYsf8sXksX6b9Ni9JkfomLBix84vFkcfOLFivT2opLt1fSy+jFivSffF+MX2ELBYrvj5xlixY+cZCwYsfOLyWLyWLyWLFj5yj9Ezktlssssss3FllllljNxZZZYiyyy+llll5MWKxvnFixWKx84+cXjLtksV5x84yxYsV3xeL7C7Y+cXksXksXksXhfoL6J98WL0K6PJdKRRXSijaOl0oooooS6UUc9KZycnPTk5OTk5OTk5LZyWyyy+lllll9LNxZZ5LNxZuQzcWbjchssssssRYmi+m/Vb+GJt1/wDmj+WPN2RkpK10v4sXi+wu2PnF98X2I9sfOMsovF98li8lixenH6J98WIuj332VkdS+KrosXi+xHFYai+CRF/DHFixWPnF4sWK9CunkorpQyiikUhoSKKNpQjabEUUJFG0rZq14ZRXJRRRQzaUUUUUUza/uUymKymVL7nJz05OT4j4jk+I+I+M+I5OTk5PiPiOTk5Lf2L6c9OSy+m78G4ssssssssZZZZuLLLLLLLLNxZZu6WWX1j9F5xYjUi3RCUe3RkcX3PAo7+WQ4bXRiLro5066PUUWWqsU4t1Y2S1lTXJpv4Vi8llLW26jTFK+smlixYrFY+cXixYMWK6+0L4Ny8EXuimf5YvFixXnF98WLFd8XksXksX6NFD6UVjRRQyP0XnFi6ONkG+xqcRbNPlYs1flEqSRQpxbaT7GrLakLsK3ry/HTT+LV1GS4Via+JvuxWtOMfLJR2uH76SXws01wn1atUc6b/Baa6amooUfHq83SLnp93a6LJK/an+jyNb9T8Ij8M5LwV7yVvsJV2PeR+5aN2pLldhTuNi1YljnKUqiJ8fF0XpecX3xeL7CxXWrTR7O/ha+zPOLxfYWKxfdYsWK74vJYvvkvTXfF5ecWL6LyWWWWWWbiyL+ORqfJI0vlLLLLPJq/4/vpqam3jyaa2T58mu7qKEaf8Adq9PZu0392S+VicUu3JpwfzPuanzaf76P5WQVRWGtrQrauWaMJRhz09q+SP7Iqoo1I3Bmm7ghYoXHtX7QzT306+5NKMH92JUomjf8hoVKU7NSNLgUtmmQjuNsdrFNrSIR2xPaP8AD99H8c9vgXGCx84+cXksVhofNq//AGPOL74vsLFY+cWLFYvJY+fTeS+gZH6LziyhxTHuiacKXPcaRCCiUUUV0lDcj3er2sjoxX7J6cZEdGMCj3aUnL7lEdNRXBQoIoem3NP7FFdOTknByVWQ0lAdnJq6b1I0U0kcmmpJOzk5OS39jc/sJs82WfGuyJpuI5+TRv4jR41ZEuVQ98uKo4iqJ6nG1ElUYD1YJD3S+Jm9VZo+X9yzciyxFllossssvo8LH6aw0v7dVHnF4vtksfOL7CxWLyWL75L6B+ovovOLFivSYsVj5xYsV6UtNGj8pSu66zjaFCKfYcVJci0YFIelEpFFFFFFIpFFIo2m1G0oaKNpRQ0JFFG1lFG0plFPpRTOTSv3+qc2cnJyfEOzk5OTnpycnJyciLZuLLPJZZZY2WbjcbjcJllm43IbLLLLLEWWi0X0tdLwsv1n6bF9F5xYsVj5xeSx84vJelrOoogqisHksV6XnF4sWKw01/8Akap5x1JSnPh8DUtPm7QuVfV9so4+cWLFdKKHQzjrXSiiiiulFFFFFFFFFdKKKKKKKKKKGUV6S+iXfF5LHzi8lj5xeS9GV1aG/eTji8lisV3x/wAsXi+wsVgv+6f5R5eEvll+jtGH7NWcXGkRVRS6yyXRSTHKK7sUk+w796vtWLF01J7I2eOkcNRXBkJborJY+cli+q6rFi9Ji+iXfpfV5LHzi8lj5xeSxWPnF5LFYrvj5xeLyWGrx7Tps/yeO1+8r8nueGact0CUtqJ3V38RN1Dk09aT1NrWKNaVQIRqK/Q4tO2rI0+x/kN0rL6q13F01OdORD5I/olKMe5py3dW66aPzS/eS6X185LF5LF+mxfRIooorpRRRRQiiiiunJTKZyM5OTk5OenJycnPS2Wyyyyy2WX1ssssRZZZfSyyyx9LL6PrfVYrHzi8WLFYe099OX5POOr8PtEH9yXY0fl/2SuepS8EdJLnuzX7JfdiilXHTRlJvUt+SUd3BoN7ZL7ET5vaa6dzT+eVdj/3H+jW+RkflRqukl9yfEDvFDe2NkYufLJpRhIvZpIjp38UjVbUePuLx0XxzvwhulZorz98lj5LxWLyWLy85L6JYvJY+cXkvSeSxWPnrXRlFFFFFG1FFG0ooo2lFG0ooo5spnJyclM5OTno7OTk5OTkVnJbOTXTekzSlcEyyyyyaU3H8D7MjxFCuEpOu4pOXg1v8X9mWOSirNJ1O/uS1YxRoKotvyIUYrUcy0VLlWRUYrg/zsnTi0Q1FGNS8EPjnuZrv4GR/ria/aKFVIbUpJEqerFfbpqO6/DFJMfY0XxRqS3PYiqpY2LHzixYvJYvLzkvoli+jFvkfESdIi+raXJ77/48EJW3izcrq8GL0nixYrHzi8WLGPpecX3xePgWDI3pX/xP+o0j/qIeIsXKvp5xmrVFake3J7qUuZ/+CUItdhaMbvoiijgopWUh6cH4NqHBNcm1JJDgme5l/wAuBQjEnp+UbJy79iMEkbEih6MWR04xKKKKKKEiiiiulPryc9eTnrycnJzjyW+tlll9LLLL6L6KOL79eUJkkRj11/lX7NNfxol8OounLFKpU+jFp/yb28GLHzi8XksfOLxeUcVj/li++LxYsdd/B+2R0oRS4KX26/54vFkcfOMsli++LFj5yWLyWLy85L6FixffCXB4G6fXUW6LRpWoKxxuS6S3J2hQlKe59GSjuRG656sXpPFixWPnF4vsLBixjj5xffGWLFjq/wBkF+el9fOMhYrHzi8o4+cWL016axeXnFkfoWI5OenPTk5L1f8AijbO7fRps5OTk5OTktm5lssss3Msss3G43G4sssssbLLNxY2JlllliLL6WecXixYrFY+cfOLxfYWMufaI9V084y8ZRx84vKOL74sWPnJemsX6i+hYsfOLFisXjuXK8i68HB5K60MopFLqkUUUUJHBtRRtPJtNptKKKKKKGUUyimUxWclM5PiFZyfEfEcnJcjktnPSyyyxss3G43Flm43Flj/AO4X6NyLRZZxZZZaLJeOllroyJeHnrZY8o4vvixY+cWL01i/TZH6FkcfOLFiu5LUp0kRlfjq8Zf3P9EekpKKtijPW5lxEjFRVI84vFi6y+Vmm24IRKCkfFD8oi0+nn0mLFYxx84vvi8WLrRRNfzQZRSKKXTajajaihoo2m02lFFG02m08lG02m0ooplMplM5PiOT4j4jmzk+IuX2OTkVnJZZZZZZfSxFllljZuLLLLEyyy+j6X6LF9CyOPnGXYWKJRsjLwyU4xPe/eLLT7YSk14scm9S68Eej/k1q8RwnqPcoRXJvcfmXVlpK2I3R+/Sc4x7kWmuOuo6gzT/AK0Lq/49RfZ9POLxeL7CxWPnHzi8X2FjrfPp/vHzi8X2Fiu+LyWPnFi9NdaKKKKKK6UUiiiulFFFFdKKNpXRfQsjj5xl2FjfxdNR/FGiKrV+InOKXJoxklf3HzrRXSLuc/x01vmiyPTQ+bU6+SH92oUiT2psj8Uf2ab5aNaXxacPz09lVucmSlti2VP/AI8sX8enXkcZwW7cJ2kzU06V2xQ+HuR7dZ/Hrpfbp5xeLxYsViu+PnF4sWOr82n+8f8ALF4sWK74yFjHH/LF9hdsfOLF6axeXnFi+hYiyyy+lllljYmbjcbjd02/lkYxj+yW2XcWnp3dDZOW2akPVgldmh2cvuWT+KhFomqnuiR1YyLOC9uq39zcvuast8XGItVR00vJpxaXJLTvUhP7DfDPZVUHf3NXvBfkfYj8epfhdifyM0f60avyMj8q/Quk9R/LE09PYvz084vvi8WLFYrvj5xeMhY6nz6f7x84vF9hY+cXksfOL7Ee2PnFi7emsXl5xZH6FkfSYsV36V1Zti1yj/p9K+xSKGulFI2Q+xRXI4RfdHuNMUYrwbI/bpRtNo9NM90/MuBRSNoo0qNptSRRRtKZRRTKZTOTycnJ8Rz05OTktnJyWy2W/sWWWbjcbizcbjcbi+TcbkbkWNllostD7CLwl/dp4rvjLusX2Fiu+Lyjj5xfYj2x84sXprF5ecWL6GRHHzjIWK74vCH9kx9iODdcnvNTmXBB3FPB4yFis26ViepP8I2y/wCWTxYsGLFP4muldfPSikUfHpv4uxHbJcFFFIaKNqNqKKO/tCNpRRtKKOSimMpnJycjOTk5PiLfS2clstllstm78G4sTLLNxZZaNxuRuQ2JotFo4LR5yWLyWLF6a+hZHHzjIWNzlOW19iG+6l/56e8hffpI98/8YkJKSs3VKmafzzJEcPaH/H/sV6jSXbydhST6vvixdb6LHz01PicYHbp5xeMhPFYw/t1MfPXfHfs89GST03a7Ce5X1l2y0+faJYrvi+6xfYWPnF5Rx8lIopFIa4EuDajabUbSiiijaUIooorrycnPXk5OTnryWW+tllllkfoZEcfOMhY6PfU/fSfMlEenCuxoPiX7Pam1GP5ZGKUEvwaHaX7JR3ENyb4slq/C+DQlKUeSdvzSFKUGk/PT2lfx/wCzSVQNdtbI/cra0SlXCFqfFUlQ+DTju+KxCfc1JbUPftvcabuA5xXdl9NTia/QnxZF2huhTT7Pou/Rf3P8Lr5Hq1uF76S3WaU9y6PrOagiE93geUWunvNRu12FJSVj1K/xZoy+KV+esJ7r6f5dJz2/s0It6jk+j7lWqNFtTnDrLsLH2blzeK74vusX2Fiu+L74vsRx84sWPnFixffJYv02L6GQiyyyy+SyyyxlllnBY/gm5eGPX067inPf7yje9ThcIioxVI1ob9o/l/0aKqHTT4lJGsrhI02tqNeSk4xX35NSnKEV09o/qZo/IifPtECf3F9zW5lBebNb5S9ml/o05bo8mpfvYpDh/JFWShwSltSiu57qKi77mjexGn3m/wAmsvhscv4URVQRGXdMVe++Ht0XRcar/PX/ACH8WrtO3BoLmb6SdKxO1a6T+LWiikaklHuS1Nrj+TVnt07NJfDEi9+tP8E3UGzQhXxPuzXlUP2R4ijS7z/fTRq5/vo9Tb4FqJa1nvoEZWS1fERQdOcj2ZfC3089Ic+0aj+wuj6u4/oUkz2iajCvLNCO2GMe7x/yWL7CLwWL75LHzixY+cX2F6axeXnFi+hYiiiiiiiiihoSNptKKKPdw/4myP2NqNo0bRQoo2jR7iD+57mNUR0Yx5KHC+GJG02nu5eJkdGnbZONi0pv5nwRuOo0e6ue6ycJWpIepLwiOnJc+TZqS+ZlPbSIRcV0Wj8V+DklpOXkjDac9OScX3R7z7oUjye7ktbdQ26fBpcQ6aj+Fmj/AFll1rtserCPknv1E5NEb1Jr7I9q/q/2Ql8Ef0aUdrm35NTmDI6kNq+Il/M/wi0l+jQ7N/dlkONSRZwVF65tj9kJcsSiav8AXP8ARoqtNdPJJ7Y2ezx+Fyfl9WLq4RZ7iN33F0XVY+cZdhYrF98X2I9sfJeDFj5xYvTWL9Ni+hfYjj5xkLFYvvjIWKxffo/+4XV5LFddqZR5x9ob2Gkv449JQjLuLQ014GKiUVJUxJJFDXB7qD8G1IpCikUJI2m0np/HuQolFE4XFo04ParNo0PScvmZtKKGJFM568nJcjk+IVls5LZZ5LNxf4LGWWWJliLLLLQy0Wiyxsj1vp/lixY+cWL01ixY+cWL6GRHHzjIWKxffFixWP8Al00vi1Jy6vJYrHzi0nixYMWKxXfHzi8WLFY/5YsXWuiKRRRQ0UbUbTaUJG02lFFCRTKZQ0cnJycnJycnJzhZfSxsssssvpZZZYxP0mL6GRHHzjIWKxffFixjjL4dS/uS1JS4iiENkUurxYsVj5xffF4sWDFisfOMsX2yWPnFixWL7rF9iPbHzixY+clj560V0RRRRQ+lFFFdKKKKKF9DLsRx84yFisX3xYsVj5xeLFivS84vGQsGLFd8fOMvGLFisfOMuwsVi++L7Cx84sWPnFix85RxfpsX0MhIooorpRRTKHg7IO+nJz056cnPTkZyfEfEcnJycnJycnJbLZbQnaGe8o3Fs3Msssss3Flm43Flllll9LLLLGWWX0YsGLFY+cX4xYsVj/kLCQsY+k+wu2PnFix84sWPnJYv02R+hkR7YOSj3PeSb+GJ7ya7xwkLDT7zF11NXZwu5H3z5brJixjj566r/jZHiKGOKZ8cPyiM1LoxYrCjyUV0o8lFFFDKKKKGjaUUUUJFFMplPpTPiPiOTmzk5OTkZyWWWNllllliZZZZaP8AIsssskWWX0sji++L7Ee2PnFix85L019AxfQyI9sJ6e4VxYpJ4SwepFGi/nI9G6VmjG25vp56as5OWyJDdHh9GLGOPnrr/J/sXZYakfdvchO0mMWK9Lzi8WLB9hYrHzi8X2FhQiiiiiuSiiiho2m02m0oSKKKKfXk5OTkVnJyclssss3FjYmWWbiyyyyy+ifprFi9OP0MiOPk1Phpo3fDZW9HxaX5Rdo1f8emk7snFUzRXDI9Nf8ArkaXyLp56aPOpOXTV1NlUPmKZpztuJ2NOb1ZP7IQ5uUtsf8AZ2ifHqeaQm4TSu+mpN3tj3HHUi73EXvie5/+TNTTko25WQi9q5w1f65Gh/UhiwYsVj5xfdYsWD7CxWPnF98X2yjj/ljLJY+cWLHzixZUUUUMpFFFFFFFFMp9OSmcnJycnPTnKyxkfoZEcIuzyaruoo1PkZD5UavyEPkRqd4k3UWzQ+S/yanyM0vkF0mt0WjRdLa+nnpp/DORLUjFdxqc/iog/gRHnXVGr/XP9Hsi/jf7G6TZ7N8spfkn8jIw+EWmk7NSeyDkaUaV+WeTTVTmukvlf6NF/wAaH115N1pruxR2xS+wxYrFY+cX3xlixYrFd8fOMu2UcfOMsWLHzixY+cWLHzixemsXl5yj9DIVnJycm2a7F6z/AMaIwa58kk2hTlH/ABEtTUdvsUShuPc6j7y4EqVDVojFxOTnpLTbEtZeLLl9jklCxaaXjo4PwacNhNNwaNKDhGiVuLNOOyNEvlNOfFG41m9RqKXFlnkjfvZll8Gn8MRm5EtfxDlmlDby+ZFjZZZZZYmWWX0WP+WPnF4sWKxXfF98XlHHzjLKOPnFixXzYsWPnJemsXl5xZH6GRHHzjIWMcf8sZZIcEz3X5IxUe3Rd8WUmJJeOlDF0ooooopFFCKKNpRXJRRRR5KKZTKYzk5OTkdnJbOS2WxFlll9LLLLPJaEyyxlnGCx84yyWPnFix84sWPnJY+cli/TYvoZEcfOMhYrHzjLFi7Yrvi++MsWLBkcfOP+WLxeSxXnCjyUiikUhopFFFFFFG0ooopnPTkfTk5OTkRbLLLL5LLLNw2WWWWizyWi+ljFj5yXprF+myP0MiOPnGQsVj5xlixYrvj5xkLFYMj6XnF4sWDF6XnGWLI4rvi8o4+cqKKRRRRtRtNptGhIoop4cnJyc9LZbL6Nlll9LEbiyyyyyyy82L6GRHHzjIWKx/yxlixYrvj5xlj4FjH0vOL8YsWDFisfOLxYsfOLyjj5xeXnFix84sWPnJFFFFdKKKKNpRRRRXRfQyEyyyyyyyyyxllllllm4s3Fl8m43I3G4bLNyNxY2WWWiyxFllovpZZZY3neCxReHnF98ZYsWKx84yxfYWK74vJY+cZCxXfFix84sWPnJYsWPnJfQyFj5xeSx8lFFFD6UikUNcCRSKRRXSjaUUeSjaUUNG02m0oaEiiimUI5KZyc9OTk5OTz05LfTyWWWbhlm43FjZZaLLXW+tnnF4vsR7Yrvi8WLHzjLsLHzixY+cWL01ixY+cWR+hkRx84vFix84vFi9LzjLF9hYMWKx84+cX1orokUikbUUijabTaUVyUUUUx2cnJycnIr6Wy31ssssvk3Fllli6X184vtl5xkLFd8WL01i8vOLF9DIWPnGQsVj5xeL7CxWPnGWMhYrFYrvj/AJYvF9hYr0n4xYsViyiiihoRRSKNpXJRtKNoymcnJycnJ8RbLZbGxMs3Fll9LLLGIv0li/TYvoZCxWLFgxY+cX3xYsVj5xeMhYMWDFiu+P8Ali8X2FjHHzi8WLFYvFix84yF6TF6ND6UUUV0oorpXXnpzhZZb6WWWWWRx//EACkQAAICAwACAwEBAQEBAQEAAwABETEQICFBUTBhcUCBoZGxwVDR4fH/2gAIAQEAAT8h+dcckkkrWczicz8rf/8AEn/+U/8A+LEhBifwThaPZuCRjhKJJIaBsJfxsZkQyGQyBDIeHcO5GJwJeQlkiZMTkyYsc/5K/wC/EiRIkCGMSIlIESJAgQIjQgRIESJEgQIECBEgQIkSJEgRIkSJAiRIESAlIkCJEgRwQIEcGhEgQIkSJEgQIECBEiRxiQ+LDfg/BIkSYmxkTCfyQPo0UJslkskTgNhPAh0fwBkCBAaECBIgRgSFD/8AixmFiEQiEQQQiEQiEQIRCIRAgQIECAkIESJAgRxiRI54D0CHxDyHxfiBEiQI4QxgRIEM8cYkc8SJEgRIESJHFEiRIESIlIaVRIkCBAgRIECGCEQ9ECBAgQiCEQiEJIhEC+KMx/8Aym4JMhkMhnUdO5JeCWSyWSyRIkTJ4zJk8F8zfdEiQIkCJDCBAjjAgRIECGECBAgSSiUSiUTklEogSSSiUQIECBAlEMIECUQJWEoklEolECBAkgQIESBAgQIESBDCJEgQIESJEiRxQIECBEiQyEUQIkSOZhFD8EiRLCfokSxTJZBBLCROBMyyWTgSyQm9Ql4dOktCC/j6YkaWFsQQiMkIghEBLpCIRAiNKcIECI0EhEjgwhEiIxEiL07C01/C/wCWEp1JrZ0ieeonzzxjOsbRLTvkWrE08csdIWnxFIhmgMIkSOBKEIESI0gQQRASYGgSECBCEQiIRC9EIhHkggggQSIyxau9IHqgtqkDfxrVYWqnxCvW2xVo62K9XYvhHWzyLR3qxaPZ51d6t/CNNHsjCNNNKbXogprg87FWHh0WxGhaPZYVfz7oWpvotarR1qYtTsWjFpTYrzOHYvhqbPItHf8AAFtWLUtHs87VWjE187aaOtjC0qL8YsPDEu7Vo9lhaV/jOtBsgH2QkumnwjE+6t9F8JTar1fxKmpivV3qxaU2W+Mpo/kC0dfGKLSmx6qldJPOrCrRrgry81o62WFpX+O6PJLJD0huIbeYcUNgsSPOkSIRPuIEqcYDWBm4ogQIDIhBKJRwbUDEk5WrakWqkEhOpOVervYtKbFqwnqpiSR18Yzxp4FmVonQsSSiEYcJRJIxKIkCAygZECBDFdESGVhYY5l1keF6wYTJGJCLyJkxpX8d0WzUaFEkGILwYsIKQsGyTFA8icHeEyNQKxYGh6CRNIZiIZDIeJOkMUO0zgtw6PkHHRmISJCYmJkvCR0cnTuHRzh06dHIpOnTp0lJ06dOnZOnRJnSQhDIEMhkiGdOkM7IpxBDGmJiGSJDTEmQz7iSIZBLCHg1glhMn7EiR+8sd11hFLjHBdEMIEIgRhCIQ0hCFiCENCEZZbEIggdkEDw6/j0LDwnCzC6YWRR6Y0MIWLdGLzFySpcnOQ/dLYb0c5d+CIq/XgbyiEHfKwg1hJLhsOBhi4kWU9vnW4swUyj4HnYicutnnV2LSm1XhPCPHSCvywtE+4Q8PV4TpYWHh6EMdnjDx4/j0L5qTLP4Hekhspe5wdYJiSUtin01aE8qPgE9tIyxH0z7OA4RUuJgS9iETRATKZH5g8HHSiZRbGCX0LIS/RoHg8FsRNvXnHSk4QXe0kvg2NicyQlg8qwz2Y3RDQSI86t0Wlcpw3zQxM85THhDE8PYrFmRsWlMkThPKRFhaV2T8CYhnnVoWYHhPcyOxDG8PRJI7EMbw6/jui2aESNdIfTR/wBCfEV/cUPo5DpJHrh0IQhF/wDgcTp9+BFXMruMCEIl+HJyXFi0IXhccT60iVf+npyWJUUligl7/wD4Hasnj9ITone6JPA7xA+DY1DcE6MnnhCgf7xY8jc7g1k3+Rv0wKFhXASEfJkhOvGDf+WRUP8A+AnQsLFA23EVQSZPdXYicJyVG4ThMeUjx5FicMQxYdbVZOHh3rXBPHjCskgYiwtKanQrwxsTHslekjeie4VjJJybg8JJFh58iE/zHQrwkmdtSEyvwPL8Ex0dPv8A/gvKYYvGn5OTMCHBbE+GPJlQ9jZ3x4Dy4p/4Co8wvS9EfeNYnBEkr0IeCOLIkLGFYqs0e4OuJRESiX7xHh/sy0kQ6epDbcQgLXKRhOE8Fi5dYv8A4CWLiTtyb9DdcShNhUIRk3wmtkBHgkE/rNioSsLvqMmzF8Q48QlZyqjTLDQ4GNE+TEZdmw9u+khIV9BRDOjj6iKuEjzpOW8LGmjrB4YjyLHknBE5etssMTzYprTw2JjEzzhiZYWlNTZGIYb4NwlDZCwmTkhskgST3BQGEg8DaEgiSA2imrpJHDJP8mh1hz4JyLlqpze9fYl2f+iSoQISIdGnlv8ApN2Qj0SxgS/hL/8AwHsyn2xMNmST5FKkpDXuJv8AhHTXfbF1xkpdi35/w/8AOI8SEY/qBPeJBIkIRCLofUcBq5IdyY9nYY0gxH7h4u39kNUiGbn0K4emMoex2fyHXZhtquWuCzkKhcJkpm4/kbs0hfU0vJ9LoTFcXVf+CGLXmTDa4MzYrk3lkn4Igw4EF1inROQ8TfVqTkLJ7dFBOCeSSe6gxMSTxfInJYMOYxPFMSJDbJZMYJhnhLJeCSzWQciYcibB9BL4HMEsqT0U4GmRkQyGQ4IZIS6Q8NMSwLDDxgSForhq0BCBAjDIRHBBP49dMEZQyqYuBJZeUZhO0mJJUkiMQh3iCBhoLOp/4xHzWIHlh9HfU/0ShQuIiN9sEhwX4KyMWaKFDkxYaa0ZAjgkIgVf9xp9YO1IrIQv8F3tdibJBeBSVD8HcMUIYk5fn4RGo3Imk/ZCkhESEQhOkEMYITgqIIRAgQkiEQQecIIIQxIggga5oghEEaWzzKhBCIwl0jS2tTtarBjCHg0MQmhWLUsyMWthD2QRhiXNHX8enx1xV8Qr1d6MeF8Jb4TwWldbLlqLVXrYWpVo9i1PWmy2thaqa21di0qV1Wpi0IL7FpHNlhaPBaOxVo/49NvnYq+fedq0prdFvjaaUKaOtnnWwtKanQtVqd/GW1fxB/GKlNVsLDwY3Ralp42WFqtbC0oP/FTNJJJ5JJWW6LEk7D2edi+IV/EsL4R7Fqd7FoxaMV62/gDv4p7HqqV+MLLQ2wWjbkVaOtrFWjrY7FpT+PUQgSyeSByJ8CyQxFTZS6Mk8+RDp0cikkdOkuBNySyRLJZOgkYWgPgSa+nhOECEkSOEcCESGDCSCBJOESSiUShWSSiUSO8StBEolEobGRKzKE1LylEBukkonBkJkkogNjIlEoklDfSSB241ggSEojg2MiJAhg+iBDCIo4a7w8YCPYwvqNiXokMUiYl4SHIm2g6SPsdIHRohkMhkM6QyGQx2sslGIZDIZDE5/HqJf0g84k/pEiYH4IgjANoSxnvK6x+nb28dih5XUVkMQlYVdHQtfIiCCMEkQQQhiWED/wB7IoS0KQeBrbQjHKwtMa4LUEd1Zrp1jPBqBLQsJrqWjuHkaQtAYWSiwmEMjXSAlPoCeCBJo2hIgQwgNdEIEIUMVQIoIEBJDQSkaGjtE8xDmawO9XWpjELLoWjHBDfsdJLPGUka9msI9IMnSn8eoyJ5dJdZuTsl9f8Ao1SzCOo/XWPFwRv7XCKLVMfv/wDxJH/56HY8nlHjScoV/wCSIPV4HdC/BEWxOHWicpj7RImWFljwnDlF4H2EmpJTXvh0vitW6LRoFo6Fqr1toeCrR4LRLr0WTTz6FiX0Cw6Fo9nkRIPTifYy1QicOjz0nQ19Ppbd4a5Q6LFX7OY6SHs1xElKR6sbEk4d4SttEMN8H1cjP3wlD3PHCLHFljfMp6P65ZGywsJjJ5/HocXie1JH0f8AlhHL9srYWxJH+2MaXmCmNMu/6WguGIQjpf8A6fsMHA4JY1OOsa+vX5GatpMVM/8AwiW7Gsdb+hVE8txJF/ZktF2iWlx7D3addIc+8nTt6Fjw6wfKVkwSqkxQ3g7hDLiKZMkiZj9g2gbMkPZLEOJFRGX9EPDKYQ55DGhDSJO0Jv8A8w6EycyOcXV6EJ6aseXYsMZ4CzI6E48k2is4TiPX3P8AsYjyPIkwODaKYiZmxwBVmLahP+jocB1EBtzY8HWv0SeNgaz8ieZGmhg8R6PMkh0mcQw9IsH0h2DSG5hCHgkvdIRk0PSEczKEOfyvI3yGzjLhr0QoPVCJUkf7FyICh05OruxxMpIccewZPSeChK9n5yGDY42LE5E4aRFoikRzGjhFt28iGOQz4mkOji+xnHTwo/A9Mp8SQowVj/QgWBh4P+TQiPsf8DOFuw+E68kEsOktHGLkJwXKYaIiVBukncsIj3bHSUmNobKj0JIXUskXhOEVHv8AhFj9ZEukn1fpnPWYmfwu8mEg+xw95QvZfP8AAhHdUun64HZ3D7ZQ0cvv/iIj6HropFVdtydj5cRFoaG/wfw8oFZ8ISlvoO4hDIXSPs9Y84ciElki+hUyoIS/zAhkF+wUeFDcKX4E0hjYSYA0SQJQriJbwIMIYhoLzMUTQSko63RL5UOmdMWGhk1Kl/A840/oh/bx9kkOQVEGqfP6PFgRyUHpRzGixCFCXNlI1KIdqkR3VInpwdp6tJkWeGFExLETfVYGND+tUv8A05zwgkfJxC69muSKXQ+YCPA/ehYImi8SeUjCEP7EkuTwsfjEIjvtSxIiESPuPK0qRTFTIty/JHrk7GefEuDRTL8CQpUC6YB1ClCY2XHHWg7Z4BH7+TPoINDRjUkL+5jPwL6yFSog5kTJeUTo5eBZ1HsWQj2Ja/w4T+xYVC26TL4YWCnyfmHB2nwSJnIGrYbv4IVJ4UDIfuGkhelB/qwIYJ8mENP2ESz8IfUjF1qwbRCcIsUkDyjLrDEMf8euISqghIbSibOj2Uv/AIhSkkI6PqsOxMkfZrQoSeoiQz9ZD7sST8pJHKNm2SU0k4FOtwdJdsQVb5hA6E4Zwg2kbXmxUoQtSfhyMZEi7AwuuXgI/KQyZqUxMioQT+w9fQRrUFDP/kmRQo4cBWnKIugrs40ZWb/QRIkqQ8JiNS+UJMP0P62GCLefHIjgv/8ARiHlLsvSrY+pELJGeHRpClJTG7PMR0q8dYySL+xGd+uDM7Rh4okx44h+yvc6HIfQIprsaOh1czlzNl8cQRXnrRYb9riIKQf9g4/Sdf23IvB+SJT/AAQu0k9AUEXJ4C9iB5T7mP6ri6HDbl+RaEda/wD+4sK8RIeVAkXJTwft9PASX0N5849OlhCy/wBIMnF6YSF82IjbiZy71IaY+j/Tw/wTr9HjA0Im3f0H23f0WLSIWZgs7SSaonM7jo+oimTRXkEqR6M6uCawj3myekIhQhH6xBNeqf2LOPrcHV5ly8WhVGJQJCUE4fEE4ZFG4Kt5KSF2btCC8gsJO3VIN9HRY79SDj7jyGOcOLHSN0lwMq/39kuOB9ENX6jv5fs5gSO1b2CbJYJ/jK7EtEDsgjFkjGn0IiBCGkMQQIkCAuiZdSYlUiGECdFjbgB2cRcjaNtIlIWKkVO3J1wSHMYyJkMQQyGQGmhJk5eiByUMXiy9CsyEJXnIZLxklKZxEgLij08cEjlI8kjlKKnyNDO5PtsQV4SmMduXLFf6NtzXqRKElHgUjk7Hoqy5JZ0IJehb2bF3LSyVMEsXJSscEiOzB0cnSUkNXTjCCPfAi7rQq0xAoJCUPhSPE1xPJHCmFVdge1NhzJ17Yga3y8CqRzyV0gOUIZAhyRobacEsCUSZTQy/yCNfZHFRBPIiasNR9sRDiYhEaXsLlyus8nnGkmfxBhu3hI0dUyITbhcso+T8rzjEgNcIjScGNAvHCY+WbERAh6RESQ2//wAiBCIIHy79haL9mQIEELCCBrQh/ojhC/Cgkd9kZdkLEEDr+PXW6FetPxD2Wyyw7FpTU9nnWwtSRBD0iEJhGWLEIjHkSwif7oeW/bxVEYgoUIII1QId7aZRQSRCWi1WERl0NzXztVDe5biOYdbHeWX1gz3kJVlJRs8603ERmmzzsX+KpXR0W1ezTR1qZbSB2LVTR1sWqwtS0ey26CIfQp/jCtK/G+RalWlNxGltXRTVXtVaU2WFi9CyGOxLf8KD6uxfEefjHf8AS66MsNwheDL2FpTW62HYtSrR1sV62FrWqmngUzr5z4GbyuSwv5AYtKbLNba0K6p6vDWmx2LSmzzrQpr5+Md/0pNkSWecshdQwuhuSxAI2sZ7jC/sxGAwuMJRKG4MQJRKJQrJRKJw7EycTgq0ptWp2KvgmU1Oha+dba1KaPYr1bFpTZdq/ULR1sWqyFuxl/AJJwb7iVhAbg3CUSiSScEogShoJohhAgNqcIDQgNz+ShBB/wCsVBRiBIgM7X4Y4jkBrpAT8/EMVElGgYWjyF0TJEsDTkgQIEMRimNB0UkiRIlibklkslksdkskTwbFxo3wLUDahbI8HTWOAnpJG1Ke5Pxg2LB+cGFg/OEhnLJkkiQ2miZL0Jz6hu/AvUSJPwSJCkQk0wlzCRIaxKSM5AhyQYZDIY04mRJib2NMnjbWXBCaaCO4xzMdkdAxDRJz+Rodu5ZG7leLz0IdnKehHsK3nnQ56O2k3pTWy2rC0Ypo60JyenDCvMYYWYQgkQiEQhFAiOY5hYghY8igghEDXSDyQQNCIIxzCCEQiER04RmwscIQ6IEEEY8yM8LZgYqV1trOVl2SOtM4eqhT514POJy3BtZ7rX5MfBf/AFFmLw70pIjjPkY3OCT80FgT/d9IyfIhSNjk1o7zlg5fTjyKSU1JAnMupGSIE+Z58J9CrKe8f92qHkMpHJ+XCSPGK0kbohEjLhwJGpxkTQiBSX7lGk+t+CiEOakMoil2MkcnEjFYtLYfMq6nW1MShPLF8Kzz1a0LCmtmvjl9eHRQkWfOWSU2K9ioTJxJPRPE4ponHnCzT+KsGpV7Yb8mP+IY/FdoXnnRhgqQ2HfVj6aQ+0E6MfhpSeyH2hGBBzZESOtwfRAsKoIlezqPsRSWR2OPZHIx0xL0Oj2tuFkUrxDZI203ZI1hDqcyN7GmOy30ap+SiX+2dxfWE8Sq8dEhzYf04Oe1Z3+I/wCwRmnE+DttGfahMidf/wC1kZImlKEp2aBLWkiRun/xwlB6F7FMJIvcRUaO8PNBaOtktBVpc6Kc0G189W9HkoUxOJG68zhpFhYfg/Bk4nCcJ7ihTE58iy8ExMeHhDzTVJ5/paCLWSmcqmMXytj1mvAphnCREElEAkoSwcN9E0SSSh//ABCg79Q8irxCo9F2UPy4WBKmRxJL/CPq1w8jQkuvwISSN3bOx1VQqf01A0t+FkUg8jrQ8ENui/8AqhD1C4idFC4h1Sl0GTarBEwm/SPuRPJ2x1+iKU9nJD16Gqq64Eh8rEXeEiPigbt6K8+xsfG/GLDvbE4vDWSOYqBnmI6yEHfLCHWaefIuaN9wwnODcETl7PLV2SSssE+IWJ2yPQ2MG4Tpd6KDfRDExlM2IbFekjjczIxxOlSeCeJJkV60ETp5GxP+f8Cr2VYiI1jU7Ed1ZVFPgTo+pD7Bf2X0ZK0JM+1AY6BP9eE+HkXQpTVMH1NvKEO+IJQrfB0R19Y7qsK5RLnH6CMHDLGQhF7LjOv/AJMvUL0I7kdxKMESmnPkTs2T4I4He0KJE/MHe00jVNp7EP8AeBDn8irOlBBr+mNXiGbzH3Y9CYL5XR/oqn9HYpiOrBw5iRWSSSiUMpxBiXsJ8GTEQIECAglEr2SiV7OGSiUQwb6SjhAh7HkTSJRAlYMQIkSBPSOYfgY0gQNSOeB5Gkkj6Fxgi/oPkdk/OCZI6Sx+gkJj6iTPqT6ncUEiQ+DpHic4dFIwlhgNMSZDIZDOrEiHghjn+jutq1ILWqf4xOubLatHaw2RKIFUFbkgIhEECcwghECAlkBJEcYESJ9CIiRKQI4sIefBJCQhzVn/AGgWsralbVoRaA9IRxWGJHFrIsUSI0EkYRIYJh2RwjpEiREvwIhJQQIkSAogNCBBHSCEQiENKCuYIPOvGzzqmXcq9iyljzrUp/GppTWxbCrUqf4OdLJlvjVo6KaMtr52KtK6qbFerfdi0daoLPV7KrR18lp8KBhEZoV1Xxzz8QxbC187K/x6aU2rVcVaUE5rb4txaU1v42wtKYLLral3V3tWlNlvieItHWl/AqtHpWGJ0oU/gCWwq1t8Z5/o7iQlEokpjOJwtVhaVK/wBaU1MWq1WFXwzrYr187VpUrrbV3rLgssdfIVWnjY9VSuq2aap92rRivZTCz5/obiyIGuCEEMhkM8nTp06MTZLJZLHImyRLGmxs90ERTEhAgREQMiBDIxKwnBMSiUScHYnzSmp7FervaqzJTb5a+dfAWjrZ5zOaxJI4gclE5bCZJJwiMkiUSiUSeSBAgQwJCJEiQFZAaEMDCBEjjATECORhPJHIsEkjFf4ri0ptgtkE5WLC0plCIQ6whEEEI5JAhECI0EmWIgS7cLSLH7JEyQ0xNghMJEYIMB8CnUpeqdkkdwkOTuHTozg7qS9Neth07gmkIY5gRwQJEexDIckiXskQxGJvZP2NvZMYWouHrcCOOZLkhniQECJDBAjpAgQiA0hIQIECBJThCIRCICohEEHDyQiEQiP5Cwq+H5H2SW2zmNvgjxiwqJ+Ab2LRI7F8I9nkWljx8NTZbTnkprVZCw3GKFPiSs18dabVet1q6+OoU1s1eBaMS7qxaMV7FWqvbX+Kwq0pqSViQuAsVIlk1TAkQnJVEM8LJYT8ZMDDxksmMEoUj+h3GiRrZikhXhuEM3yv0hX0UibEx9GhdSw3ApB01lzpdEpKfjmL2EJJlIkIzUdaU0vF3pROHR+k7g4vIms3QhoZjJpMMfbKCaWqOFheiJe4J5Ows+OtNttbC0dFfi0Ka3eZyVaPYxaMtl4Yqy8K9tf5ygq08FhakXWE+t3/guUMS/liF/QTth1R4PPMHjuBqyK/FCJ3hnD6XLJBcHQeG4PGtWEK8cGzSP940H/opKFWYg5S5i1hYZ63K+lpoh2PI3gaP8Efj4/wBDweRwi8uikJQpwibG3YR2z/8AzodpIO42xkHIkT+2GrH/AMHnF+Qtnl4El2RdS/BDXCVsWvhPg9xR2LDNR2F/a6x2KAoQ3PGLoiZdiEFPIoPXROCCmhG3gPgmWOKFtEQ89yJolCEEz+xbzCufci08dalPjC0dfIFWr9ZOHh3pIxaSPHnEjLYkTwxZeFeUycKfxMQxpkCA5gQ6KTo5JSgdHbHCCdAkpgkGP6TGiUt8E+BED9w+Ff6Z5HtnS/aOTSNNfqxN4eIn10xOWCUT3CV9HiDd4EPqDTRKJQ8M0J1wKZaWMV+IseoiD7FFEl8LrE+AQ1TDl+hXwNpZC5actyjwNMqeMJFxYtHgXvbELcLm9iAqYUusSUnbfoYy8CP1hErMcO8sw7ITUH+FlDXH+EnFuWmQxLyQdzyhpxdEP9McWvHIgpPpIjn0JFvPDhqXcJTlLwUY03ci0nlSNQVWKKUaLrSfkBvq1dbPLatUMSMWKej2O9Xq4MTIE5W2n86hQSy6LDkE7poj/wCorhJI04/yRMcEc98Qsf8ApiRvkJGhIVEBL8Aw1KmLxv8ARDvbI42InlaGJ/qLXjEWE6qI95skSOAk4IeE8fgaEH5DIDUR0Ox0SpQSJMiWMMZTRVd+j5IXF19ibWhu6HGPs7+x+qw4GEz/AKH/AJ8DSmmNSHLSkOY+AtCgldE3DkTR7FRXELiEo+F0JFlY4TJ9sjs/sFaP6FUX5VYhiKaXgWXFDM2vbOEPounKPSFh7JyIqMjj/CMv5H2LD+D8Eio4H5PzhITJ+iXrCRPSRPF9RLEz6MH0YWJxJEhvDOnrsaHBBgpI+wXtGj9hAQ+wj2IEMaE0EMhkPBIjCZP2NEEiRIgSJEsjRT+JsKtdNGWxfhCJKsO9alNHT1sV622rR7fOvQWUK0cOENCGhJwgTgmYQ0oIECEQjhCkhEBJDu0uyImlzEI4QhxBCIxCHWEEEEER0hKhLhBAilCRGV4UzGEu60baarKcOxVoyexaOtlhaP5C22n8TCr4R0X1d7aaOtq1O9q0exXq7EedC0pqeqRSbCGiZC5DlvI3GJy2LR1qYrbJaVKa2eXh3rQpmRltiyzweervV7HYti+Ey2ZJxp/EwvhmX0Y7EU1qtHW1XlYd/FPYr1fxdBaOhYnNYLKdwtNNHsWCy+vaVa+exPBMS8NwYlaG7pJfRs8bXeZw61SO9fGqR3qxba/xeSWSyWSxsTyINjaghHDfbwgShsTJRKJG8EyScK9WwvhutUltXivgU1N8E9fOrsWotKFNbZSSO9ai0davOSealMTld63WkDXCue4d5Tw9jcautj1ep4U/oEuEELBrgncIWEFT/e7gsCQLQGhCRIkQyGQxJB4Ic5G8DbJEskfQSgkRVJ3hI521b1GwlcwITEBDIIT/ACsICIsQQJRKJQiBAlEo4SSsJQ7JJRKODCJRJI3woSvZJKIF8UhKODskhgmh1ECfCSUSiEWMiBAiQOST7YF7iIyJEnlkMEBkRI4oDKSJEgSDSBA10j608BhYV9MWH3RQ48H5JD+gmT9E/RI/A2kTEvRLJwTJEvQhI3Sn9CtHRNQurRqHlT1aIfZnCTh+npQfVWLR2LUtHEYf+pkCBhe/oi/yQ0iBAa6cD8IEB76lj06yLG/TCVa8ogcRIRxiNYEiJHGIuiLLHmx34sAfAkI6NJHSNLBFZUIXBEkgdsYdETIkcUBCSBHQhJgiRIa0ECMBIQiHogNKBEQiEQIDshEL0QiEIoIEIUZa6QQQQJwQghEEDvV4c0uU/he6qyx0KTCHnix4sTkSUNagz2xUOnAzKuMKeBz3S89KjwZOnqgpkCDq7j2gO0gWY72ojKFlEL5iWRXyIw6w6+tCw8T/AJxpKQ9jrJkhof8ALh/oERTd9YLHTfGGq+TU6xjDwrP/AItHsLCZI3o84Tr1d5ZEtsVL8KIVYXb/AMEnhldVpSWUwNvYSFp42vUm6x5Wr1UKazqoU1d6vdKv6NaSPoB9XJkxYYt0+EOcH4Y+ix0kF+4hYXhrMs46Qr0ZZnWBPzyQG/R2N5YwsMSViMMat4ParJTyzzLQ6ImYsKY4j5PMYYsl0L9jpJLaHX/mnF6T8cIkiyj6OkwWEfts8P8ABEPlvpTShXKGvQR0b+sS/wC5HhfguKXXpDnGgKYLZTnEPAseJMLpJ+g6sxYtzMhEypWF6OyV7xwJ44QURX+MkspDv/1ENd1iO8OtO0NxYi2kbCeHWEzMXNECGiF3UxB+ShwkUjHhOHMOkJ1ZJJ03mMedaYP4VSuknnV5Tmwq/hewGE0SQJQ6KOBP/wCzOHL+8Hd4YpZjvIROX1w6HD6bHYCnxkCPTpNwkSGrKhHkY/6cYV4qxwReOpViOfL9O/2NPTsP0IdZoE/7D0+xKEJC/aHYy8os7yG5LgiJeMqrzokpp/8ABv8AWWfmmFkO/wA0Km/UZfnwVNofaIG0xukegz4HPPOmWHcLtxXCCUqWhHGfLcfgxv8AQe5vyKy+5DTeik/2IJiiw37QoD6Fn6YdJ7LKZfhR1dtox4YZ8CWyKEf+AQs9sWD9jSP0jq7Y/dIj6QuXEf8A0Rz6Eh2w8j8IKRXgNxMSiF5TDog9i7u2PtnEiIKhX9lDvLH/AHMVH0jk/SQaJeU/KalMSLHnWRtGOxfxeSEQiBAQS0UcHEY0ahimKY2LDBOiDyQxpikhnSRIUkiRLJCZ4BSOn0DkxLUM5eBOePG046iLEyKDtITQsj9ljMEj6FKuxBFJECAmukSEI1ccIC3JobUiGbJODDESsShv/mJ8JOYdaP8AiMkWfD6eB6P+NjLJ0gZ/2UDPyxwlYlZC7cwKEn6+DgPPCPTF0LQkvxCv3IWpefJ0vUT/ALkcSOlA76FE479tWKF1jpJQxQmkzDwwj3UD37nR3nSQjS/+H/JkZ+hpR9CISFu/J05n/wBmR6+CZSHaWLHiFwzgaUMUwwqus60KhKiW+h5pnZO//oSEkJ/3lcGqtU4MWJJQ39ifSSUSiRiEDaJQkOHk4ScJHhKJQmShvov4WLVcVaP4y2tNltIQ8oRA0JIgjBFAhBCIERGEcIRbQ/oYWTMc2eKFhmSIEiGSIp82Vb+2PnXI3JqSw+gpJY/18EOSI0nbk7xEM81LfkTWKYnA8SUI62oQokse0vQ+Zqc4dD9jSGw3MSOBeDhwgJeGGD1cyWOHoY1L0MStawgicEZdeRfY35UQAR1xCSKfA2sXMA5D885Hr5MYVAmSCaMCvMgcZHsNQEY5iZUfeSmZ6NpF7j7D7BIlkbRZwGxFI6PuJrm/RL3hL2frI4C4P1j+8Y6Rwhgwp66l3WmEpQoHed8C/he48aU+OtrQrmMW1fxFNqvRbLCyhvX3lPFNiXT0knV4iIIWKlMRh5OUhaEWox4C0oV0awPRq0gdfDxiupivYtVeymq2EI0aC/hdFtba0+OutaFNGW+OWtT513sWlB8Tjx8ZdC1tweXGbFhW1uhaXFdbNU6taFPiVKa22LVOvYtUu7Fqwv4XQ3SBJJKHeJJJKFNfOthaUK6rV3sWlSujoWi2PZWWTz4RPQs3WtRVo6zeRBaVC0oU1u9aPiHsoKtbvYtGK9q1V7FX850J3UEwkSIY0xSdHgmHgLQlkskSxilDbF4wiD2yfoVOPDEdCZJ6yxEiRIjSSOMSAgTRATRKOAkEsgSSNnkN6L4wT0oPz5yjWpTR0yuVWG6zOKhE5qV1sL54lqoL4zxo6F7sWqvYq2L+F0X1tlvdWf1DN/6xGEv/APAhLHryr6ohE7fReCrCcRAzTUNzlfoMi0JIgQ9ECA0gs+8mRI4OLFj/AFkQL+4/sl7Gwk5PsPuIEcexUI9yBBiQlmxiP/gj/QtJg9TcBOAmJH0Ev0Jvxgl+iRIlyT9Cb0SyQ3jJI/A3KF9SzGUOLH0Ex5ATgT9E/RP0S9D6xbE/RIY+jCfol6J+hD8kvRP0T9D6on6J+ifon6GNDF4PwS9EvR+SWT9EvRP0J/Qz9Cf0fUfRjfUJl4PqPoPqEDb9EuCWfQfQTChNrAgkT6jkl+ifTBI+gUkskfUSxtkslk+hPqT6CC/hdF9bFixh+cuKaoa2OJBZ6VjLH+kPofolMf8ARCG9EDpnsWUJLfCGmNrjyPWFpUWV/RDyOhPMELDKw6j+Dx1WWS6jFh4E8Pu+hT4vliRVhYgjpCEjh03llCOEUIL/AO4dFcxhWRiFigjSmEZg8yMRljMFShBfoihHi2iPE8YjDy647oHupaQKyNGLVfxKbbE0HR9NE2UoaockdLJknhSIQyGh4+o2Fh4TB0xvwhLvth0cSBJaOBjKFIWZEB8I5K+OQJIG0rYmjH6LSp/9EN+kEIOJLkX06PA3K/8ARQJjUcdsYHkAyi56NS0CaeqhiyJxHd48STwCJZ+n0MOJoQlUt/8AkTlJrzjxgmn50eVcSQ545aXSmuT/ADLvKe0v+n5MUQqz3eKjpldbYjLca1FXxHrqVHJ5FHuISVtMmD8os9bC0dYseX6WlVo631o/kC/iUxnRoQQgeH02flAhYb/BwU4/ENL9Ik3vyMWEuiJEJ7FpTD/3kXqLEseT0VAws+RwdxrzwhDwh5+zE0cWFo5UPkkeEPl/wPXDnvRa6GLNRZb8ITeorEn2xDJdDp/9Eb+8PCZI7eUH/Nwkhu34QxCdktLuHhCmcrQ1abEom6mTyHuIWJt8qBEneQ5P2awyU08IRzZ2TRyisP2szAfFLw2RzwUSFQhFL6KbLfG1Wj2vXXBf40YQkMotrdaIBavwUJTcAvaJsduxuCMsLwLTxtsLRi2KtV/EphIkdOkJHgSuIISkdW11pJRR5o9WXBXDBMOK1unAvSjCSe2LSqD/AMGfDEhESiBkQQEmE5PADyx7XXR6aEP9cES+eNhpDxgSDH8yKbYklxDJ+x6n+izQ/wDwPd7MT5XB7QkdklHaevBP7osHR9BfAuKSU/BCSxZbt4o18RegQOtHqdYsf9wQ7p/h/wBjCSymODq7UHcEuCqfR5V6w68i1eMr0FYwU1vq8Vppp42vFZqUOJbnLY9NNdPIQ3gNpG1Ic1qmHToGiNs8Pr6JrfEkkimKiT+Akf6zBKdfGx2LR/IF/EprgsRZ2mCOHgElSg1v9xSX7IIEQQIRCEU4IkcSBJEltRKpQMOQaOLws0LIsPlLpL2NDbhNBL7E4by50ByNMUwdw6dE2dwIJPA4uR9alJCcUvA0hE/RPkn6JZnk9MWc41Y5ptzj4VNiLUce1EhJeiOMRJJEiRwOZcOhLij4IDUQIEILR9lnWMpDKMkSJzJAgQIDjogQIH2DoSEon2GhPBCIECHsgSsCHsgQGQmos4amTeJxF1kAMFJCM6QtBAouU8cOF+yA9hFNuRCU/RI6H0NCyBFIIDD6lZAgQIjWBBHBAgNqRKQIECUJpECUQIDaEhAgSiA3wV8VNr11K62+AeKirR1lGhY8bqi6tKFcLKv4niLPCCVCSghECA0ofCpAgQICSIeiBD0Q9EIQPqIEPRZEIjhAfAiEQIYQFTnGBAgOOYIECGJEJCGKBCBBCRcjihTmokRoStHKkd5KR4CqhPygu4NrCIkRJJRxpI7YdFSHLAzawokcURFJAgQIDBGagQLESOSgJCOdAaIECBA0/jKfIKa31sLXTR1tXxFRaUKarCHvstaDc0dMpqr1eq6FpUpr5fHqtHRXVZPVCHkKU/TKrUx0q12Fo62WFo1zQ8O9EPcWjG/iU+MoU0ZbV63FWWU2LYWlBVpUrhYkXnXzr4i0oJo3wqSThixOJwWniLKKFPnfEWjK5WPfP6Fz7Ia41DnpYhkiOD7UpJqSyaH5JKewkaxIxlK1dbGFo3zKc2Fp42Nq6E6f8VcJZIkSyektMwoaaGSInMsgOBAklYjA2ZHbYra2PGqcJ/AW3STmWlRVpQro8JFoWlhZY7nqMbatPET1K5WFh90fF/p+eYV9hlkw0qfKZD78CIX4Jqk8JyvIiXGOcx2G+N/+MKB2Ohfk6+QPzV3mcN7i0Y3X8VdUYKDhCIFSElBAhEIgQIInBwjpHOsVMKJgELKEMacCeBA+3DorOncEHMnSWhN6JYzgl4fUTHsM0TmuSSIZGyTEhQpAgQxOiVBKJRKHRUaECBK9iGyUJCScJXslYbLIT4JjeG1BTCP9GJzVhNIlCayWjoTjVXEK2xeBBE0U4hImur/0i4Vwh5GScDnYcC8vpitBKZDtfSOS8KT7UOEm/R768EI+iL1DeGK/PJHZOjHGydC/nK/GJVLyzkT19kqMzzBNOmNCN5P+xfBI6lUK8eYKFRD0LR2tfHR0ksdFwSPWIIwl0jBJELCBAgecD6VjPKkSJ9QhCVkSOJMM4ESGCJbr9hpEbp1ncLZBAvufo/R+x82dEvYm9iXsmvJ92H7Jez9i6P1jL2T9jOdPsF7iYm9jZISeD7ifsl7I6Qxu4MXqBhLbb7GO4RDpETgwrHQhxJOhciPEVocg1FZ//wAg0IlMdTWxuV9F6JEMhkMj2I9iHghzZIhkMkNMTQL2Db2fYSGnJMgQyRL2MGgkyRL2NNEMkQyBAv8AxV2edfJoQhn/AMiK9H4J2hgkQp5IXk6FwLfv2KR99M9mMTJlJLF+UIKY8MGR1BRSbXWJCzFKxNuWGthNdSGb616vAtT08RZabVIQk5qaFtfOftoLqksjmbH49mqFpZt718n/AGZd/sGoLShTR0V1WqyFWlCmyWltGh1hBAkkSnK7IwhetVNXer2O9XWywtHQnf4qlNVevhwlk/BNngSF4Q25gnXsFheownPaIQ4fiKQsIdeTl4nBH4C4yQvn0EPEH/KGuCdSdCRPMoS/wIX7rFprmJxIpCQ5zAPVDwVT/wAGScshCaPGuB7wUm8VWbmofl/4MydjvI6+cs0NYJxg1/8APPgLMlGYG0lKY39YhCymjxjwPzonNDDcrEr2sO0fWU9ZZ2u1aOmV+Isha1NbtbC0oJz46ms6qFNXqdDbFoy/8VRo1qekCBAgLChzqPH/ALBGzUQYz5PIUV8Cs/bIHP8ACREkMURBJc2P0b0JTp9Dn5EvHYhl4MfSWPpRWPJPjC8aH5xi8byTuDlFeXBAGW1ZE98dJE/waTa4ytfY0o8hqUpBSDzhSA6RXPf1sVlsJyj+tjf/AEGcT9MY7HpVtz6uWEbaLK6CGN5QzTdtBzr7Dtz+3A7xjywrXLHsbtctjf0fKFKR2JY/+EMz2guM5Bw/A7Yu5vN9DoF9qgabcTwQ+Q95AqLShXVW/jxRaq2thaUK7JwkeCrRZT8A8JJJw3zeWjLfx1IRCIEISUkCBF4rdk76meBBssSqUD5IFzNIkdbPsJ5bkWLo5G4CbJeBA1fYO1yJ+hFE0RVI4lLpJycsaPwda9oitHXYsddB9WLFEJU14IkNiSsgN9GIJQy7jJSeiEMjs/ZKE1I2qFW4E6628MR+Z/0nPgKI0chFyAPaOUwkfRaOd8hM0ShEk1HBk16R0fkUP7TA+5/Z+BSzfYkpBCSlfrwOc+WIltH+AGlBIxUvA7r8DZ0H+wUlBVlFCmtnrRsUWttbrZTa2KB7iPOnkoUzJOx1vLMjL/xUKarYWjrYtTUL4ChjTECQczweEIj0IFXDjPoIYIBbgfQQPqGJhCICJkQj2+kRJLxiQWHoFo+9eP6wSmpCf2T9kxL2chQfLClpaRDhuqEnkIyTTEmuLDon+7CPDGBbDrGzTcoSCXpFQl4sSWCNMXHMWzKkh5M68E+pJkuZE/Qn1PpPwNyDKqxF6D6T6BPwR9J9B9Z9A29H1H1C9WBtFHCiRP0S9H1E9G3gTEhtFEoE0USyRL0T0lh+CfobEifo/A/qL6Ejf0J/R+cZFqJ/MUfxUKaMWq6F86sha1cotwi2D8CvV7KxzNTct4TiWFervLfBlBwXULSg3CcvYrereax44WXcbmlFtTsWlSmUMtrRlLFxTmNECWKlNfOyhGIRBHcJIhEFMIxBA+M4QiCBrhb+KhTWzzOLirMjrYlqutimttXrcWlRYnDKaq9JHlJJ46SdZJw6K621PCNKFmwotfIkZIqHXaotGX1p1sH5qr60Kaq/jF8Ya7mMOv4ycHhEMJJQrJWZLIVaOtqt63FWj8Ka21d7UTmmxap9ZOnjl48RYnNNKbbPCy3mhnjhZoV18svDC0oLR7KcIn4Ctqi1V7VqtVCmr/pCTH7EcCkpkajyLDIkSGoEmQxoQxqBLDuCCmScBejA2xNkvR+T8DfBQPxhHBQIkCBAnpAgQwZCa9kCBKGUDDZOGKNGWeU8IrDEWFePOPDFQsuiutsdORtZHhKFpUWjo8sRllE484FXxG52qrVX1ohVqthV8RUrq9VP49Co5SGTPINZqXhLG21uhVicPAfmkCv4ignCEP7WCENCECGECClsb68jsLTI4NCXGGHDD+j9n7H9iZL2fcSJCTkhkexCeT7So6yXPCZAjE5I06Aj+SSmW2ISyQvUSxNkiXrB9RLmiZP0T9Db0dwT9H4Pyfg4nGj84/kkRaXnwMEq4yGRuUcninMtSDDAjgbUMESJ9whoSJZqBImk9KIDISYIH2EBNSQIEolHYmiUcJJFZAleyBAjBQlEolEoYklEkop/IVxB+Igo1gLstBIwqdLyIRzSywzvhkh0QSJmGnLC8IdxrbV3tUQ1USE2D2wCMha3xHE8vQtK6nss9Gn/ALMfzb962FrWjrBlH2mkUZ8S6xCxCOWKIghEYaGcH7JGWIRCIRCIpCQgQIeiEIQ9YIEL0QMCBA+oQKCsESJESMQPoPqIkAlIkcURI2REpEhkIrSrrPDBxQsUM19df8grh1v8Rcb7CSUENz/oYSV9lScieP0xKr0hjfQaWe0SjxLyEq+EySbfg8cLwOyhOkwTiZNA4uMSXA3LgXiDgeDxVCdX/NG/+SiLy2KMEPeI1Frpnirb4dXu+Hd5B4FIQWpqWdj8LJMGSmqjH4iXNdbmWSUtnL0mvbz9x4JnSy2KZmHpDQv2sIyPDGlH9a4yoq08YrMD11Ka2fE8aoxVaMV6QVKfEdHP8SlSRIv0f5L/AODw77Fb+2K8cuISf0Q8mRSfQQHX5Iu+2jwfSKD08zh9rXkk7UsMvo8K98Ih9CJcjpWLw15G5i9EznL/AGMNAhEiS7CQj0hjbVbLT3BOUZBCl08O43oj59H6eCekZOYX0SpAeQ2BFGlxQGiEUdKJiP8ABkuRb9oQksWiUwt1GLPM0nvup5QWk/1nevsPspZqtKsqKjPHDbJLwUKaQgib3pKSbfhCctPJ4w2EoCBRlPmJSy/Ciw7jgk0k6KK+sUkv+D4VVo62PXQpq3W2mjLbaaPc01gRpT+SS9j7CBAhDAvaE6L+iOnPsnm8j1+KO73Q+IXT+o4akVIWVrIDlY18vhD1BWxXAd8jng8EvQ3F9D85Wl/pyKDgL4aWPNp3SxBs/BUEJ/QmoH/+ggND9RIIT4R5j2/07xIIpqkSf5TFI9kOU+kiR2ENPKGzBKT8OPuH7UIKhURfqQ7riyLQYiaWG2f7ZD/9xEL8EBV0Ghb80djyqOw7HZ5iNIm+4SD8ukp9VYLRSjQ9iQko+2eohDcJv6FpcrtBJ9hod87kNbc02xYR9Cb8mkhJxfmFqfKELZGYN+kN6hvoELF2Y4yR2mE8jH6QWTx/0G+wRXCDKBHMeA8jhJes3r8BaOnita0dRsXrII0KtHRfaqFnwW1qU+JT+gU2t00nHsvJYazOHogh5POUUH/sQQw5mJZAa5aViQgRIjgmh1PTIk0OZSc5WhhaE8CmnyfogcXAkdWJ2fvhJfCk3nIydGv7I9ZaK8gyEQ6lrsX9ctZAN4I6aheMJiRATemisFTdFvCvBPoS/RJOiWrSJcUNChI/BJ4E3o/AqCKc/I+BRE1KFeMWujRUhvJAjiyS9jewi39aHiTpitl3heh5VZoR65CftcPyc6ffCIq/g8B+bIEvQkmfBD2PqP0htd6IeR//AAJ9gwh7J7JRImvZKPASQQJWHTHOEkCcU1hYg0KI1u8TpROltfEWttalNfOtP5KmlPkqrR6Fjzq9CFmhTVW9XhXsgVVbet0pOaMphDWEk3q2SaiRUtPOkHiIZTD9AsgrhCEkQNCSIECEQhRLEDRARAiB5k+gSNNHbrx6HFJDmM+7xROD0wRIkBDGGMFGMdMh+8bH7L2VE3sbexIOHkZ7Jez7sT7BJsb7T7cBr2PsPtI9z7SPcWCMxPfOj3BTOotsWCRLwlySJEiQ2/49ymlPjnFWlCus7aFiSmxXjznv4griCa/FVnxFooJz557hBDISSSUJEYE4Rl09qtq9dNTorqtTwE21pT5Iq1u9ZSLVa+Iq1VixGKlMxjzpJQb+K2qmucFrVaU2LdLLfBuap9w8IdktoSEJlqFkko9fhnmO9FeWLdlrUOll18Ukerw1oyuqvrZaqa5Fj50qtPA0621e54xObbKfAkkdZv8AgsTkEhsJiRP0fjG2vtOqMMQIkCAmpIECHsgOxNEk4hBQnCZJ0dzOx46nRXR1kqyrixeGVll0LTwYWXpeLZTh7UaUZXHnEj9a3QsyN0MJk6LHNEjiZJwQzgWl0LR6Jw4q1buklBUSTl51dfDfxUC0oVxBBCFZBGELGEcxwaUCcIWCGCSbIYwLDGlzP+z9jgrGeyCXsl7ICPsIECD2dC2HgkyPoGwleCfobeiXobYvofgWen05IEcZsRkgROA0iSCJDAqBJCEhAiPgfhAh2QJSTYn/AB+2S9aB3FhaEck8k4kehMnElgupaGNxl7QsK2GORP2JxCrMsbcDPOwtHXwE4kktrQYknM91dfyBaVKDRJY1bh4nymG4Q3db4bStic5qa20k/Ik/DWmrxgviFpwimzhGIQobIRCwhDEGQIRD0J0SeiGL6hUCYrGJAaQImQF6RqJYEzjAU+fp/cUjgfs/eZIP0c+SfsTEofRN7OF4H3H2iM30+zEj3P2NNMj3GjSyA+BIIdesJM5/4PwhhOBOGkS2hQJZIl6J+hvpIS9Ez84IfnQNoX9MVmxHiUSBEiQJ7hAgSNqBv4ns0PqQh6DQkqC2tRTNn/z5P0uKFB+QkUryfgkg7kTIKHJOiBSMqKUCo/KFhtJS2JpqSgq+B4JE+ngHyBRbStxhwpaFo3Cmj22+LYWuiwsJwprd4Y2NjyRn5R4x6J08NEUKaxnVQtaldbNfEjEYdaYxbMYjmEIggjBIghEECIIIEBBJQQIEIhHk4QIEBFH8gtKlcJ6RYeDlPAzk1sPEfbgV6hCSSZg7E+i3A8o/og7pSBpHxxDS+g1+IQwgS6rwVX4P1gqwhjCfcegqF4EEvJHhMkoHkTsVs6VUIsSSB+jwhKzzOEAJ3ISJimRNvigtzeLH3YkfRmrVsYlkh7FfxW41UWpXSTyJw5N5Wt+u4us2UxkKa2fxapRfEXQtGKR84dnjW7YtGILSn9E7CDVCQW3jT+Q3/RAhhAfSys8EpBy9InfQJd6XPRUkkPYSiDC9p+jz54CHtHasIwfRENEH6/o7H1uhUIFaK9EVHS9lmdA0JneTdP8A0YId9Do5OmKyDJHOJHUh3E8tngPA4+5hC0f9PAP/APAzgPgWk/MPQtrp4Tp5E4TOV4ZwrxRnzmoSSs2erroyuicXet0LR09rC0Ytbastqxa+daCP+JCEQiEQJAkFgkqifR0bHI0mnQkanyQyQI6Lg8+CTrj2dm/YS94/aOgm2/YuReVMMWxS5jpL2SH4hIkRBAgVUKZKfeT0COyJA9KB8iM9hCRIa2Gf0Dxh1Ej84mLVORKSDvNq2SUa9k2wEieD2JLoK9nyd976Xr/D8M6Glzym+RHBEgMiJHFAhJEh7IeyUWE0SicHXOiZwlEodCZOWeeUP/rnFifM3R41FSPOGeB+vM4dczmrrfW61dfFJ3PVivYq186v+Otumj2efinseumrxtV6QmIoWJ/Z9+IwhSJwhEEF3MNjojg0+z+CgXCBD0QICRn1Yo4oyQEECJ0Fij7zftP3j9g2izvyS9n3Cb2fYJP2S9iCFZ+mQUGFINhJqcZKxuYE8H5G8DPsH0kvRP0SJDcb+iQvqcKOEdeCHo/GC5eESGBHCJEiRIMZIhmojanBK9kCUNoTRAgSvY2hs4ToidS18/zrFr8Smj+McVavl4ewtHRXVXorgd9hkH+tKi0dfGK9XXXwFovCi0ejyQfhIr6rKYpQQ6v5Ex4PbSVaMS9XAhYhYoUIIIRAvSEQIEFwJ1ECF6IRAaUCQgQIkCFJEgRIDSBIyBEji0RwS4uHk6Fk/sQX3P0QyGQzyQyGdIY5j+K92tG8V8StPGl/ArR0U1V6KnlIjMVfxHRQWXts1erxFqU08afAzSxWlL/QSnX9mTmls+m0I8lBUtrH8JniQuwkrVqUw5CLzAnKP2sN16R3z4FddcFhEDrUx6nWhYtm2GW2U184n+eJRAklDCZKJRI6xkn4RaOv4C9nlq48Nq0dansZyzOHrutIKCrMj0s/VI/+mkX+DpPojv3DpHa4Kl8+BER+z4jp+gtQE1zTxjLRb4K4ehngDmaE9ryLmCkpKxBa9+MoSlbIxPHTsC3oTJpNZRZnlFHxLX3oziTzTxk9nnEltOYrKx50kod/wstqrUPL+xhhMJeyRIhyQPsPsIEkJatU+MJxz6nZPoPoJeiQ2J+sUyQ2xMQ5zthHCJPSJAhg1CaIECV7G4J8JRAlDeEolEnC3xH6LShTR1rWPTgK2qfYhoZi9v2EfZCLOX+g0+eEshKoQopIDEcoQww7xg5k0niYfQ8kNP8AA/6kRk+iELYeZ+hwx7EsY7G49DIjxApnzHD3VvwIdfqTiXrCdn0E03hECfsIzMMexhaH8I82y8lROE9jHX8Vl9basp8atHQsLXznmSxzDrCMcIyhEELCEQiBCERAgQGo1IPFEakBZ6+wxcl7J+yfsl7I4SfYQI9yPYcliRj3w6cOi0Fsth+kkcFruDJ+sZRRP0NBoPJc+KGkhoUzJfZGTPqNjeCWbiccHPfQxM68jpI8smsVQyTZGxxpPxkig/JviEfsQf4nX2CKKoPG1WegUH+kmPVIygZd+CPukgvb0SojwIeHstksKNVPgMWLa0FRPwnX8Vl9bYaENM5hCi+xgEtZWti/H+wiJr4kKQS/GlNvnYtKFPidC08dafGK/jy0qKtHgnCOk0xYbUy/8Grkic+n/B4knvsgYjEYnxEBMqgQIL+QdC8IDREBoehie9CSoSgiyEEKhHDO0SQWcQyfOQ/EQSBUlh9WJOWOD1Bhns/RIl7wacn2EP2dP1gpO5OjnmDMFDpLJY2ycBtibJeiQn9YT3UJ5/FdFnrRhqUL/AkENCFon+2jrL6H5OjSY2bxU/58tKbVqutaCrR/H3WtBVo6ZTW/xhaVFpRlNJO5K0IQUZjokeBOP/xtVZiGUZTEDWFfMoTQwvGjr45Ta9brbbV6oKi3QJEIa/i0L7CzFk0MPQ8+1BVS9RNDycMFJMJYuiMSdHF5ZbmM4nHnW6FpUrr575xJdbFNKPZ5fFhAWUNq3NUE2a/OhiSSceI+jorojz0SWKoROPex4oeKFNJHeJwy1sd/IqviUG/hoIQIEMgOZwfqd4QT8I5SwiiowkyZRk4H0H1DEvRP0fQTG8CiS0q6zxxRJGCJAjgQRIEBoR6QIeyV7ICaE/ZKxKLITzI3MJy6ZQWXRcWivq6iysVpccJCzQn4+jY/Y0je2w4Tl0ymZ2VitGN8RTY9TlD6u9fG6q1V6uv4tNryfwDNt7EcIRCHKKpwhEJcCbLjF0QIRCICKSGD6CENJIQQIECAhjXMvBEgQuCLIIh7xeVP2SEYmuT7CWDg3Igg/aQY9hNkPoJwE/Ubcib0S9EvRP0SHPg/B+D8D5EkYJCJGBsxlF8IskI+yPvFD2MJEmCV7G4NFkBNTlYPRJ4kkb4eXxDcKE6PJ4oV1di189irXzmMU/iU+MqV1sLmsZaGfEWYOPzlMOYdI9CEBHBavEWlSuXaavQ93Z5j1TaO/QSysK+rvWpTR0yujrYrZjFOvMCIIIXooL9EIhECHog95wNPR9RHBCnQCIiURIECHsawxTWMfYvuS9kdIn7G3sl7JDCf2fYfcfbhXBAjMZSZ9cBv1G4dQy+CfQkT9EiTZ+T8n5JGGjGOMcEMYkCAgjhAnBNECScecSTin8SvyY/NHRKT/Shk+QuH/nkV4CHFbExE4RUv+Cao+g8pY/7tlWxHsKJy/wDRZsPxQNKTGhw0nHObotOmUflOfxzheSaawq+tlsWlhXR7VfV6vHar8Qq+jLrEaFcQLFuviKtHWM64IzQriCCDycIIIGuFSEQiBAfREgQwaQkbwRI4NbIjp+8Ze8WmV/hrse0rp4FCAjlWGIdmhnb/AODQ1NxDeiSnEawWP8RQR/snKZ6d9IbLQlrSGSGqQe2nTFfYkPkibgnw/wCWHJts/IcSdb/6dbN+UffiJed0jSPA4y4Ki7Fqtq3BVpQro622C+Hda1KaMpl6JdYWboWlNcCd6+Gp1qj+FShXV3q99VqtSc/i1GgljPCe5fyfndQ5LG3hX+nYv2ERwJyM39nZDv8AHZx/+FlbkRUn0Y6SwOK81D9EBdWRaUhCpaQNqHlnhgUJCi7Pp2wKv8MZGdZZdHLDoP8ARx1+IwLP19GlwoImNDn2dhuWvCXWtGtRaVKaOttnxbLSShTWmPOivrdC+IKwtS0dPa9dxRiPgU2nYiMut5fEoI4/hqU18kEIghC8KohEEIhEBCIEIhCqUOKQy4aoRAQJIifQROUqZH0JJYc+piSEg5JhI1jAghWOCGhQkiDsXEY5Jr2KCQm9if2fs+wl7JTZ959mCC5Ee5Ga5x+pOK2E4H0H0YzaKFHwTJeiXo/Ivoc+CJDBJklNZERKI+8UD7B0wygh7JXslDfBuXobWZLNJwPGlhTWzXx0kdMoLR/Hh66bHer3VX9goU2rShTR0Wa3Qss4TljpaIVt4PFQGOPK0stGUKaOtqvCGNR2UwR6am9q+EppeFPy0QhoQvQ49EIwiB9A5pxcDasJ9hpDESGJCErjJxGYX4j9CP7OvJayXsgS9n2FkL2Ee5GCUC4zzgKZYvTgvUfUNiLximPwPgj8Z4ERpOKGQRBEzU+2CUE17JRJKGQJWJyWj+IRjzq6/i1+MbhXMi6Lj1MNyA2kuidBY8uRsnol5IWH/wAof4ihTKY1ftDxABQn0iveaBtCz2oKYRaBtLm1Ych5sSSJLxhvV4601HTK5eItn+arNOf0ThZaTPO/YtCVlgqWiP8AKTFllnwpF5VaQKws8LrMLDooQhpEIhEIfQQySJCoYIYIEZgjp3BWJKzz9ib2NOSGQIEByKdYckskSwSyXJInkfBL+GhTM7qFcPCtYZH6vrHIQX2MfSUoIhh+zMxS0GhPuFySTS8k2X/SYBxMqjETfkKRHkaId+kY3obBEtj706HDZv5HAltPRW26F7P8DVN2MIQhSFEjzxAXWEJObG6x07IzPd+OIX/yaLe1eLrMpdukVnB4oRY4XGyOMe5PfQ2km3SE6R+BQQZcO4liTwIi8rCmWFp/wi4xIQ3A0meT0sPGSiHluE36TP2ut2q6SxUw82a1bFNWjGlCnxaFdW41exuCrXzlEIp/FoOkiBAgQICBAgNBkxJBAgSIEkH2IT/+Ax0QUz3MSw5ycQxkn6EL++kn+64KW+iNVCGp8XQm52ZOY6udn5yQsx6EG/Y5AOG/8EiH6/6HzWHlUSuk3oCsjyRDYu4WWBNseeBr9yE2XwgH0SegSfU6Iim/3H+Ey+hX6cihFDiPo04/IC10MkT1aUs6JwIk2sqkoSq2yF02pJhP1I+IfiD/AJYVIr0VfRXbEhxQj0MfvI4RhOxsfGxEn4PASxO1SOk8vDC8CQmSqFh21IoBpVhE+3q2CcvI8RDcFoux4nFQsyOtrxnNSnx6urvV76+JT+LUVNYQIECEkCBAiLRzIECJESs+scIQ+rDoNWiBCnGJzF5Arl/o9g23ihX0R4EXkbNWNdyHd6xiRPRgqAkhsaIdpVEwuoix0FE3Jl0L0RNZHBJTY02nI9IzlKQ0O8oEGFjDkRZhXUJ6gZIS1KCBpOY8BHRbliYxA7h+s/B94Lgs7L6QjAQqR2K5jcQFUB4gsYRkhCFpcOIH6YYSC/UZAT8hq06P/wDiCFQIdSHjMCwljukOVtmqimOCR+H9D6bf6KauW9XXW5FUedLvWokXwk3gkkkrvoeaFdXeJJJ2SMLSTyLSm+fkq6MWMZoV0dFtataFdbvSCjHg+sqoERl0yung8su0hKvGcSRHMJIkvJH+BCOAgxnpkUojgiLiIYCQl4ICBwNoJKEuYkUJEB5kCEjkihMC7x+2kKKsj9DJ4xmqfRwT9khGM9n2EexDHIsaQTAkMk6Al6JEvRL1mtKFwc5sGMkRIkcTKcH3ECAiBkkSiUQJHwczI3Cujeym12Jjz4LvWpTYtKbY+ShTVbVdHRfWrWpXR0X1nteij/iVoWYOwyutiNI0wOIgVaVE5pUro9TLMxh6vHRUUKZWPPWY/wA54NIqIoIIRAhEJwQIEPQiURwQIDVZP6P3jYb7PuPuJDErEjGn2OCRJljbgTcEiRIj0Fr5PNHBjgJolEolDsWJxT+LQpqtqujL7S0rrZZ/us/NSHT/AG2f9kzEWlCuj3FpRr4i0qV0pss9Xq8Mt5F418ydPvhZqU0Zd/HqrWNdSnw4GuFNIGP8IIECEJJAhjAREanHdRfBX+IpiUSiUITmcG4SSiThdkkkk4FpUro6+TqtKFMTh6ZJPOr1eIhE4oUWlNlnyxrFdr3lYZXxDzysUa3FfiVKfEoV1ep0cbFRGnnWv8Whwwn7J+yXsjpL2S9n2EhGJMhkMSHGNVzaFM4QEmQHPsj2w7hIX3wQjAn4bU+nA0BshIi0NCZ1i+gbvwJifon6J+j8CgfnQxkjniN9xiRIDqUQIECUVG4TmjKrSS2vdV9VdTPPV+GhFCo9HvMYd/w00+EyhTL3Ot9UtfItKfxKaiiWPNiJpruaFNdfNIl/Ataeh2talNHqYwsQfbCEg/WFuhy8f0CzFSujrFHDhAgQIEIhhASEBoIiGESOJfbPz5OFMn2E/Z9h9x9ok2fafojVORIZkp4JEkT9DIoX008RJHGOBw5JiQiQEgyaEqIPyQHHvCzGJk4bVdseetSvxXWicOydGW0Y2LXz/O01EedHG8Z2UJ4SksSmWjF9e2dYW5vCHXN4Y8CD/sI6SVipXMzjy3rC6/AYiF5HJrPuwpqdbVeJy9d0LSpTS4fmt9VfWyzGahGIQ0gQgQIkSBgQIkRaSEhHRyEvZM/Z9o05IenfIwkSJH1EpJ+ifol6JkqOGeBAhJHCBAb4IJRKJRI33EoUPD2UKaI86uv4lCmUiiAsv94/wQJUttjkXRaKaHp7Y+IYk/ZJ48HXfl4I8L6PHOjwSQIHL5mN9oiVF1DcG34UkOSiWB58VhKb6E2E4xnhJO/l9EiSflC7YOFwOEBDLfQaoWFTm8InK8KaU2t1/Hi101qr4qtrRtKjufGx6qr93rR11qLzSMIzBwhFCIRCIRBCkjhAgIhMI6d9H7wXuwQxLAgxicFh0kSxNk9JZLzNwef4aFM+Dsc+cGN7gkKX0UPoZJpP+MfsxP0AnXsJf4n/ANs/tJHthM4OmGgs6T/CGrbjwIi9H/0hPkIuQ+hkJPnPodr7+HMk/BPHWewPB2YX0eok8LKxJ9PC4hH7DfoUj8CpTR1iyMMs/i1E6eAsMRUpp4xWlmr2CrR0/jfAXxL11K6rXUp8ShTV38ktkYhHB0J/DQ9BGBoNqVn6JMIn8mGxCVqTEhMBsoGoN9LkIZKQ1y9i6BYejCVEngf+heaAhJofTBjbaiOH1kkpu2/IhVtEjeWQBeUPMjbKCCQh5OMp0xcJRRIZOFrBtKEK0JryNMDQuiqn/wAEdL5LeMiEIkSI0gQiJEgShhNEoTRKP0ScxIxIs+IsoqU0eC0s1bjWgq08Mp8XwFo6exvVUrrZrUp8CcOimvnWS2xZYtlNy+OhTEEEZRmhTEYdHkQRiB6IKCxBA6PYcSfZ4EEJiwhEEYsNCimQggLAiIRAgNIFMjigNBJFrIwnx/ZFSfsXuPsPsPAgQIwtCGfnDIXoOFDMkvBL1mTvPEiN4SSBAdCSCfYlEodFSSSceYtPAWjorq9dSuqvrUp8R7Hq8YTqWJz5xOafxaFPjqaOvj/EWlH8kCwslWlNryxCyhAssLS6FpUWjoXMEFgkiENIgND6iOCYXBUXI4vgSRZ+yXsmSJTggQ8JCnBCRIZn0Cf0T9Zn5zwJEJEiJHFETWFAlEB+FPiMpq7JJJHsWC0k860Gn+GhTVbVNHW/JOboWJxRldbNJHsUyx1I3BPZknCsnRop4eLrLEVKaUKaq9Xq8BaUZTW3XxFo6ZXMEIaMELDSgcQLghgiQIN4IECGHiSG2CGeSGRggNwFMZBMNsYxfXM3gxCSOZyEhAgQJR5JWJWKfx1PjqaPN5WSeLLViuE83YnLyWF4hVlk9FSMungxYYrwtK0vl5xXU3MmxbG9vgLShXVavAWjp6ntbkCrVbFPgxihTViNIWECGEBoSESJHc5px/Foc8ZE/RP0Lonp2FzWMz8n5FDZaGBY0NkcUMUiRJEcURh4kiRwRPOkgKcCa9kolEob4LCSRvmtjKXgs+eUsUEkjJG4hVpQqTmTyE8sT1+B40sK6QTlpRdYkkkb4xycTtQnBuCJzZrUp/AHkxIZ568lNVqdfxaC8IIIGIRlYrR1hw4cIRAgQIECEiSGH0EBAQ1mokRLpEgRIjWFCOMAsj9kKGNYfsXuGxJkD7CMCnwRoEsSyR9RLJYn6PyfnB5gSkBiIiBJGBIfYSvYmhIJokYRnSagj4AkkbrRllh8F1YoVPOUMzqU1VtalNV8Yd6ut+nwJxT+JQbmjEwtarSjK/EsjxhYqV0Yr+LZbS80plGHWxannBB4iSIRAaDUIRB9A8xJGQIez9CxP2SRLAnHSDEMrcHI0CWfQfQSxWT9ZvyVECOEBhuDaIeyUSpGz5JGxvEvGq1UKfwA71dbi0Q8nin8kWiC0Ypo62rXdCx07iro/jWoVaUKaOtT0oZZq1batauj2K/hkVK6r15ggXqEnogQIiIElYMo6D+iZL2K15ExECBGG3CR9OD6BkDfRP0fjKuickBuDYSiSTzozxpZIwtZ7rT+PoLS2ZzppTatVQtKFdH8fcROaFNKPXTa/Wr1XQsvAlaMpqtV1q/Cmt3rYWlM4+DQpqr2IswQJKSCCCAnBLhDSNdySIZIR3DuDkUikbE8Ek/WmfGz/8QAJhABAQEAAwEBAQEBAQEBAAIDAQARECExQVFhIHGBkaEwsdHB8P/aAAgBAQABPxDht/w8v+V3bDpkp7As/t/S0/bS0tJFptpYtLFttjle4tt4942b84N4E/wPOzwW8jvG/wCThtnj7PG8nDbY/wAaS9kX2znr/AlvA87zs2222mRbz3LEcNIbS3q20t5Lq23ubbbY/eHYZty2Y9iemPb7ZeR7wsECFiLaHbY6h/xvJHsbqpD3bPcCLLedHAm0cl/V/Sz+ln9gLP7YfsgPZ1ZH+PsWcFv+XjrjqGw/OXbbyjHhSZc4TpZEMsIjvmD+07jHnljOF9JfxuqVeyV+cCvyH+XwW71PKLiNScs2Bs2bJYgl/aOY9Ptj9gtp/sWEcc8CC+wn+IDximu+/pZcQ0lkTlEMuccGjf14ie2TiHhDA8hHDJ3VtuHC5QF5EHaxhflOUZbOscejd3JIdR1sPYpEDzJJfyW/y/WXU8b4cv8AmW9alBD8J/CfmYL5a8yT7y74CTHb0IYu5U87u3nmTuvh4GqAVjiZEzx3ETIdGf1gvsdMu6uLt4tv2IFihH+95Lr/AAN1Ns2l03VpDCWkJxhdRk8YWLD8gPydLC/hCX8LH4WPMv4WHy7OLs8n/JQCcZCjA+W6xDDfXw4mOqKTBvtpC2IFjieDH1bP7AeBcWI4of2x+2bLHxZYiW+thbd3RxY/eHHCcR2bZWT+8QGIxZGweDWQ5vP5D/DjbK74p/G3MyZQ8JObNv4X8or+djH48efzi/nZ33szyPoT8yZH438rt8jHyPLLP5H5X8J/G0ecQOuiAfInhsu98sLA4P4sgngDO2OctvBxmNnGe8PBwc7d8PLFl1xn+fnA18sTjK2xnHo/YZnMHCFpcG5FMd8O/hH4X8LUMD8m5/OAJNjIFmxA2xBhL4RCENvJYjaeIBs/twEZ8DGb+vEQ/pJcgvsfvH7Wz7ZgSIH1mv6WP2xxf2tZ/W6fbD7f0u/gRGnswFf04MH3izZEU0xlf1sPAh9v78H9/wDT0t7WOEnrjj8uNjEu68iRiVrH2/8AnOfXkCXRDaWCOvgwd+S3kiA/JR8lu2UfV/KPyj8m09Yy5D8775afLJzLYj4Fv6X0ljafLH5btt7GwM59XfP4sGRsrsqWa4wy8kV/M2JsM4Wx/kDjOB53h6tk4QgnnU8FlhJdSAljfLo8gXiyvlh8svy/kXR5B8cX8pT5EGgM8uu6vDgJKy6ICzHkSzHRAN6N232WSxwyYfeOP3hjG/scSpx3sJYf7b/bRYX28Ep+2wtWyVclfsOVD/ZRaR+jbbf7LF3Ous9d3m73LtOT2Q+yrFCCv1vD1ZB3j8Xd4OO9l77nvwzOeWR9sw0kswjBhBgSZAj6RCCBEh0nSL3bq7OOLJ03L+EZx/E6Pinifd5ZBBMy/jdfkfnAOpXcfnG0/lYfLBmfyD+F/wAQPyDfIM8gflhvnA0b3dvAbYcYGQEhs9oAMO+csbdIbnGSD1kjEty0/wAPBzsv8if8fJHLtD/J4kjn0g8jSPdjFk+Mi5wF9jsM4Q5lwxvAR7XqySCZ94snh3xyl1tZe2WQnqOfSKLdnjpDzhOY6s588Nt5O6TySHl856Lzd8fJOmGLHkkF8t4EuzJwvC6t64Lkz/LoWCcMzjbnNl5x71mIIu0CCTgZ4u75BMHcxwnM7A4Zel1ocMmPdjDkiZeuDkTws6k6sI9T7/0cl9t/zvCxf59ujxzj3h1hy8V7528R3h1bw3pLq3/Huf4WcI28Pn+V941/hXnl+cGIvvHYQcG5HKf4d4Oft5vMFhY3yW02OfUMOUugXks64Lw3ZiY6tnGkXe8fHEGcbeG/vwbyfPATwdAgY42Y7M7dX3le+TwCdDZwZJ0xw23gW8jgQ6f8zCHdjCy+8Pq9WSciDznuEB3ZZBDzvB7MH+/e7cgCP6lfd0u4qwy7np20iZdT404UF95XI3g2Lrh4uuN4PF5O2z5AYQ5OREwx5/j1eP8AHXlYBvF2hwTKD1y2dLoQy8h6sjj5dFF5GcMOEtvJeFvAXl4nk/4ZwpZe7QFnfPtLNt4WWGZF7YFpkOi8hOOl+44OCkNCJ6vZcbLq2VjHWYjn5XhFkEGrW4glF6vNuW8enA46sg44MHN743/GWcsE2P8An2h+ZC2usTGTsDNkHqZItmYDvf8AlhzeEJksPGBksuzMSxBQOS0L1FqbMqO2/pHFOPZD1f2jb2XXvEkL3YT2xaS9Mu/bT9tP20/bS+5A22lsgyMeyPti2XV0tJEM+cJKWxOjwW3sl0c4WJvLbeN0S9y28bJZ0Wn7bx4OQB9ky3k0txtG63DyN77h0XUJafsuKZkNoQkpaQTbFpab7fF4lgT+xJerJb+i+W2D7ZX2W+o6O7+lt9v6S/Ucj5MiexKI/RMkZnMDDhZjCRec4D/MKxLZ8ts0joWr35A4sWOvknziSffLWeS2YISPTbZdc7bZyT/ln2zgQyw/LsurBsKw8i0j7Rrl+NrkexTDiZdbYnbYaRuLaYJvdoRwe506WqRkyHdrfeUVPbee2v3gKO7f2xU9mCOhvFhvQwKY8dSXKSkR92R6woe4ITqPyx+knBYaAlJoz5Q2zO6uy2rUJLXeOL2QILeeMcjJ4nMKTiOBIzNswwb4B0xmX9otwgH27OrDlmL7bZIgOy94t1+2bFsPsI9v2Tl1aez905e299j9bUEynO5zO7YzY/W3+yn2Q7Yr2S/2HBfs9E2641uxmxfW7HT2zyDPbBA+2MiJ4eJwmgIOECKMLBAvFgSLKLS6Sx+Tm+XX5YBsviA/JwvXln8sdMsYdQIG+Th4WPiHb/g2bJ5Dnrlth3hBwKrEcdeg7WXFbtjCW0pTVbPuwzhAOSqtrGFnJT1OrKRde2Lln2NuMGGt6bZ2M1IbN6nwN6PgmbvTP4lshtjHa7yZYTjY0H8wlrxN2M2wJbZuxAVlAl0T8Iys9s7nq6Z6wGXRabOcDOF64EfResZ5wTPH+D4y1Xk4euGbFspoRvpsi9IYWch17HuCLb0i4vPDwS4Ccizrgd7XhfOLCHlkHDG4gPGcpCzrjbzdi6TJpJ0wE2RYXqy9kOy8F1Jd2mOEig6+3kmDsXi98C3qWHCdwcu19lis/wAMM/4LP9LvYYkk8c2x0iK07RztUHZBzpiBt2YZsuC7e1ALop9zE27owIR37BnGdywn6l27t/DnGHRDYpH32Iap73AtAAf/AGS6oH7EZ0Pja4i2j2WEL5slX+XtPEh+kZLcK9r1ZlIz7h4Yh3G90en82GWuXaA0JXczuwFJ5+5djeLr1sjYSadyanurbF9u4LoGxKLvT31KgBLp/TgdrFDW7SPci23jqXngbfzhHUX/AHxgrRscJ4F2iZLhNl4mChdLQJZ9Xi3neoG+D7PHdOS8M+rKcLL1KMyiQvHj5vK7hPBduE58jdL5aZMlyLnCvVrGC9Qn+IdFjwKGjLttQjCZ3nkljdvC6vTx1dJ3wBwgWFpKLuHjecsiY5yyyeD3ji4XuJqCZh3/AISzXHX1WSN6k/V5BltuoHW10aVsB+5D3FhYA64uaT3dlVHQPwgldYLiSb0/8GzbY0uhIrvTGO2FJn/saEUAzfbYfe1GcvT+A/W8Y0H/AJdYE/WWCfd9JntVv6wED4B/5JqQ6dC/p+RozYZx7/TAN1Lek2Gbanswdt0AALpLtwZiiScSbfCd4me3J4v7NJuiP+Mntu+kYkrqvqi6aS7JjgyMwvRRJzNFLU8w6sqnYxCPLF+xqHGyz0XUma7DFl6rM3bpS8y6t5Bti1mO17dWXRebqZzLqUlYeD3SO1oyiYGHJbe58hE5dEtkFHJTs8MXmQDeDw93TEyLOD2jQlhIcpGWy9bevIGcDBsuRG6vF1vB5S4XdRxtQvtvc8y6V35b1sXGXu3ThrM7UA7ndlnc+e3uHlyP8PA/6yfaeTxJyELP/R39ncLcBmoLQIO9zvTq+8S3f/JMHD2u3LUGRx7jIA+/q/rAan/n21//AOvH9hDnokdj4bC1PXWuNj9t5QkPqXuO2veA3IgQPDMBstcdv/W7LoWuf16mDjfnmy6pfSJw7I8D2a/55OWAg/PrFK/R9LAX7KHSxqJDs9sX/Jr8rbUGg5r9N7b+23SMYZAtVQ8IMBs77318y65+BvXz7x8bqE10f8luruuwsHasp4Dv+hLAB1+2Q4qVEDdSfb+IR7MH1ltHtr2wMe0P5HBbKym7qVn4/wDI61Mbs7/SGf8Ayu66BIlG+vj2Ij80fNvC9baZ9IeuTq3cJdJ94XJ7qfsoZS7liY7PZemTi9Eup02Zls+pdM8Dw9ldJGXuGWC7Hhey3qWFlaZYcay2Zcg9S7vK7ifRbbbPvDpm2Cw6kPEiVtNiBB9XR7ZdbaG6Rnxh2wwmSs5FsZLSxnskiUiUd9UD5BnJ3ECB2hQ64SNWHpdZLAkfljeEGTGvk+S7h5YyYupiP9jtHUCRZ6v/AAI4LP5Y3Lvyfw9ug4/kBan/AGPlX8iS4u5sp6yItDfQYuWlw9SHo9I2v/GY7X/ZAhPYXvnCM0T0opZ5t/wztMj/ADGmhfUb+XWh0iP/ABs+N2gd2h5v/Jk7R7q6gMDw+RTSfYhxJaNfzqWAPwMt11dlBJdMQrezTv7LEO1HbMXnoIfJIB9osfAPvawZkfAML9PRgWd/nUaTP2DkfiW37BiXkuR+QRCmDLg9bdgJEfJbU9HWx5+gZkW9R666vS/7LEXr+mVd3a+tn7Mx/CVrwlekcCh6cv8A5Es+x1indgEeG5u7BmQtzLvJ6nVtfIn8kwyQPLdge5eBO2JUuQnpb3yX+QxjWsnPy2wj5aesm9SMhkB8hdyfF+WG+Sw8kPknku1S2weS6dR+NsOoM6LptWhJDSUNujC6+F+JD9Jktl2eRGrvCerCdXr1Y+ask0rMp1nVrbD5d4bSjCbDPsB9kXpjcZ/WU9R+/V/SeFIkifMbF9gScOjDPsomrravdi3sCLHcPDGA+2Dy7+zhFrdM11ggbCZMB/YQgC9Ry/4A3joi+R/pfcENixbkyPfLqQnuyPELws4eECyRZNswD8TYjP8AgGWPvdhsbeRyBnjjd/VYMPG6Ut9MJQbPr9ZD8lJ1w496SxoEPLPwDmeGYDCPYsfkg+TAsfuX/wB7Qi+rFANZ6d7v/wBUC69GB/JjCCdu7YYl+D264vwlgon98jpI8CL4PrRWKCxE24vwUe5dRppfgjCR8lIl/aBuzNYN1eR+UaIOHU1iweQmiIjqBLHkfhJDyAt+K2+Wfyz+QG7H5ZPkH8v5RNzIYP5YswQGeTdfkl9LL5ZV6gwBlho3Sw6wGWH5B+OPMNj+r+UH8sPyJ82bCwYIdIDCwbI9kG5GnGcZl3chAyQYIRyHUEcnhYu7HeMh/icLLyVePL2xGt9snM4QLCxnolqwcmR7gxBBd8Qs4zjP85Zb85yCb2s65wf8ttveBPAMT6f483mOGfLtCx/0ELrHYWc4C8R/wnTHty2T1DzgLFtS1hATbBKHN4ywljr+pe565XCHeDOMsyRi8F9ssZoZeXGTeGPtl8g7nyOzYOffHyIsk88Y8NrXOeWcHYLOC8ZDlkhjd+ZHs+t4jq3jHRupnl8unDLqSJ1IybxYyera6PG8Bt6n0TG2T2Q1bIkODx5eNmx6h3wzhMeLyu4nLzDt4Lwuredm2CzhOPJve9vHXG8S3Idn29zhdWXiHUxw+N65OFKfLOPYIkfI8i3ufJjGbfhe08Bb1b7jlt6ZLRHHyQuOTeuX2IW89Wa4Mus4YQdWcdx2Drh4XaPUcZN3XLw8EQHPnLwRd2bOZAFySQ6fkZPdnG8l1FnHhni27xvfHYZHhetheTvYvDluS3ZR/hEejjzFupKvrxk53DIQ3qBm2/ONn1L/ACp4Is4fIm2Q8JCeCP8AHovK8bd/463jY/wziBds2P2zYtIRwhy3uKM67t4GZ6W8vssT6l3DxnCU/wAb28/46EerYeFcZ7RONt2WEww8TeduheJctvby3v2+zD1bezvA23s4OlqF3y8HXGsywn7H2DvjGR4Zw2EQ285Al1Nt5K5Y3j4R/pbxeTnbze2OrIst9rePJZzqY5b0i2LYim2AmzZB0smR7uktvMNBwPHV8HjZvdgEZdW4y7cFMhP20uv2P6sdd3VpOfth9XR4C2zhizhOS+cvDo+yj5sraJUb0tFmW+DXhCHrD6OgfYjox0CXC1ZlmIW7X4uKD4dx6i9bCLREHs6l0Wvy1E3hjhmzYxj2DZs8T2Y/S6LN/WBYMv6X9rEH7E9R3WYMvUwYP7bQE/Cx9QP27Pb+lk+yGCBafbQ+yJbmWM9j9JD7bR5ZuLS0/bD8nfytD6WP2/twhmCRGYF0MY8IP6R+kQOWz2aygwn2DcHrgespPTYNhgnTxeFj9um7Ttj94vaTAzAIp3GGfbBYdixYgHyz7kBGzJ+psD5aXjbp1IHcQ+SfkF9LSeTKyGZ3tfwnuS8iObL5dh8Qb7cUvtn7mWJwbvn9JAR6jFt7o621EiPcZc93HspPf+S2JifbX/fV+SbmhndPzxwisEFF/kjLIL/8D/sHpPifLXDDeoTMp89gS392xlkZlplvVPho/wDxkJt6aFjzSy6ICQ4/hHW6/InIAkIBkWCxY3yy2bM0AOiN9s5dfktLOsGQQLZgWIQt62J+kCz1YZA3fkeHdgYsn42SLJP3hmMWq4jH21u7az26fbvByPdn+m3Yzqt/s4e27Fuy5P4ba+3r1ur2/rA/YAex/d/3Do2w/b/viB1QHrdDG0v7bG3j26vY8hbszR9hxjXLJyAH2HN0Soh72gP+sQmWIgMmBDjGKS+dd3RAnKDOEMFJEO4iandiPwv4Xb6gi5AmJro7k1NEB9u+vsH9LHXViGZ3Ofl1j1AFiZ3yT+WEELslgJdTDzSfOrHbR4zLvxvEYp0FP4TktYmRcHafyEyVv0DeyIPdn+DkxDF1yR7OWn+DqIzfuGv/ACQE1SBDqB+P7Ppb+6+uaXz+SnndNPrdPgWGWb4/SWa4/f0QHpeP0vxn0iF6ck+6T/xmL6dD9WWA938DEAy6ALwX7/4MMzcexnGW2zN6Ye7tgCX2R+xviJ/HeDzb1wurobLxiN98C30TReuBtgZ7Ar/22o/VPOBm6BdDjLYgbd+7f8RybcLZmQtjuyxBpxt4vBs+kPA7HDkIJ8i0ht4YB6NP/INv3t/04OsJr1Be7+0ejg/sPdvOrRsd2cJPZsBAL6j/APLuHq7/AOcHol1l3DhvS7ii6nhufxDa2IJYD/22+4K3kuxiT8uh3MVahJ/CIjINaUbrSg+0t6MvSOHJARa22ou9cHp/yIg9ewgW3YsYR4erTdfmt+k8gGH7fN9W6uiJrhttXL1OYhXYFJqzrkBJZOo8YZizvg/2cjZ94kN2pSDEuhb1iyDegovykN0+nsFdv/Rhw7If/XIxO/sqwI9D4xQfxF1SZg74axOY6H/ZpV63Z0cDo6igidALsVP5GjDqUZk+0wzdJB6/PpZzWI7LtMD5EOl/3j5Zv5JmPoT6eEU/pHjI0J7pA1LtPAJeJMLLD5hhBTPT8mnbZdRRirqcpe8NH1MJHQ/MnleuPH2JyKuB2rLb+/UCugaRg/8AIdwFpHruKvadBvXqXzB/47C7/wBBg3/AMwCwEnoO7Qoa5p0ifaPzeW8Ch93cRdPgPyUNt39zwC3vZGTn1H1nDnB6nYQqD/rDrMYhny9rR9gP3h6Fga//ACRqPAPH/SZh3xLskdEQ+N4LZWJ/+WQysU9S9SZ/44MoP1ncKRUPBj5CcESe6iMHWl/+zFO1uqfcgQ7Hf/lg25HkgFXo7b67MOlZmgrjEMsYjX8wB/x97lw1iA/JGH8f/wCW9/6jdVET9LeTPefk9QzN9Q5/1v4407bJKF8OexSDEZKjP9oS/HrifRlcwJ2hX7tz7Y2X0D9XLD0f8I2BOfr8IkiDoZjGpodDemVhY2iLBna1e7tCNl1cC64x7vOwxCdBJwIen6z++jk9wJreAcfCfYuv/WHf2f0ZCdh6olAIFUqHj46v/CVCQePtjhKBzxGXKvsu3/RNvBbGcHPy+V1l7dmft7Efpd9H/wA2VhhVD7rMv4ktoXkc62TWQIX+J4ySvVTpWUYE4h0DBcFP9DLZZ3X/ANtD362UCC7ghBKq97hXU6ZbyegPkfaiBfQEICYUabIZAAHk2pPX/UTFnQSQu/En3naAsP5wh0PwE+iep/2L2NQQlgDhgp/hXrqPBz2j1/K/kB9ADP1yPd27Y4A6EL5KP/pP41qEpH4sTpmnRr9WfE6zsH6T7fiux5Gd2WpPljsCZnYwML0BxF0ZD/5LidNZuP7sDCXuHk9wkgOYzruN26EIfHu8EAIil6PWMG0fGfCvMZw/eIYr+w+QPH9i7esv4vCB03UHQNjSXVuWIb2yfH/+LBfO0kEJr0NxCA1+PCSjY4FDU+CZKcVg+T5sij6S2ewS9Q3ECXMxf1l36maLuRpNGY/rf/Mu8rtU+bCN31+jF1uFdciOtgZs7Oln2EHTyDRy8NAYxDzH/oM6g9FY12mf9Z0LvuHxIfxrOm6/Pqz9uA2fSCZmZKB7C/ID/wBGNf8A21kUHY1f9nxTeDxyN6ZCRMF6/wD1WEnf/oMI6XcXky9G0PYg39vwmjZWr6kB4Dt/pCF6F/o3JRhD/wBSn3GmsAtEOV276sHh82S6Hzft1x4y/wD3EI86YOE6jL/lklrh2j3q6/ELszmwPP8Ayzv3n9ywAcBgHmXWIDQ/bTCZHPsSI+YWEOh4N2I/+j+zmuY/9Jv9fX9uvtieWnowDbj76kxPgP8A9g7zjLf5EvpPj48ei0aW/wD6AZgndEL7x0f8IR+BN7MWOg8//wBE+ROD50zg0fr/AJGzgD/oIv2V/wDkXX73v4RtWhuvIjIA7Q0kJBQ/3OAyV0vfB/jJf8nB/hZEewbonyN3yEZWluDNZEImiYyzFe0mwgHx9gSh4BbNNIf+l3bjfl25kiZ69v8AZkfmM/8AS6l7FOn7pJKYNM0YSQkEhHv4xVb5aRgJ6hAA5pgjxA08Y+8e5P7A1L2gjyPO0R/0nqXmkm56WH7g1tn2rC8VK2f9vPHR/wDZoUPd9wuwn6v1gjekrHu7ckpvoP4wysafHclp0t/flot1P+hBBwGfxydTtN/hJbFoZPY+wV4GBw3u7j/sb+9Sc/wxCjoGhLueHcd5S6hD6S//AATHF2ejGUP4XqnhZ+eI3kfkf5kdZA1mZ2GT4YMiHpzmLwmD8RPQnf8A6LWvVCXk1E4dVl7hskTfPMtky1Z/ZY8bIvDYB9bMWadjVfE1frdOAbJ8uusbpEPHdfsYl5bPsELPBHQAtM+lZLBe5shvv/xuyh/qLWwW/wDkikiTM/jdSYKelDP/AG9YfAI9nrE/tsEWMO+nEdEBXX6/rY9pf/sWATj5dv7t6k+ARf8AtsmNn8hVHkPkwLb39RHOwfU2YTmfxvGWk+fxTKCMcougwP8A0xMnjDpSX9IX/he0c/8A1NB16EsS74qRzoHtUKn0LIlhu8CAMK+uWi6p/wDhFKE6y8bhj+2ciUMsnCX/AJ7Gh37MYCB+9x/uQ1n1Q3Zb03wM2LDAwIn9SqKpke3sE31l7GE1RMgiQHQX263VX2C3+TO4pjFBm7BGkYThv/bbhAs87dgg66Gf3EtOt7gRE9876fkjWB+RrNtlfQbI3eT6sMyAEr8bPzt/gZRPx1zNkMepA6zs8th5njqabMj8Fv28fPxkGtWoYFh/KPJP25v/AEkusj4Tt4z2bdiyJm23kht4+wz/AItZPGWGakUywsJHUaaIJAbZfX/pEMAfwLFwH5D/ANNkAYRAkQR4BMlBwN6j8QTYZ/8AAI5PUPTiQEutB0yBjE5+WQy1inuOR4cDwl5m9Sc0635BCvLGWv4+QwwiX0u3NvQvGWtJFlnAIXYmcukxJJ79/Vva3QusuzXYWpbgk08vl4FkZwdgttCDD/8AbQ2ezAlGKMjeONP9Z8o51m7OGvCrd/CGOpPPDGg4sKRgAB+BLMmHUx4MYhPe7fyzsx4JioYAb7L93/fIcR2NdCTJ2j7sH/un9hi6F9h4ps/tjV517GMWL1PspDqI4cZITwOkeTn3+wJ53bPYnbPeeXWTsBF6qf5dRQay7wsojepeAB2/6Q0xGZj1e9X5GPnur+s2FsI8YGMSXN9NkfG0+34yxIPfV+SExh5Pebaq/RGWm/7M7fiy1jm9gJ8fUJ/Ju5rlGIi2XeQgzRdH0idxfOxJ6968W02tb9mGI0/s/luo9wPvrJDgfL6L/qUM37dJ3biAwX2XloQ/BmcH16tmMQ/+yiPzGf8A/ABaQjME/sB1M86X0SNuyB+Wfy3AD4+3XXxfC7ttPlk+WlhAWPyzR/wbKBv8ZLZseQrrUndsLD8jtMMkLD8sfCJrq69Wuc5fYOGCznOd5PNnPtO7ye2iD5P+PiCzjy82CWXeJYaXSdz/AIMoeuAn8upy+2cHHDgGR1l0WTkR7uqIBqA/wIAgx0P/AIX5ZDnRB7ZAC7sGRCPyyaMh+XWMs56BLw4sflh48Ou7t44ERdl7s4RAIaIGywsIdFrGwAWcBkWdg/ukAAAPwgk4Hfu6MiThuJ9Eiertj2kMWv68JvkCEOuJILCABbxHkH6lgAcHtZdyCC9LLdLFMsYdcLtvUqhB6Q/8jdWxxrfbLOOvCFllk+LtPB26R9NvCHDAnvqDCbWM3e/42Y4bZbbWJe45fSJy3yfaGPneH12Ho4ZZeZeXGzPtx6iIdN78LO7B3eIYHASXQh04+W8R52wy1qMyTj2Jm8WzHTbvPA3t5hkWT0z4wdcHkcZ7jOCj+9j/AMgWfUh2XQLILCUxlhm8Z1J03p4A2Ylv1/geM+kyRe8OrIJJuziZM7eUHkkWkNd34ZFnV0fGIXfG+u7YItiXafvBb3abYzCHJMO3ZOkn32daybNkX26cXyOD1AyHgniOSvDIznrysoNl9supLn7H+s4/84OX28nFvHyznDsMYHxDbdg/2OW+J9W2tsot4ciRq6ck7mUXRF1xm68tnPuJ9t6llRy3eC7G8zZGW+rz/jxd4e2ylnZjpBZZeTc6IntH6Yx+OO7t4h0XWXWzeSCFvHc+MMYmCY4v+Pi21eF2vH+MGO4Ry+XU9QdHOSR8Db1xuWzs8l42xtNQYTjC9IYNrLxl5XQ4+zwdDODeXzHRN3lk04Q8oe7xy2MurxdC27jjFOEiPX+T1zm2R/g/xkOox0Qdzbv/AFXuYOp/JcbCB6LSbwP5DgmidP6WLLqxY8/CDDZgGAEjjyhekQX9b+1lvc5SNX9rT7ItGJQyP6lgSu/IyZPHcc9Ze1sW5/rPkty8HAy4H1bnGSyPthhtxjuzuRHDLBb0Q7dRdJ4R3YRLptLbb5bN0q2sJd8W8mHjHXbzbGBdWdPI2227DltvF4m6CDubO4cMnbeMY2wOBw22fTeG+zi2cvC76hLS28QhOAP2xBmOiy9gcBsL1f3j9rOEFkEBNH6xSCMdsWm6OLtLPXcUE9eAWuP9bFlkvJPnPmK82DeHn7GAQ/DqwZGRLaRJBn/2v4in9OADBf8Aw+v5d371n68WCAydqdcuBbHvH/u3+zSMP0v739YB9vqR+13e3f7GtkLGZu2EevfHhMpIPs5W1HnkQ/lEJgR0WhAeltOLEdW/yO3k/wA2sIIc9orOx4dOBBd7MZ4SBiAZZ4MBxZkRujvJaLliwT5JDyBG3yKf4tveT+YZ+Xfwafk467Q5cTJAOof5a2b/ACcXq3EJ8t5fwtM6vSnT5deuL8F9ChfEno2T1OR7o/nOXliuEvKT+UqHUOOyLYJP7dPncJ7ekepM97HPV/SBvbPW7H1brjP7dcGf3gEl4kAjD4I/SG/Z6DYXizv7bPG2/eJ1v5b/AK4GZLDocSIMAQO1hYg2IFjL2xI/ZMZRyP8Ah4eOrOe+Mj1PE/gv/wAJPtsIycJGN2uoZcgN5T/83mFTdnDD7B/1b5JdMFv+iKj47/wp4/x4ZureHh4f8uoh0us4Rjj4oX2RxeqP5Z1GZs5Ysi4YElhEFsSX8L5ZfyLQy9GQeLCCIY4RNsIFtJnyE65Bnki6skxY6gweZF3iCJkHZJ8jPMkw9RGDfyv52XhAufiJhYfkekBLD8s/HFkgxA/LHDrH/ke5/wAQF/4SDwkJIk3qwS6nD49Tdbfdye+wlrvbMZsyIcY7C3ueQ6S7N4c42O2SWksu2Q5Lt87rNbrL5xozILO+MZHq6nqe2QjTzl5wEy3l9nojyDheDzyW8N9/wROA574bGPTL/wCRRH68i/KV/wDiUN+v4JYr8F+MKbessCHS3ktQ/YD/AI2e3buHZAo7YEQJCOAasm9/omzZAjDEOP0ZKtEGGUgvDuXWTptT3NNvRbbAKP8ApOFkTH+H7bwJeSyL/wBuynBkb+25mP5H4GPP+t+Ayv8A3wvjHu3rItgLmwE7hZ6XXAIy434+xAPSdSzLIwCEFHzGDdPG2Csx2y6P5LjkZtGAvJW8bpeGsR2GayJeX0ggwbx4OXULZ74UwFvG293clLSXh9k7Ym1Dq22+S6Yuw/xgeBmWMRC6TdnqG3L2RbjbsPeLZ2CgcdCCyRhHgcJdnWh0WyjpOvq2IZZHe0ZeG8XWAkwZjiAk9Qu+OkWnByYqZPq6ZTixnG//AMPdjxt3x4umZZd6D/8AI39GTZDfS/8Apb/AktQHdbOPf7jI5gTB+8/+IHbpnd0L07K38ur2FIv+CGbj9bLHNYz3gb/WfjaOrGrB/wBX8SS2+cARabno0syMzx/2bHO574R76b2sYPxG5anyJspjqfxP2yEYdtfZDd7a+pCrZCuTTxOmOwGXNgfLwW5D3LZn6YH/AFjgz+nzbqF63UP7sSVI+6fLulieZNfndY+6H9lDVAF9pl3R3qS8+Lq82OrtP+SQ+K+nuFoP2j/yAp36/kaenUO9JyNbue0FM4rVpvyLRVw9WE8EwfqT+3jrttgMm9w984ZPFvksGcHG8xPGHot6nMYWX2J4pdSw2y2g2UWB5dSyQZaDqXFbXaYy042cxkbBttN/xR4fE2LDbd4e5HFbbIJ6xiw3kvIGtuSeImO2NsYtY0jqBJnbicNjupLY4LDbo4E7EsScXhiFt6nH1wJb3PSHhvUvUE+pf42OPkTzvDyM+4jLRofg8layugMIRvb0lwh46/uyPzZAt1DL13tyBuBgFi3waQADwPLFj9mEP7BIbHteOz/7dVrG6v8A0zs/C/8ApERM345P2c7IAPgAn8Dl/wCnIO8zx8orqh5oh1z2g/Flp/7M/Y9fxd8kZgf+ZMj9X/xa55Pl4Zg2f3Y7nDuHZ3p8SevZI7HY5jH/AAyGtBd/rPT2GS9S7ZDp6P8A8jr9s/8AAtvFyFP2tHLaqSdnSn7Hycf3B/8AYQ2HWvuHb/6WBzwScUduMhL8r84wzQnAv+LAY6kPzInYrpeBBMpax8nnF9T7sEosMHfi2G26vGXcYQtlH1y3qXUstthlNjGARttJnpbDkYW2xCuoLodtvBem9MS8H7Zk1eGbpLY/swYnW22kAoOpn2WJpPBK0l5OPp5K6JbuTe77PWR0ui2Bbt5MYnVipwkMMzhiLkLKJfA3JYdZQlseTOsh7ljrcGW0pDLq3G2NkPdvGy28n+u7AjY/P6Lejn76zAUgQLYzhrbGNQ6+yoVvbarDZ+RXbr9iRrvpYdfiCP6kzAQlCD/53brQv/q3ekvf0Wa7PT74GSdGX/fIxmEEb0gz/DpH/wBsW9vib2A/9GWhpIJZu3X/APIQzt1Mbta/9tO8hTh5sn5dxQYkAIjdPhZHSfP2do0ZlmDD4SEep97IjwMmlBqSxF/1fWc6R9Bwmf4C+L7pr0MQVuVZeIFkl0B1+O+yfdfX5aMg4tB2lddmvbeZ31BmM3coMKJSRn82e4vnbo+3cnVjZPtqIU9NoPpAkbgfsmaPo2DCdXYNmWHTbpd3gSA9vhsA3T7PHtkyGeJn9ltiFdn9r+/BnfY0R8G24fbp8QDIgjbts7f7OeoB4kntun3gQ7kZp/XJ7gL/ACQIR5dHDiyljsjQSQHl2fGd4n8FgLIdTpzLD5dsZ82o6cj+JW+XQin5JsgdFvvL+UF6mvpAOi/utvCc+oKxN9ewe26OmcP85LtBe7xaV39szdnAt7sHlsC2HgkIFo+QQis8kAxxHS8ZeN5JeDP9t7vFkTHFen/CcGR1wwKXcLP2bJITVP8A/rI/2uZILOcBdSbYTYAg7jYXUlx0/jMPstX/ANj06h0dWR5A/LO7BAZY/C3n8OAF6Shw1fCAEnWeRAe9QLob+5bexOtsGlt0vVh4ZxzNhSxQ8QwoRZOOpWa1dT9tOr4Jy+wz7wO2X+xk9nX2XvrOCbb82W2f2AeMA9n/AG/6Yx9sZ0toXTY/Wx+yxBLddeBtqzhZgZ2EIMr7ZnUYmCDwASX1h1s/JC3L5pZLBi+uT+Nq4+TPRIZ5P8XV2cP8JAeu5C7wfgt86s/kgzkE+cX8i/jbCQPiwkPwgfln8IKB+Wd+WFn8ji7BIfkB+cb/AC2nZZZhPsjDqxs/wc5zOB64RsJBu4bZxloifRl0/wCd422OX7DwNt6Ly40mULn+WIZn+Pc+nDx5u/8A0TQh1ZwOm7OGy94fmy6tLYEXIsm6tOLSL5eLqrLD84eyzKdQ9RvHsvCILo3gXR3EgcDtHl4ZqOHyyDPUTk2cegWuXsvM6juzLtthrCSzjy/wG3QI9P8AHtMbOrEsyzSDXEl9jJdF0E9nOaMfUgngGx8Q8ntJ1ZbKJjyR7X7bydLwWdFk5ZpAF0hvePEOuCyEN7RfWJLpPSP8HEJ8482Icsf53jIs4Xjek+vGz2cgAJ94fIQJifbwuohtJ/Y9omAAW8PkDV1we8L4h64YbtPHG8dJrg648NvbYZYbV/iG23hQuRvGXTxHTg8Z3Jiyzgi5Nt9hTLqzj4h0cA2SzjyOptzbGv8AsR+8YZP1HHyNi5PBZGPA1TO4m1b1D34Xn4vKOTgwTY3LeSfmOhx84/a6/wAWn+OtWQdWRdS8Q/4RTsHfObEszILJ8eA4JbzeLbNLL5Z7t528EHLyzY6m7u8t5OdhieGTIR+3AmREZE6z2B+2lkm8aSy0beOdyXjkHh8vXG2nCHchuufZeOdvtPq3ldTjWzJ/snUu3G326nH047tLxdSGbeb11bfJ9vd5Sydp5wx3LcLwTvO95Lp/h8bSuNsmVPOPeMhXkurremVoUQtnvnSE5BN8y0XyLcn1tvvjCQ46C6snrI7mTwgt4yBuZW+QQ8hg43hipNpCSvBx/bbsNqDaw9cHr+X4cLPZzZ8u7rz84rruY4y8t43/ABt9/wAN3F125mz7ZTQ6tEpOEyQ4doze8kaX+SRtmiP4QravZjbr8sQJNmBzzhnZKxMsnF0ez+sv1CDWP14sSAYBisWYEGro3bQ9gP239TMRPq8ttJEXVploWl54DKSz3b3DwJ+28Ipwd25fE+kuxkiTR1eNvXD3pPv/ACaeXl9u46RdHG5KS1z6tIdjC2HvaWax8Wl7LCThYsdT17gzgRaJ7D/YFwfsDPSxD+po6Yh3dHt/SGcGyG7CDdhp4DL7A5kAOHH7wi+tgbt/a6fcOQR7MYMCDeIF1Ow64kOssPHbpsyLi/A4+oWf5v8AnjsXw4ODyxg/3nHcS3QXktmy2TzPLbG8A+qQbFmTAXks46yzPFgWlh8gXO8CIFu+RpmR+F/KYU9IDhYrMCZxzCAWJ/uerIrYW/7bD2VCcQg6gUt9v7RHLKx6LGzWwQIMZDtn7u44wfWw4l69yXrGrkObfovctUm/leZT5anAOJYZtiMR16spm3VmGAh2tmqNB3LJ92/qypNB3AMNk+G7e3gPYTdbf2n4tl7P7xp7v6x6zt9s326Eg6hD54YmsiJs6e2zh08bbIx27fWB+x/Vsi9HYHVj9gm8BGZA3Lq6s5Av7wCGI58ZBOufzs/k+uRgkZ1NloFi1LF+3E0BnUBhtJkwA8s3uRwTAIheeFyI/wAHHcdT8h48tm85dIe+DyXV4njq2R3oQ9x75AYyCx8XQnq28p9JG22yAkTDfdjD2fccDfL1jhscXjYtOPMbOOpmXdu/3lh1nA461vCEB3bs9HLxHU9kLJjjuTh27UOEy0egJVAf+MeFvJyASEHrj3y3nf8AD42+9stnLuIhFD3YT48F8n13fYCCyPb1j1PBwdd3AZ3N8vgYOr5dHA73YsL/ALEpPuC3OC8Lz4zj1loR2RoTwWLORZwOuY+8MbwS3WdSXQeZtzjyXlZIzHQ8GDEwZeT/AAH+i0sn/SuMcl2u87jLuIGG2JWdy0DcZLTg/guSAZwueBKBc+gdX9wPLcL1Z+B2wz/5JIwrB63JP/q/hJhv1MJmPUDPYbf1u/Y6QegEHV5xnlvP4bZwAeoeXTfd4Cv+rxktGYvAemPKm/8AYxnDBIzWMRjx+Rd7fZbc9vt/ITUPG8H7oTWJlw/tm6XOc41z9ZXjy9e3rLe8hy7umsJ6I2ChtMvncIqd+PWQWYy+gD+sjoeOuAuiNg8vr0o/ja3ns2JTO0IRNLYe58eLrV095LxxhY/8nZd+MOezA84Ij3jh1/huyh4YjgnpbMtvVoxxllncOI+W9cZwMF0ENuW25PWiWZvUty6Qt48WtbXln3l4sH7Bj7el4nN749cPcj0ieB3t05BLbyTNjv8AztscHLyycEdBCyhD5bhwcHD6k7koe3peyTeolJoOn/wTqen5pFE8A/8AbPr/AOgc27UfyH679gz998IuvDqOmG6n/kF7wCTR0ewE+uj+jaBC3P4QTu4FKj3L/wCIAYHV0pOhGePZsfEnsF3/AIYOGDwmPIkLEn/LIZBeJvFYWcSBub03/TUSN5gNWCLAN+OW+mbpmr8//mK+neE/vnyS8jl1BxNhxpjbz2djoH3xYYDAPS//AAu0LaUlB/08Zj0O35ML1G6/t7i8H+s600U3ompfo4lTmHfcyik4zf1DDIJf8nlkfuk/t0rUqjAehjcdWQ0LL5Pg4c9OaZ1APsTj+rLw49QSxXqf1AQj6HrE0k+PtknVpxhk44zwAPc1Ki875l0ZpvFnckNaZyfZO7oLrg7k6b0sberdsy9mww/x7R64G2Gc3G5ZsdSy0C84/ZTLS0x5IPXAnkHQhzj1PqfdpaWzF3D0WxWESlillcGlnZdc9ovWHGW6OD4Aj/BHLFm8Zy8RlfHFfhBw45rFjyREdt0vh7EAenucg+DDih4Mvyz/AIk6rSTQwPVnJ0cH/Lyd8ZiZndMuDdKAJ6WbP7qTC/M3UHfpMX7/APs2m/0YdZ4A/b7WXYb7A3tgFhO/gSgPvkxT1M/63qUBv5ED1/zufJY/ScxqeXsU7i0G/wDYkfOyRJx7iZlu0scAAwdpC+GT+M55TEml+CCFScQgFrPNnuIv2Pcfu0DjDsCAYS4SC3zAl1rqI7egy+dSJle/a2zb9S8ChKcz4D/8kC/mS6Cl/XZP9Hp/6z/b3WSBkuE96g9W0Q95T6OyOn3/AMP5JlvqJuWibLa7q39Ixh+ELcN3ZdvRLxcaf9ZLwrAPJzbL5JiNwKE76lbd+suih3jbtCz/APbCwuzf7F7C8/G6GGpsH9L2ImGUB1bnVvB9T640hm9uGGXZjbnOH3vN8u5jdnaPLv8Aw6ncbdZwkcWze/LtfDKQJ3BhCW8It2/NsZe+O47jwthtLxLWc/bYzOUODGyk5kjW0/ZTruEtJ9GT68F1n+d/1vL9kcR4XUFhHNXaBfbIGr1mGCwptGz0mTItRtn10kBQPMJAI09WwyX6vVj9M8OgLMSAAXUjaOAXXLobVn0G84B/XUvt/wD13Vh1YCNYurNZx3Rpjk+u7ZtGHxSPS/gxhJn9jBPssZthHDuy+2fq0562KHGSrujHxW17kJgwkaBpJyP51H45dnRB7pCvkn+qH8JJn/FPloE7O7OSPwXx3+WtAvTk1rkxRmWbbB22mK6Tf1j8o7LNXPp+mVjjpjAdCe3LF8kDuRg4Rg8v+bD8gd8PLDb1M2OgNeuMY/BLWp6P45JrYr5Daq+HRbT1O0ITQCmhM9EyZW8/YO+v+RLgN7c62bwj2Tv9yTYV0WAmSJOxSf8APT/5KwOmLU3O4ERHX/MiZ0uxOh1L+Tj5be4/2tQZiem31NQT8nBMmFuiYVbnV0bjOx1AHl9clHonCLHZIHRxPDqFJp7zv8tbcs/kaeWPeS75OO46QFszdm+7JY9S/HIPR2F+l/a9JIw4di9vGIEF4x9ZmwL1v6zb7BHd/e/tFLz213u3+2/2E+wDG2Hh3Pyv7SB7Ky2fb+kwP+2t94jA5Szh/wA9/wCG26MOnGzay84ONvF3UXnzFVg8OUesgD5xhLzHDnB3zHu9XX5bHD3iCct4QOGICF5LbYboMe2Ayw4wj3l8syywurpsSU4xvkLrXcOjy70JkCAMGmLOrD8sPydPIK6gny/hdXl0hlkYdRCncvywd07nwsIYII8zbpiOmRHiMrGWF3QCgxsYIWIM/FYX11ZOlpEtguhEGSPywySybAy5GEBA9ywslxv8m2GZQF3Zl1eLzuturctt6kbUu1vUTOA42SjLTbNtvZdk4CTPAr5G7bx0FjJh2y6jeudRh27N+QTw+Xpz9s2+boIy23P8NnLYxyTeN4WPBeZGQ8Ze13e/tsNsvCecZHnFdOcj3vPLs5Ptwf4zwlvkTAIdbBZHX28Pc8ttYttb5J9s9ZdXbMgj2XxajHnGajL3uYFuhddiM3hxB1My+W5Mib9ZX63vkQhGruR3YwNvE8BHFeLctthtvBncm5d7OXheL3hLfmJxzlDhHyeAXjEXbx34zfI0wujtmOF2FrC7g26z6kx/kxx5WQcdE+mxwkZNlg43uZOr1wYhy1seHG29Xhvpbb+wM4Pu8oOdl4bbYnneWDNYQ8+J9FmW23huyg43vgscdPsMuS0I8t4lxiNs2B2y/n+GecHB0vBz9Z4SjjZ8Z7BMt47luIIHYtyWpDnBzeQgmybqf2HIjn26jtYxNljLN0bqBnDMQ404Myzjdy6nLxtJ6rtla5bPHYtIZ2GC6C7i2fGOa/tvU+SQ6ScZaP8AxOOLfb8sYG2nUNmu3juBeWnG4R0sAi3LeJdfDbBurxnBtu1sxVmbYsXnDbHsssW22xw2jGIvlstL3wx7LLsh04Y//hNed4fGeqfnxhTSvpY/LX5dLSPGMbNmxYhF/kxO/SztpNbZFhs/taHsAizriH7IsSl7sJb2WzBi7HOkuiOgbY8m9I87M1qLYbbtu3qXd8s64jpES7f3l0RPnGyvlfOO+D3eRwu3nCJe9lfIblnJYi9Wcb5bMHTDLvue0RFMy+Q8LpYwMk6ttvaeaFsvUMdRTG8YqW8PL4R+nDBGurJrq2IyfRHhx2szske3Gtk2fUjjst2HTw13hbMk5heECk9pDstpwsTuPIe5bYdXudjhXzeEN1we8Nj/AIyOc4Zh5dHy6flhZMtBBzixHBICaxZiDiH+iZ4U7t1LQ3b/AKh/tv8AZCZ8vyWx+39L+0aMY9MZ2wmRKDNNhhx5ZbqOokEmmniA8I0B7hDTe5YbfysjGCWHMPS3tgsyDVnlqekYulmgSEMsmttZt+bB+Tb3MBf04v7Tk9zPY6Ncj9OaHUHfeLB94kO9gz+10QwsJAe2jI/liLZ+yD3wE8TQDRZsFp9t8bYz3Zwb+kgL9XGiD3BXu782f2lFkKvd/Sf3v639Ye/eI4elg7n4s06YIGMHqHO7jGGhLZ/YnD7Iygxj7NYN8nCA94AfkPZG+WwbI2b14wnzu3LM8n+ID1T/ADLhhJhgviEO1CfI/lOmRQcLCKMw+Q/FTh1YPLbhDPkqePytvIj8lSY4Dn7/AIOQ/wBN9R8tOPJeXkjJniVmaL3LBtAjt4TMHx28cDE/IR4YuRW8LBR+BkkcCdHAc63dPpwxPrebJJiYN5ONN8vYaR/SGpm9uWAAQfyDPI3U9Cf9tDh7WqE+X8SGF/LqW8I+5aBNYvhegmxYzj3b7DeziCZrexPAm/2W948k/pHqy9M0L6QbGSQEcSV4gZ3Az7Y/bu+2f2HTswn9LEnJFoc/baCeWbK2Yb1fn5wHR7Y92MHfY/Fp7HKfSh+QDruSO0TuTnbz9SzdF5J67vhvSQ3CBM2cW5qd2PzqOnDu9sCBXqfoR+F/OPzNgDsV3PV/FA+BETOPI/KfkRp5fxgdcjq6v4J8cgfC+BD8WD5D8WEl+GB+WPyz+R/EAuoEsfl/Kx+QfhAx1AYdRn5AbIRAj/LAeWH5YWG+QL4cbe3Vn+nq+ck3iF63wizhdluEco4H0jwG/wDfdDYBDt6kIEtS6d+06ujtKDbZ9GdF5YlEiJZeJ/J/5LD2bepPoY8Qd/HYDgZzLXb8Fsxkz4luch6cGsNPCRHVyXI8xvSI0eC66ywodiXUv49g37eizOZ/YNUlHAC7+Wz/AIYTHtt9E+58jTydJZ2doT/yLIjtW0/aVJ6l1kek8E9e2bFa5kv6x6jjI9rKNiMOHmMu+l+Z7fXn8Lo484iyyB11CdvgzNhNuul0yW+LO4tI5yJTwg1ssj/8xd2/Q3/749OMvfAxTPtEvzj7x6E2Z7E5mj4wQ1HiC63hO0c0/WzqzvhsohsmTM7nAI/NYdDkvvAnfGWcJjF1w+MMPHkzlJfOrOHvjLOrzeWAgJvt3F1Ef/wfOWzqMsCb4wQ5XGQ5Prgtyenc1nRA/wDI1Hp0feFBZq9E/ep+ny/8SIk/kyr+iLXIQyYiZqvHdgJi3jYl8fobc7JwWS6yZBFRaoCvwsp77kTw9Swh6hsSv1tEPEyN54Tv+THGrur+y58X1jKdPQesjr+w/L8WnbUZ1zkQ/wDILGWcz43dP4kiH3snDusr/YiGYbCfAOxMoOuI8gko3qpx9kOi0h6mH/Wch9NZ3I+rJVrdivKOBm6gEL5ErrQaHXqdiMdx/wDIIp8s9/4YIG3LwLesI4wX5HTiDrb3AdGs6Ze4BHoBrEbPb8yC3Ispo6MENJUWsLv8iSq/w3LAt0lk3YfRBZJCp9Z382DTqb2IxDAZ4dXT9Nh0fyaOoZE19b1/7J2zq7lGf/U/vUk8nLH8M0C6az2IO6D/AKx1I9S04BFWunR/ITc06lyWVqt+s8Db3WRMl6Z6LF7GGQ6/DJ6FyWe7L62uxuR+Qug8iQV78LzphG9cEGd4tjkM+3EQ8aXTm2Hhdn/gaRF2nnB5b3efeOxFLTbxvDnvhLz/ABlrfLeHjxDib3EzIctUsRJj9pb7I1dv5Ek+6z/yK1GPn21s9PT/AMl8yO/0dwDSO7f2yU+NvBsfkOpdQVZB0Q/O5aAO7ncQ5bsn2ewewJhpa60WUADtCIfpDs/sVB7y+j1hIj+iCZ651Eh+eutisgBX8lGhI9tA6ST+DdsAPtnrW3U1NvTDf+TEY/q//YN/auB8AumvPjxPuBh81gB5aBLEYcXZ8mLzkjh17vnGn/2yWFsxM3z3xvUlb4Ah7ETn9BN/xkdH7SS86j++XlPP/axiPqd7yLqgOPxmGwNWNjeh/M+yQTvS7G3S5R/5CgAHbCpe8/KkNl2rX9dXrsu/ySgJc7Hyeiidr83aaZBXW94N/Nb/AMtPqv8A8LuHwHBsMkhd43+bak3x33t1DIrE+7IP7Lv/ALj020Xqv4ye9Ms7Ghn/AE3eP47+TB+7gS8Vf/CJJ1uNgjoXZV3pMMkGJQxbYHeuj+QrczQ/+XZCukE89Rt1JoFkP7kjFez0l7fT+yOyOKPFhLX3DL62YNJkOzR4dvC7ibcMHBFAqDoe79hRv/nHgT0QHLpwsLscZDeMPZ51jYZDFhStuue5Oz0b2t26Ik7bzeCCOpf8nPV1vBwTGLiMpTgG1ILIOzi0w3WOyPyTG7Xmlhftg2NuGO4QBtUH+244HX2SgTyzB0cXp1E5HkgvWyeGbbS0jNkTO92AZrbIjfaOv/2Hr9+sd5XuvBvlJmcHVisde9vgMMzJv2Y2oTTvJCPgLsy16exctz7Pzbf1vQTGB26PJZCVpxDr2mNii9tn9Lf1aWBMkfvAJ13MMrvQCLGsC3HTCbMnkLr9t6id/rBwl89CP/Vtoeo1bYB1xvu2rtr9ZaDuk/8ACMN7C9bHQfkL1+AW7l/YVP7xHrHAf+xprBpXZ2TIHPsZBLNmv9WD8IhJwB7B/wCbG0zBao69U13I+uAsgztjPpvdgut2CRhL71rAT+L/AOvCOud7B+w2xB20h/0iSgR8vw6WzfU//V+09/8A7J757/8ArLxnQ9/2TqCjq0ePw/5bDs71kmKw2zKvbWKCEFYFA7PJPTE91CR+jyMyxu70xW+kj5AcspoHufH0Di8hH7AO7AnHVA/MAkxj87MduumDfpMiQ1r65aMJBP20nt0yZiezCE/ZH7H6QTsQM7Y29v7Wf2NPZD3fsj9r9Fv6jPuEHpJl/UjPZGMgI2wZ/aB+39rUw6IZ4LS+cnDB/j7eG7qL7xl0EellnHUn3Nlll3/xx3w+28EeHIXrfuYsnzhzbCw4Pj8gD4WCX8rGmHF0tJH5ZyAfIEFg23ybUJHTBnRCCGbG0nvKy2Nn3YwzFzZTrYf7bfGMPfLU+hIuGws9v6T+kvO2d8YMv6SjdCBJJbrppv8AUqfY2ejJ9Mm+18E/dvHa3x93Z1omJgrYtANDWNed9bUdlTzwYMKg4HbGWj3r1u3hfn4h+pzFuNLQfvqGLp+sWP8AgumwCH/o4+3rycNuhlef0xt4YHhhKPWXRqGZbnT7dx6bGQDdjJDA4zxlev8ADu3nTDy0AA7fBYFrhB0SMb77FBvyYQId7st0J7DjSdYScwl1e88tX2Qdw/8ANukLs7YL2aAsvx6h0rG4sJDMd3dmJxvcAF3KvuPBjMxZ1h8i9p18H8kWUH2P0x0QK7j9n4MlLm2GYr13P+2V+y67vVs/c3+3ruf9XsR3d3b1nD2x12RB7YN2CfbNhMWM9bDgv+rN/DPf2wN4zsM0YjtYGfX+H/8Ai2VtvDDh9uohr5HiC843N2tk3eW9j7H+PKPORvSEyzg+NinGEnAHBbjLyPIsnSeJzh62WTmcXyzXZ26T7Yepm7G3m7Wcn/0bD0Q4cDLvZQ4PvUgmMGedf8hcvcW8KDLTchkIsbB11IYB37Mu6l2NmX7l0j03jGX8l6GWhtmd2e7wk9ywfawzyxsGnGu3vjPH1LQpEBLkDb1v7AsussskcbxqOPu8cLwlmzA5BYhw64OXa9wcJeSPUvVnOF3ZCsFl5CB/l0g2cZDq6OGZBwSd4b/gmOFt/wB+l7f5biHovJ4Xa7FvGXyz1EHZPHfujwu95TwjeMvx/le8l8ftqXyOuFHjZ7l2lC7tk6vUvBbrGahlhOO4jq23y2PQw0OrI22Trrq0Dq3gtp9Xt7tchOG+84OfPdCzrhvB/iOoAV/I6P8A3jGd20L3qGV1B/JL3I7HngN5g63ls+T3t3j3gm2jOieDy9oZN/nOWZuI5fS8L7LbOYyN5x+XVmx8j0WEthb08EFhMblvI9F1ZJll7f8ADwbnB7z2vg/w8LH+BP8AGce0A+DMn9kp6cYSDlmy/ZC+y68tlM7yP+Y423u8rwTE2maIPGz42VXgeoZgZY40tl2Tcgt4VIb223hdrLuXls8PsjqbHIuoL4RxvUjCLl1wZ7O7qR1nd7wnU+3hMuqXuzuXfDe7bxx5yXcWcZ/hAm8vHhtzxtLlDx4T0Y4H+Pe6m2PSZ0LZx7LPc8GxDnLWQc4+2a8Dd9Q6Zyl5F5cN02dMOInWI2sOchxHAR1LyHRyk9HObZx1I8MhngfODzjdzjP/AOHW27KBW8f+o/uf7sGUnt/aR+39oO62+ZZn26Orcf2eM72f+WavThJR+WV/ColhP99LAz/Vg9KTxcwZAnDLBD3u6ufZB8YEl6u1umP1v6Rp2wN7x4j9Zv4I04eyvs/sQffdmKLCWLEAOsuu0F1lvVpLtfDeTttIhJ23GS7hdU3y9titDF9mVCPcuXsOWl2Pgd4X+cX5bbbf/bbwmOZ04NqDlp3Qyx09lumF43hsca6yQ29SzdSt4Lwt0uuuFn2l0Ptp5xmSncTXV/y3nCBbyX5LHHRYbY49kdjXgLu6TRSQ8OzQLyXfL5PP8npzawSw4o9TnGcn+Tg5b0vXh58o8nOAWXV44ZsR+wJ3MMnLC+4/B/Ww7cUfl6HV16k4TxZ/1sSfT/7aJdzo+sYQdAFn8uqEWx+X5vJZJzDEY8IPt4gfhKf/ACM+J7xBkDZfWR8Uf1EGrbkXxCwxt8Io9jdGW8iJMg7uryYLcRmpGfdThjYAZmSvOiOz3/8Ai0OdnFy7sC8ksdwot+S3xl/xLYyKML6zLPeo7du6zu4v0Isr8j8bLeQO5P4lvuEgeS6aWgzLc9WkPI70WzBjNpfwkfu9/Py0/LQsev8A7j8L5C8DC/JkcuiGnCdXcRLkLMyB89kGbZ1KmJKGReeRtGD7xd3Ifc+A5BhgR0MG8Um+7+2/a9gISL0iD24/ZC9nc9McCJX9KVkw9T+2/JRh6n+C2kn9cHna66j5MzZj4v3I64t5dIS0Jw8sHl/C7DI16Rn0rr+Lo8ujy+EWvON38jXNy99ZGfkDbxOGPc29pdHByf6OPP8AHtelrvL5eGw3SOdG92s4H69srf8A+5ZddS0s4TDbAy4g/I27nYu5t5dREex0lhDLosmw/RJnZ4Fon0qt1Esn077/AG/ksYPDLXHizgPD8x+mLJ/j4MPd8bklMfHY8BZEvPBZfWRQ+Buwf8J5/wAA7txaToWd65CasLej7XlfoXyO4D9tdIzM6iAUCV6dk72GJmXgg6286/xjBa8N53Dpy6/Lr84yPpBh0ShAEN/7Bh1djyekY/CDerEuIo9yB69A2vkBnZDdZ1+TgN2evsdACePxujcu9ws2B8LOrOtgGdWD8L+FkNAgflgcYRJ4sQZEjvqRoyAWH5Y/JIaIB4Bxlj8IZvLz6mZA5Hf+Zvcm2lxkn5YQJow8QcDSBjemE/LKjuGrGfkGS7I87s184/4igwFWwgLCAeromF0HPoT0ssImWb8sIkcILO5s6euEst43vjeXneNksh3vbv7B1PPhM3/MSMWD532JEdzuKbAk/wAzaZ9Bti8sGT5j1P8AohK8bX/au4TxvBBYfb5YEOrwGRf/ACf9yZtgTAXa39sJpAmejdWcrvTy3IuaAML2A9H8gH7OOHcZoB+rl2QMeD+28HgLYbT8/IJe5Byf917dt2x2mEkEAo9o0InGo7Jm9/8AkXdsRmC7JwPxjTRessNnAO22yc+zGXQzHB6KMH2dM/QXhfY7/wCo6F3u/wCY2z2dyJj9oYYY2LQ83PYTroacJ22bmfreAHHHJssL/wB1sO5qQIoPySv4IcA/CNIuXcIMuxG0tXR/yKg+a3rPt3EDAWvPYh/br1Ww2xmRm2udx9/2w2Rd75eTZnmN4bbZfLYEvKHnvuernAc7RdQcZzhvtPpCPS93ssU5GhMC7Fu/JvHleIZ8tl2h6yMsh76YIZdmFh8RZGk9UJOdbWk+iyUOPF6YeEyyN4ON4ZHSOHD/ABnJltt9ljWLZdr02M9lMjLYhr64XxsJiWg9QVuxQgqFQb23IDf3CEu716Vl7GFf/WHyL6oWPLNsZ8X00/6R73peOEguk3JAPcF/LEslQsHDo1jV0P6NoX7N3gJ3/wDTAE6CYf2f/CTvFyMoUwDcne1XvydPRPVt8MBEu2hso4HsjOkCF5sH9iIW3P1wnE71TsHvtX9gU8677BEvprdPq9F76J377/xABf6xs7vL5EzBHUH0GwREn8MwbTrAl/SZR5khRmfSByZY9f8A+SOgGv7H5ZCI1V1f4Qm3UWfsYbuUXyPe4OwfD+yjseT5zb27kSB0ccACb3sC5fp3ExfPIQH28M1B/d6s+jj5FgmWNRluzk3YEec9l5Ns447hZdOXdbvY4WQAv7Ex0yMXgsq9ME5ZQ6kB0dT1f58XGd2lqnt/LqjR6bsVWXaBOkSoHoyyPW2KZfjNup5wTJ2vv/PaYwmSLOdEe4t7t2zh5WRdT5Z4E3fH27jp5P8As8nUcLIF8YP7fXbLkYSx7FlYEvszYek//UK+3T/0ydx4PwJaNZjY59AH/wAshVIfySwzAASuupFD738LH5BSSmZBxet7hJ6/0kezavsswbN3H+A3/wBIUgJ8JZu/6jLeD9j6pdOx6RgGQ36nqZSEl06H9bT6h/Q72WZp3/2f6EmRBhkgnvc9zNXH5vIWe0NwnbM8uh1+X/XmR4OJsnvPxfCPgwfxbRu5yVDHMFN/4CKkLTscj8kz4E4vAX/xhxlRknDLyTVVH9wiuRU8uu2HsX4vazb64hn17WWTp7IJS9Fd2jnUyFh70H2di+Gc53MWwmQPWCMX7K/djptXL4CGHUX2bG/7dVPrx841zLSuNltukPLtO7F2LRPvOap9Xd4Q8EYcFtOPoIJ+yXcssdSLX02zo3rbScTx/ZacDVupbwjZS74/9ZK8AsJT5EGN0PbViKnR+EIx0EyyTJfqib9Z54cbqpTUfNvnOmT6n7nHk+z5PpLQnldXq6tjePfUur5xnGIRwkcD1xsLw/4Hh9r08EnDxvuCAL7/AN7JDiA0/t4SM1oh8ZAddfr9sSciK9Qb+N/KcjCxeL+M2ZZDIAWkqFTdKY/CD9kzV396hsiNr0wj1g3gl4kD5S7fVqbTuRu/EZqD3mGGDYPsHywz7wT7WG/iE5suNyy4XvGdv99kEYQ8Z90ilMmxZS4ftmXVpfFHMWB9r3MQhP4Q/wAu1knXUH4RgHIeW7n/AGR6khJN0SQAGiyZhEZ+ln5sI+Xa6mq8hn8AE2C16ipihO7N7sGQcoo/LHP7X3nV7C9P2MfYf7H6DZ/e4Uj9oQFkbIsM2Q8sdj9nCK/vOvskNWJHxb+91TAY2HNjr7gjgciYDFh/G/tNt/G02Nl1vcWf3jM7mGx99LS7/aCHo28n5BbKxfIL2LUNnfdi/hLs8VjX2GD+sN76lZZoaVuylILgdxB4DHtfARoWI9wRautnXsdlvnt17dexPUbEIV9yy+2lh62F31JcHjO/uF8bqb2GZLdeehO4ghKwYHEE7kf5/qSzjefhBPP65Fu8LLeYmbMvvD43rHHdnAeRaYlmruIvIvazsTrJMj9vu7F1shMy1pkeWcEs1NCzq8+R3wLkOtixqQ9vVv8Atg+F1mD+SXXVhHG9Mz2672Q06s/F3LqcHPl3nU638rcQHxG/QXb5H4z7ASF6v4rujv0MfUTiE6v4y3xddjkIYHVudk4iWPMsox3gpS6+yxt/K1n42Lq849oQHgknmFq+X8I4IWDch3ucOph8Mv5fMQFr/jvqdnd8M4X1iC7AdXmcv+S2h3iFTgZ5lt2u0vC9+reT7l8qvreopuT1vLDDv4liGH/3tjjX62XyE0bF5BdhwfoQ7DN98jHzjM/IRLj8pYmFPSQYiS/4QHhJWi1+Ri+idzI7DdxtYPUlsL1EE5H+O/23gbY/x1bw3uR7bP8ADCYybyXSbPD43pP8tngXwcl2CSw4El2u+8fZNzqMyAqOCbokbhxvCydAtmOiXY4+shtZn3LwxsPy7muR4wdzbgS3YbdnneGCNtpPKe9IUtdsw4Zr822LeF5joGMmeRzPt37wu15luXVl2bE8Rxpt07l3eo2wYPLfUupkHKR5OZrZbGN6/pHsmS8YH/rNi+HpWL0ft4OB7t7wj0yyMHDerYcnrLCO+cijh3/g26cD089iOHBxC3CLuHftjGLreW8NvrJOFrt2x1Dq1xw+XWwzPf8A/BnLPvLjYtlg37E8D6/4XTPvw8dZs1HG8bYZt1F5bvBa7GPG42wwxMOWyw7Hu6F3wbBxkekZ9Z740KTm2XdpMzDGHGe4ch2HG2zxzAy27hzq8YMIct047sqAy9Sy9ma28N026Sr0l5bbssjX/ZCE92yib4SW2XrL7yC+zxqM35dRluW5KdAl6tb8vLYh5d3i3I9T7PZDdO4h8UzkZqt3+Bv/AGfRLsn+AQt9EHUI0ExHywH8qDInYdxYlrYKDbzjCPAJMHD6cHLcbeF3LctDew3128Q28J2mC2jxoX2wS+FncYX29LKG93TYHHznYng5Yng2eXXY/OWVP5Ws8tb5b0twiGQLNm20J9tg4VX38x+kh0un2zP7WmWwjw2UhJLxGp1fOO4XZrxLPCQkTZjL52HhD1adLdSMbxM5DKsEXB7F72R6ttjiyrvNlrj6ytt74d8u4zbb5PuF57PJccn27ybYbfZ/huEHEHI1Lc4dD9y8mbGC8PFpaez3dkPZtPBx6iITjJkuS7x98LwY4+NPvh/0hh/NP9Xj9syGM0b8zovKg1SDOx44BO/xkQpo6MPN2TJTMMDqVJmeWmf64gnl9Rfhtm6D6jbP0ej6TEzk+cqM0nyzeHhsTu0lh4RTwupEKXS3eeoWXg9ljDvj3hdNuHBLbHnPyOBttmYmWTsWeQFhYySdB1Zq0+WPyAkDrgd+jiR1tPCy2kIzxyTJzDd7dvs/3Ida2AdzshYddBFxP7NG7N9nBvhswAdLYYI2XPFqxKVrbB3Op6kYSekC2fLs9wnyT6Qw6JfuM6hBKb1C6fIL7AccTH8TSGC5rYJVNjWCD+3cdx9m/pdYGCHdp9j97LrSwPcj7tHtgLsv9uqIO7+l+izZfsZvuC+LL7GP0g/Z7IE/Bh323fWYyQEWUPshIRjAe7sNpblp+2indjWXucWCXc7uyZDLrqX+yk+1lwKRhb5JK8RQPSsdwBDEv/hY+waRoP1EFsA6L31KWDGmbf8AYoQKvHb/AORk/wBsCPmx+g0kMx0v6zn0zr+TfOAVmtdfYfgx+VjztNBrxnUnrGS22uzwEttvF1ONtgXmwcyNmG82HACTqE2fd5NtLeFMbGnjW75zg/w/5ePGW7d8bawYLvYs8K/QXT/fIME+2y5OpgtvBz3HZGMfEdbfQvVu/UZmWHJ8vmLp8Xr+ENdepLUO0cgzgHdnd2q8WTY2SsLBY0ePGP2x6kPyw/OHBK4j63nzPZ5A9yBAFstk2GH84MOkp8iO8cszNW4t3KF4/GNy1+XVDhiIrC/lL4NpKnV9Q7lCLcft+9g9WRWFPaQ6DxfuT/d/1Ad9HD/tujJH8xbN5DNQYO5h9VAeOybFa9PWV+uJrGdju13Rn2+7PpDOKN7cVfTeG9ZYzu7vZT6jOGebhr78vzbYHTdqCvwv7LOAZOA1/tkPQZlphCx3XZudEijoxgnR5Nv5t/L4SvN7gjeL0Z3MMTzqB2P8TyZi0YHxY+t1ZsmasdOM5GQN7mv2w3uAg/WP3n97+kQdZHq1dxPUwztY/b0mEd27vepXO7pO5x7hNdmePCf1hfxdAu8J+s1/SSPb3/7Af4H/ADhwf41ny+d4iW22DeIxb05ENGgBY36uo6vg/sEjJ7mdSfH5fgwbP9FVIK2jG6DwekmHRH9MvI7f1hoQXOnuXVADW19aevl5IsWMgiNfRdt3yVsTn/5l+KnewHbMvID4vjYX/gifrdOffPIbuPbYdv5s8ItPQ3I8CP04+2dF5V44zGbeBOpyR0XjgcuvbRm3ZcFjwT5ZGNHQASBHiDdaf+ll/TzBl27f/svMSbadXWPJPTPl78s6ZaX+3RBPCa5J/KPvGonOx/8ALAw9R1a7JaDeP/I72YGOL/kc1EkFn5erxlnVvWRzsvCA4wka4As7svGOwOBlGxnYwIg4OvAdp4UcTj8eEu5+WPYN/csMvjxvJ9IJMeNeE7ImbeXmfLNIOG084TgdnhnBwPrhnPSFttnYOV47y3/+DYzw4eGV2zg3NjpPu6Q8y+0AUkbO5E4jvQfxnre/X/l2b1A/4SgfpH/Ptng2R6lE3s/Zuj9wCJg7gHjQf+E+kzBHobeEpLoFsQEzN76B/wCyEB6hexkBoIBt7nf+5a9v/wCxeaxnXwsnOuWBwjZ7ED3uyQROgdZEiW/fojweWmRiTRPBpPJ2jEA+ey6Ni44Db0DtxPpi5ZtkR/pNERG5kg6NdP7PCwObAw8vNYQPLIAMPAwmZQP/AFZS+3kOl/bwQcE6yjQng0dLrbeyeb1FoabccntQCUHcI3DDCgeNj7shmgvmsCKH4gWx3eFT7AzsLwNw/NiDt4HR/wBuoHHscbqeF23ovL0iXq1zCz94y6Ic5BpvOzh/P8HZYeoaNgIXVs2F7Ie46eHhOSOzOwi1CeMsOY6tgE9nJHCWPI94HTjIdtni4h2DhJd3kt4LzenH3/JN88/xvJOXfEYycWMsQIJqLKdi6ekk/jdgtZxBdPSQa6hc9397jCPtXu8+FMhnoFfoQgfS9gEAR8lMq5fGPwnvfrq6yah/Lu8LyXTP2P6WzGxXFc66uptkWDxgEnwFt1gvrfLQm7rHu371YHb/APNKfhKSFxH8SlAuyZl/W27342n/ABYri8UJe50JgWKqPZEOht+QTRfr+MTUesvC27l+eaf/AJazA8K39rDyQ4r+rlll9vrPYdIfl5ZeRVCEM8TgSUIV2CepIXusrU/b/wCJF8nZPv4P+Jr3xvhJQXD/AMnrJOZ4tk5YTo/Lb0CEjzofrH6nuHWERFhRXccibUkbc36frDKQ9WHPzOjE/Fpu9VVWf8k59Hs/QlkFT5Ox6d/bwcZ17BDteE9RePDeILy3ZuAfeB2zjYo91tukP7bEcI4Rgl1JYWw8et5FvelstvVt6RM8HpOCsPC6gaTBZbxebrLqM2RLsyPsl4KzMRlv+Oz5dA40eHg3s8HG/l/yyJ/zjF7PV1by2Jr+F6dcSO+xz8yfbop3yf5sKhQvpt1Jf8R61hy6G+WV1tL7d3tgeyZC6ztGyx8G6PPZwp5odXQfI11+TgdQB6vY+gRL+NhmK9w2FHHCNfWYkPRJaz3U/MPBF9/hsVy9tfrZTTe/CSDIxU6J7D4Rv6yzfZ76VEOBjKcLJA6GpykFruE14JNF6I8YIyyXu0XepOrxlgAwn/8AgDab7MwEkd/Dv6kb7bj7dY9z77Sw7tttwvgex+n2KdjD+x4/Z7/17mI0z/xKBREyHuKGby74nVnH60xg7/8AZy/n8+UXUgt/sy4ME/MjiIM3xMqt/wDkqzAzf5Kxe1hCdN4kQwWexe4WPHn/APV0H/Y9OMvV6P5Dq2dd2R6zlutbULts62TLZ9hnC6pluTeWRP295y6s6lJmcZhznVhIk04UterxDZZ3DBjLOOhYyOrTWQyWW3ZezjuZimnHVu7ddJjrvbdOYAc7EzSXXtsMTuMu1nHX+t/xtpeTws4HzjJLSrGCJL0Xk43j2t+8+z5BJ89s4yYYujnpgaj+yFiiR74P5ZMm9h/CBZYLCwggmGeQnyWRQp+yV8I/Q7gA6Ip/OPwu4Tcl52/+S3eD/kUuAiBIjPdiBfwJPr+q2sBZzgO5tmbcWN9UGran9x/u1DwudSDv4vwUIzOO9mzTU+aaTpuxtZ/bBwa1B5KNUUOMkHxMSGOjLM5sGc2UhiIx9jVV2yaxY/WcH9j6wkL1hFk9Ig+AH/DhIOgcnaE/csmToZonxx6M9ZIU8uiA5L4CPFmJ0RhjNzLni7o+hRR3O6EMzcYQVdx7s9+za9jvc+lflADuLd1qLQTKL+ZFfbLaIgQn8pl+87Oqrund+KBehvXl0eTIOtkvE7vLo8jZi9dRh2S35DfETrGekF8v6MhZ6tBNbOezu7l+hIO5s+m05pL/ACYPIa+Wi0OZePLvOrWRr5NFOxLOxbycjjLLv/WeAyceLv8A4b1ajwcfIGPUkj/B7OCHjXR/l0h08HttSvf8mIwHQj3CCy0t7n04wgsh5DTSCTgNRdAcY2ZOwEXhgPth+Qyy7PgSe4bziHrLJObkkJ+j9SHGoe1l1aeQ298Ox2DrLs9vl4Yd8d2PHsiW+9x5Mgy8lhoWXQgdFrZ1ZmM4EsyZNzYZ1y+sdE6WsPcLqzeohu01jI23gCbqH5xkTo0g63LDjvRTUuuBN58s72EmAJJZQd+c1sD5ebs08sLDPJD8j1E92PwsPyEfLH5HT1dfl+Dgx+QmA6IFhIzzhkeoMecSfyB+Wac5CCeDOHYP8Nk28Aih7Lw784QxeOFg4jITgzU+GHju/wCGNFvGXabOG271Zg5LvZxkQnzIibJNvO8O29Sh6GImy6mz2IeryDvhtirTJnCJ+bs0wOPGRsyEYF9kbLPtzF67Pcur8Y+Sq2X5HPPGImw4S6JlsxzDkPDLWmElMO62KfhDG2y3bx9sEbb3eS6l2vTy+98PpPOiHqGVnCcbmTjcllsZZbwBDazwwz5w95aQ8O8WkEF1LtYcoJDqPVvGvMzrgnku0O3eC3/+F5zj5IwMODDB/b8pmm/tCP20/bH7d0lnDozjqrGbPJOjbIOF0k4jjq7OT6QxdMvV1f8AhOuA8OBly7JZzhsX2sJJ0cE+OzM64e485LGWx9np2Hs/kNnAkb/3wf3mpiXSDwXRz6t48ume9f2dl3EzP8c9m6/Z9/8AfHrjLrU5jjOpOm1uPN4WV8JYReHdts87Xi+wW7fVvbvjy2aAF6Sziu8WMOEtySxo+3hZ+X0vYIF0rZ4fOEZxkixPo4LOAdoD/GuAWScd4ef48SVkiSWeyJ94Jjf8BZx4hA2PkSk5khALGOWX21+2X2f3uokxthiVfZnQhks8Wby6MvqxXUDI/JJ8SCdW7cu3pYEF9neb4yxHV0mPy/lJSBT9J/WMrc6kPvqAzu33u/pZhJCO52dMfrP7SvUJ1sH6Nj9tP2fTOaZ7dQkiwpCXWPdp1Mkx/L37dy6sdw6ym7wXqa8pftoW7PtD1Dz4XRz3dHotRR7+8PNwdLD1Id/YQ9kbxsu95rMZ22fbLADj9TxvD/JdStC3Idv/APdZxYwcOYt7vtmMpkeRGV6Rxs8Uu63bb285GZxso7D/AA+W/wDA8s8XUOWydLJmN8s5Fv8AgWOB/gKLHB/jOTyJ5yJvjHrNCGoeR9LS9zGydCHw169b3gc/x2gYLyC+cC2sCUeD2yI+8X3yXjGMLDqMuroskBn8IQZ21fwhyBbS/nYvTq7IwJbR09+XSHiYUsx9Sj2zBvtnMhgddyMMcqjPqaCL3GE/K9eLYespI3mjLz5p278XQfjwnlhH0j9C/Zkx7HrsPOfCOw4WZSRM/smEP1Fvl9Fh8mOsg3yT3CR0138jL13t3eN8+0B2EPsGCzH5CezNimJWjxuj3GsxWj3V0W7eLHvezm5H5Jz1bHkCfWzvkj8bH0sev/EGEJrBhHoj8kh8J8u7z6sk03/jCG9x9mwOQ+p29vxdsf8At4TU+Xy2T63uK69OBDgwl2T82Tk1VL0xj9Mu72+cyCdvE/dn4TfgDw2f1t87L8WADuMHcfvD+rFlmDZ4B/S/pJRAe7+0ftwbfbH3AMI/Sxench9SW3l4z/8AgHg4fRzAzfz2y6FOxsBdbwHrh07i1dFZsaYPFkPY6JCgDgv3gTufVZc+/wCH21qTx+XstP8ADpE2sf4NOjgFZL4SjUbT+pFrL0w85s2vmG2CerCUl+i860y8XcBx1DMSDjr8vELv8g7mNn4Z7BYvZOYr8v6//wCMrw/VRjnCfb3qem8bORZdC8xZJxdzbAF4LLDjohgxnTllgel1HvY7mO/SwshhGYdX8Iy/hIckBTIG9lpnVl+FgfOiBuNYGCR+WH4WGbkB6x+d/O/AvwIacm5pG3ls+F+osxQid0OMAeF2+Xfegfzy/jfzj8uIEZnaH5XRfiPA8Jv9uG/jkCJeN98n7ln2GSXZMNujIbP7MftHhaBHkvjeKINgyH7ZZKQl9yPN2/6uj2zf9WDOy37HXN4C/bMe2+sP8PGXzjveM/x1wzcvOzbWzGaZDykOplAGXVPWgkH2ozOfVws577D/AFjgOhGyoD3mXzc2/wCsCzevUfyQb+GdLrw2TM8h4Uy7rzsr+A1jZEfIy0AX39kQ+Nn+yUoI2mkR30/t0gDSN0ol26A8unXwILv843LeuzEIPz0s36MC690nRdv/AIX5AATbQH/ISYyxgbt4OdZyBToCKFwY7vBZsbHlsjWzM48/H/8AFnx0YssxHnKEw5d03og6G0878/ePYOLwdcGSXTf8tqR9oKd9sepBgJhLvYz8O79jjG82YL/SANOcltHBew2axv5wGt0LujOid6QMRl6b6xl+M72/LO8Fiws6g6jkOt27u59bHRtDJZtggHc7z3gsNmO04YCflkjFEtutJO+rMmaQOFl7Mxvdll6QJ9BExZElrjCzjV17Wcc5ZJsMs3JLGJuJwGbu+cMdHJwvGl948roOCh96/wD8hR+Zf+9LG/iXR2GoxLdHWLo+JCsdIXV7XZnyLT+0wPexEKnwUhDsCC9qIZr0BdZbYn7Ff3YP7x4u66/wonqIeWdCHWwHD4h8u9VCY3eofkurpExXT9bu7pgsNzbw/nX/AOSx2SZgdp/yE3zCZzq/53VeT6+QF52DwOkuD/7wn0Hz/wBm+hvuw7xfSB2y1pG5/TaKKvS3Sgb7C9A2Bk6gHeQBBe/ye6ep8LQKR+WkU/oN2W/gW0JgTwZN78CzqTx+MkUjYYlroQP7weo8LLL1h1/qgO7z+i2HVj2/hfzjY6cs4cQXkdxz8gsZc6jTjPb92w7fzWLcync3PZs6w7Ing0b3AnTZZPhJF/8ALfvv/jQAMgUjApcCFuTPYbrfk9R4Hrqy4Au7PX7KfHq5+WQPGYYWM/AbC+Z15OnvOPD84DssnyBu8RMxdoeQftkndvEoRLPluEZk3Rx8EHEbAEjDqe8M6gssdcGc4xvbhjjadxIHDZM9CJJliu9lkHI5d8HDF1/l3zRXuLeygAH4W5/QkhDaO/SUgL1f2XwAyK7uuf8AsdCAwZnmHPB6k/oDsO0GSEN+e2Fs0fwssq+AXmADx6zP7sbvOxfgmGaPYNfL0dSZjUJgqc7FkXUegti5h9gi9QyfYAy2D5I0ebmrB7uoToEh2x9riR/9nYRnQ97bq7VjqThAJihcmy+Nhbd3qY6GKydBGTBawTWOvIJ3AViEzoxM6vnZUb2IwB6plBPWb+bBbx3LIcP2LFYSEPyT6UAkYPVdj9tUvdW/hH8hGZNMY/vZL1QW6Zd321cA7YCX2WX/AAyAbUaRO1kt1Y/YbAI9Kv6VGw8xnVhjyXSHiYkc/R4aCfkUOdxY/iP/ACL9TD/t5P2f9Iznc7znbmjZseGMjvReH4As616D1ne4C+LYSGV/oE/12/8AwkJO25C2dOzI1Dn8l8QP2COd/wDV0NaN21U8s/mAxIa5HLaVQ/CAIIvy2D7If+QivBhdxhm3aXlvV8tyysCBwzdqOm3aby29Uoxt/L7ZtjOO5t6S0e08HjPV58Y5d3ZXpxklkDSBBMST1uv8bnhnGWE3ZxCZ4vFln+Hg/wAExZY3d83UJbrhY7O+cHDeFHR08B2W/wBZ9GQyj8IzrqQfxOfllHq77YJ2WH5Z+Shg0fktcD6F5Fv72s2n8wyLbh+3Z0S4grue6x8DgB3IeyJDHkfVu6ItDX6WRobYH2bfpnccGGxPl+p2xTHCJL0lkm46lqegiBV0ddTnn/1A6I/epr6PrMwbArqPvJsjY99tkhgBkyynlI31CkwDwt7uvqTAYdGEpOvXIU87iXlO+23T+P1JiUn8SFpf2GOy/aEvrwdRBlxNvh6fYSygdFqLhERgGvaE88ReOptlLKYT3S1r/wBkY9SgDdJkwO8hHRafG6JH5MX4y0hZ8xhKv/6TIldt8wf8xG27of8AsyM3tiDe8C/bMv8A6wObmsWUAwUff+2SmCf0z4TTQDIRGD0IP0TCnpT/AO2ME0Wsh86H5fpAfSFOoAbbo9s/t9U/vZVaWF2R+lse3Wdszqg+sOvbO9sp1YPpadtv0W/2Q+MJvpZA3yPd1dH207xvLW959/xGpLML8Tw7jkcTwPG3uFQuy0zh3Or3njIscbI4bGnG8jt5OeoZz/HcTEx7P+3lF3BenM9njyfOCzuXk4Xl7eXue7HkHvDZee8eaGErflncnfELKcblniL4wx/1H/5Ad5OdZ6P/AJHht/ZdFoLfSn6SxsIBXcfkkJgk6bdJ49SkG97BwubYPDICU+ROZgzOpBLLH5L8Xkli9BbsOgI7eXTxfEbWDMs/kQecY/KdfID5Y51fCLB+QMgXyPwvJxjWAx/ydDB+F08mPUINDF0R0kBj48Z9k26epJMfJIOWPgF+EuQXk7RtsbM+utiADfYP1j9mQ9bOOiSDPjOTRQj7CNa3n1O2atmNbR2746wztKHuyX1Pzh+iN90W01McunhcqF/GwvdX4xkde3v/ADODmIa6f+tn7v0YJi+wg3t8jr7eTWGu56/2C5K/qfxbmLhxjmaHN7cd5PVkQ+WR+NgerN1w2/5x4w4y84OH1s44OB2s9xbxnZKdY6P8ZJDBxkXvdf8ALWiLbbb47kocMtbw9DIb7bZ0XpxsY9gDNd32QfH2Sgx8EuPGcgdH84+TxFcvJjxuyy9wYRbkel/bXhYTLuN4Ofm1hIT0YHboBGm9Lr2s2POrvgDT37Z3dQcZ/wC0GG2ucthDzrBeCb5w8dhGQ3skbpwG73hyGwhp5ydnB2LDINu9gC9TeSxI3zeUsXs9HVribNI0mheLbNZJ8svkR1N1bYOnduT5GTkHeP28WGwJOrprmzbEvXkwDLbUZUtcDznH5PO8NvDwPzg6bpk+Q5Mu8Iu4ScN01W8vovCEthvaTnAy42rAG2wnDLwuhktu+GIUW9i27EeS7hsW/wDmfKtngEz5P0m/m2rWxH/2l1w8LkHGKflrPd6xPAYG3YQ9hsl1KZPEf2fRy9W9b+yyNSEly9svGcZ3Idpbel6Xcn2O0+jvfI8Lr/qPkNucp4fzgbdjIM5ZPUySUjbwWtXQ4DNSHuZhTx+Jh8usd4bwoTYxPt31wgEXnHsHOS3yJokPTjGcJ1aHbawyyGU+x7ZM8BJA8XfpjOBxpwS8kkTe8HkoF4cAFj8k/IxmQveSc0nq1+R+MIfJJ8j+YP5BiB5GrO+WSPIwijX2T9sz2+txYfbQmH2YhHghPGznsI/ZLowyg/eMGAktNovYYxK6ZbbwiRPRBDNmLZ6oYL2dGXq3q+5O9ks213irvhNSZMnRJV/yLZlZq/1DgTTsh4WjwHuEl15a7P8A+14S8C8D5kI3UIdRuw8IQETwKwnhEFuPBLFtleHA4+Zdts/+FuEtD8tx7Jt68jvy1JhnDPh3MWHLdQdvDHt1KQtW/JhXgvSOPDI1yLcZ5D6cMLL1aOV221idJ5Xu8dTFU4bHshdfko+2H/H3glHAkxJFn8m1G02QsJLJAOrD8kNg+T+ECg6gd9WLL5DsyPwjO9WFn4vmQOrq8vLrufyskpujILYPrZ9E1y1Yfbx7GN7nykETUiO4t+x0drHyBd7B/ZUMh+3PYZjOoj+OA+m29cLuxL+XCxdl4EFYP3c1xvVgTa+pBzGWfGN/IBqNgeWB48WHrJPZZiwsu7T13GjIXaHNL+t+jN9w+y6Mn9vHu7GWPZn32+Dnt7n0HBbOAL6RnRfllT/YPclJ0ff4wLY670X3dJG5sZYLqUOewdmO3t/9BZCb6Tn7B3PHPzLve74d8Oqjw5eXrAxeeTuT6mKdXJ4h3IfQ9LDpYNmN2RIlRTEaS2MWOpsldsajkTy+yPL3Gt0J6JHHbqXkPDrZMPRez1K8/wCG7LlsP+Mss4yY5Jh1ggcEcXUTRgD3eJuXVf0h0YFsbHVuFqzwdRoF2gn/AFCEdPGtcPzllrLOPb+8NH/SJ59MdEbDesp0MmOF7Xpvg573dvb3x3tm3suluywRkD4i/krJ06fIa9lmvIM59L+UGOWnyPyLC7k0PN+CPyj8+pGDjAlncenov4S/sD46kiZ9t/SdeoCjNhtWG6jZF1DaUhZ178SMVB7+eRLz1NGT+mM/brf2E53h+Nzn1foZ2Jm3rPcO9p2xLMoD2mEIZ3sWh9szpsIK92vcD0Js/kjH0jtrYt+WPyfISf8AIDP8bBczY2C5OWeqgyetd4PFBF8p/G9gmnRdY5GzpdXcP3TdkjDpQn2WXy3/ANS08mPkqLXyF+ShtEsnxhL5H8QRe9EIvUfdjrRy/MhnpBNW7ZNunO4HaBFqQbVtt4Ms74XI841jjTj7xnCR6x5FnAA27Q7D09P26kaCB7veZHsb487HEU8ACtvd0dwPgWou+h/kc8aBBvkT2t5fUaNyyilzc7yNJqNGAEn0tPHlvdEd+dzXvR3Ljp6LAHRlX0ltw1ct8m7eW8LvSEWigNeMD12wgEc3GHENea5CJp5Y3tet6u3Y6X8i9vJawRJJ+3hsbZfvCdXZRvDb3KawjIZ+TrLreIIsjp/gH2QccFlknRfOpfDkwTriHyBMiJ+m24FvOHs+dQoTfUkd2F8SyAnBkv8AvbOsh7xn+zuyzvhIe+D/AN46s4R5ZY5O2P8A6jpYWGwIgupuO2Qd7dmwPl4wWH5A9yw/JGrt1PRIzyz7frL4gwWB+R+Fj8kd9RNYOeWfzh/hCE7sX8YH5xP5RlxfL+XARqZD+f6+cEWWcbwPL3fEca2r4EnWMq9D+yF9Fa9FiEv6pHIt4y43EhCX8I6Q7fsMxWGUTfaYAvoT/wBn894fNYAl6UWfyJzvjYNfZBB+zn4MuSLC2bN0DjfPyN80OG+3lwlmdK+/llvqupHQbqHq8gyQ7s4MqA8TbodcdXyxn0bCjfuN/knHhnfXMI9U6Rfls6jF3zsH/wCXdgDiSjwCB0Vhp7dfC0H4lg9H9fIADdXEuGB3N326iP5Bzb/t86g2etiat+/4NFpfOiOoe5kzi05yDPYdDDjmQ3bDteUucbGC6vrt4ekQLpyZd9QtFQdW5In3L5It7tIrpEV1Mtk8Y6v2ONnN6uhdOz7xk3ShdoLCzjsoePZyO/8AW7EgcZHpjVvqIs7gIg6sjrj42e+Mjw75iBwF+9X7fGCOizWQh1Hr/BtdLHIQxXZ6jI//AIs53vh8lxPtuOvnHDAwE8D4wRR6iD54RR7H+KdJjEI9swvwnLACIL06WHXQD5v1j38WV/sGdN4hVnQE4fpzP/GwV/BYJvY69276iz/CzxkVtB/82Z9BU+5bq+skf+HBaB22TnRDtlo/ZH4LbSVfcl5NZf8A1gdNc0kr0Gf/ACejZwMYj1IgfydcdT+bAeB2K71eg16rZCeCF9tWEoXdBmORekgcY6P/AFie4Lr+soScKJG6afyIz1NX6slDfd2aA/BF3HapKXRP7bfPZbGswbJ1Z1LrWDqYzJyfWGMIuzxNwngesm9k+hu0vcEeM+1dm6Pt2F3P5OhToOMne+x0XxYyYUiDD/4mZkbHlIR1er9bIThLqG3VpwLGJiF0z1wGXV3x8sWSbHkLMn/GjbDe3cXiPeMSxi8SceX1jy2O2SHUO3+vnhskg984Q3aA2P8ALbbxnG9cd8fJ8l26j6HE3n8gHkw8sDmRwIpmDZsX1P5DxqEY1J3Vt3Z+2Lq+yYv8DtMEMp/U2I/ts3v4RpfsaJ0sU9yxkoj2IjdvjvW6EFU1M1eh6w/rP7zhmw1kftd02PY93as+oOi+QKKZIIW2DuGv+STD3yHbpaTw4X8b+dpjUvfEZVwyC/qYNo+SoibYEhSUlnrJV1d4ow9BIAtYUEDH9EAwH7+252sxREDmWBE310IYk4KD4T2esemH1+hCGtozr2y/cZVv79wN/Sc/SE3t/Uh/Badk/oSPLY/Y/ex7tiQYgYd2o9n9I/SYvLqJMdtuXhgZ/wBcJt0T92yzd5p2mHVrj7I6Nrd/+8GDZ2O3h9y8h8JBmGk0Idmif23W874bHMIZTY6TxYTbe32+XpbHcqNtiTwbdg6i9IALZsHJ6Q9Wuy2slw4FnDHsYZj2JGXVceRk3mcCDnKhn+PPD7xll3Z3z7N3Dwxw+TuCf48HFsNhdBh3kE33jqn+NYXjvjYYacNsneNQwjnOLWE8ZPTh1KWFhYXv1YQDeztM9tIiYfvU2r62CWGzNg75Z71IHoHdstd/XuabC0RH9ZB0Y/LbJn9dRgAAZl2eX5i9+rfepi7+UrfLthwCerC7vYQ4sGfbD3rZ+K/e2R7soepRFOdx6QCVR1Ir9Ii9Qb3Op3yW7rgg/Y2VPYpdhpxlPYd1MgMfICdPxbx+2nRYppf0Xfgmha/kODZizLc7kZA+9ztlPNc/OnV1k7Cnd6AZbTqlelTq7ZGbpjD1IHqx9d/AwOrvikdDwa2+mB7YW/jByBvqRf8A0v7Q/wBsR9ODzyP6R9mxORjtv6X97eegbuIcHdi6/S0/ZDHuQL3YtCE/ZP7ZyyHsPds4xJzM48N03IjjYeCbeFz5Hn+h7R/hEU26ibje4lumfL3V/wC8eWlgz0X/ALHvD5aacfl2LbpTH5eW8LyfRw5w+2wTgHPq8B1ZPHBA9ztyIMZ9tso/7Dq6hRnNuq4BPvGZs+2DjyfI94OrHLbLaEeRw2z/ANXg46zyYGkP+EEkGR0j/PtlpZ0f7AY+weAks72Io+4iPvSbCEdESx6v5YxHpGRF5Sy/7eMH5dfk5+Rx/sYQF+BBl5QMdWPyB+E+mSM8IVdFlvXA4ZhAzo1zbN8IYEJOfyneAuuMD4XR5fzjfyQzl0+SHhYdloYwoRZdQJDsA7j0gPrA/bVoyN9k1kxrvgNnbGOtvHqxA2ZPi3D9ru9jT2Rgv2RzuD7bWBW8ckj/AExs9xy8eG9ttli66u6Q6LI4LG8PDONy3JsezCkLqFsT0k+uAxw+z3CH/BmWjz7TeOw29T13WcbEl7PP0nDYLd3pxnXM8/x3UOlgmyAl31zO7b5w+WnreucZ6sJ/5F7dZzjqC321u6iBttm71/y7qstnk+pW+T/+54zjBj0Qj2Ar/wCkOJXbPmcF6eTx3XkSTRh7IJLuS8Uh66zzPSH5EZJ3YzeEW+XTAL+DJ0zdn+M5+N/6JB7I1/0gAZJCdMeIs5LRZ1PkEkIBmS6W9S6R4Tsk5OyIvk8PoYfVnBN7Ny7WMdS6nvB/neXnOfk+N0d/WP0s/s4ewqQZ7d3t/Swd7IV3LqAfbB940t3rFv8AeNvnmSzY4LOPI9clpPyOzghuoy6LuYYZmzeNtgCmP7dJx3vHgsYZMRPtay/4za5LRn7xnBB1OuB4N2Fr85yDhD0f4PJ3DwsRdMtII2Df0xDdOfyFjHl2B+osl6cEZ1IY6/mRr1tf+XQ+ro/rL0chMAH2HT+w4/jbOot9n7Ppb7P1m+/ggfogv/Wf67u/k+pGxoek/wDAiIeJsp6ZOu/G1Vv/AOCWjJ7gBMpD0/8Ai7r+IT7vw9sWQc5DEzXoWO/wYh2fBbDbbL1H1D3aH9jc3QMq7DjyZ9XYb7COGKR2TOgtnoz7W422kKYTAJsbRbLcj23h2imZdW3/AJPX+Ty23bJibww18Me8P+ogjp7xMOxHMZ89n/b/AKlOpl9lj28Gx+3OX9oEa3xWDxg+me/V4xv3EUUzLYm9at264hhwWPybmmWPky9I/GG+SjMnDov4z2dMhNyNRm6etmPws8CWAX9r+1h+wbMXOfvB+u4Md2H0nD2SzuDvsnm92D7f3gfpL+rA9TjeOpe0cZHTdEmf952Pe3jqZsbouodR0RLZ0dmmyv8ArttsMdEHygv4UM4w9Z8/0WwUPvxGL/8A4RLAA4oO9MjTxDMhfUJHyqGwsdnqepHbCJiOmE3kxfXY3QsjUXiZ+zEyd17JP5sDNBmHX9ZPtHlDmByP1bpzUAf1j9XaF4RP3oIv3M7Ke+Fp774f1h6YaTveoxF79thfzvLeGWMtt77sQjq0l6g6sAzE5C9vRHnHxek+N7Wby3vSfXETeTrtFsy0JQfbt47tnnLP8bHPlh3vkRYkdPG3/vHljkOuDg9n2IeWdXk7/wANFl/9WC1u+PuLrh2eXw3bIA+WfiMuqsYWH5dHyzHln8uiyG38rP5wIGMjPcuvyPxv5WAIMyPz49B1AIyDfQszjuK3V7H93X62EX9jXqA7Krni7e+G7vyLHuf3imJ1ADdfkXrdu2JU6/sO6eLbMXdo6bLmdX5LdPViBT8YtO2T/wCShmuAx9ar3IL0ug7XbHXUws3S2i+lpOe6XcfdM0xPQP8AxbD34nF67ZKKVFu/DHQm5DZrXd2AA/NGlpqlcPxvuh9ZHHjF/XJQiPU/sl+oiR8lE+y+JG9h2ZB+AiS6+/03dXsz5t46GBYhmiQ267Lz/UHRAJdctS7vaXhgMsZ7LvhGQuxZYXX7wYfe4QlIQWn7dlrsurJ4nnZOnUeERD7KX26rbS2e7MvCcJsNux98feGXabHnGx/vOdnjxIX/ANv/AC2w4XUi1mQA/CRTY/kWjZzdePkjOBG+5hOXmOcafsPVvAKYF1ru+xuXd6ycy3jvmN3wtky8WWWEnd0/wfG9Nsf2b/kz4jMnrgdwvnO+A6mSTp/5eOC8n7Ht/wBsjMbG+x72OMg8hhOHa3jx55+xAcvedRRT6OGrt4gdoExkNz2J7O3asEF+moxgO2DEgLYCZsBkvXlkeMd5kC5A/PZ6cHeIAwAYZbYOf3uJoAMOo1aEfneFH2un1CUaalqDg4wS7YM5pECn/wAZ2n8DY4Hv79tMOkCA/buYE5dxhectRNf6XWr/AE2AbOvs/m/7lsufkggtZ/a7zt1Lz2IQbYI2z9wb76Sdnbr6erPY3fcY/TZ+7t092G7+ohgl+40Y/Gw9El8v4TgvxRr3HLy2dzfWEZ1b/Lo+Xdepclmj3jq6uredt4xs5Z64s/22YzkBBbhZ0CC8+zMYPdxiI7/LtAf9Vk9BE0f9lmIMcpGci5nGzX2HHbI2Hq29bz/nWotmEYfaPIs4RM9pjeF093p/7HC5xrwLbeCMtss/MwE98bLI6cN57P8A7zs+z2m0t4fl1MpsMIhgupEt71BrobInyNb1ZFdAhk4HY72F6D/wkRbo/CFuhBrIWANYmLrLLWh5E2OM7kbD7duFoJ8zl0kb3YhHqCSWJtrd5bOr5E3YWMDYE+wdXiCJktGILJbe4Hb+XiyySz7eEbkjwSMvfD5e8MYj0Wn5YWB8sPyO51+T/EJ3kpAEXO/9+sTwW3snPVXX1ypb1dhwbqToauZLRd38PSEQTxIcnG79EvQRA/kGBuJ/+RCveZ5dfaOf8n1mwzgK0hiOAzbsIZtWwtNrw3pho9dltu3QXe/JfbW2E7R6h74cx2fE8t43tDkRbEkkerL/ANl7nuLGLuY94BeN84XqTu/2PyY43v7wcMx+kJ27ldBHREsuMm7yZDEolol82mXf/UHczuBWepGf3I6WNhDdL23kf2wIly6y98/LrN6tllrZnZBLOWjcs9S6ZLgs5gtdl98txtJLeI3JHDJ45iI+S8au1HqI93iO+Jlvdt7Mobk2R5I5PdT5dvOSMh/g9RRlkmBu6LYcl2zjG65MmP8APrM7kdnd/S/vf0hiQHLUZgkP6mQUIR6D5CuPmWBjy0TCx2Qg5G3ll8kOibfU2+Qfk6u4fZTp5ARkwzG/k3rxn+I/QwdrNj8v4WCeIxdyXB0QpGw2dZXxj9ZAmyGtv1bzIfmk97ka2A+T+hCP208Zh2+w2jEiw3IwsNpKZ093drrF+tp+3T5YFI1yx5G+/wCGGh1fxM58kXkj0d3hww3iJGW3cPqEK9dF2XwDuI9e8ajMg/sRJ/8ATgTZerql0izuxByPTfl+33tsxPUvAw5E3lkxt6MlW227HuPCC9Lcj2WyBG4cfeuMdf8ACTDS2O7bd4WfSPknBMerDb7z2y8oy+zZJ3yrF7RMjqMbeDr/AB3BfzgnP8Ttu2xngPCOT6s5w/4SD8OAurG2csT5fwmMgTBuXltkE+SDUD++QJJP5ZQS2vyLq8vpkcdRenziGWBOJBsfnJz8CyFy2djIEXzW/GMfWYNn5vWrfEtp6rodMBhsPN215sfyWmOwD2xHBOnFkH2d5cWj08SpAvWx3dEQU9shgYm5zLQvV/4Lfwv4Qu2CHWNn3cPsfvAPqYAl1ndjf0RBvrZbrBvmMDcBlOYklD4gHXOzCSW92Aqxb9tu7hIwD2f24xph+wU9g4bYfZy8QKNsyf8Aif0k40lBzbrPZYxjJYPd7kpPQuoLY4OxHpf4yCDY8htyXvZllnF+LqbVchk2O+C3rd4TzvJeeG23dIY4/eDjxnmPADwv5bbTh6cF3a7veNs4P8ZMbxrz7Rs4e52VyR4cvVrtaV/h67iwuyy73oik3nzhh3q88vRsbPsCZLH0HR+tiIJ6ftjgFsbDZE9XZi5DY9pZu+cez40kDXDrdY+tPBGXu/6fQh77vAIOuSzmPP8AOOkX2Y+n5eF7JzB1snSN43ltvUZerwyO/hl3nsHdglmZY1/W/UD6WJ/BAH0QYbMu8J/OPTLpYTvldLgtvjiC+Q7Mj8SfNLLwvyjD3/b9rW8e784LujJ2SS/0ZNvqPCC7Ep67H7eIfpP13Y+oHNWYRE0YrpdPSXRHwyh6Jr+rr6O79gH7seOE/dyGaRa6uIH2h+c07tyfBvPqGnxKCG4s8hG5B3y6IBfyg3YxLuQBC9jekFsftmHkbMSMG8CbNvVtE/bG+2P20+XwvEcnO8ax/l49bw7/AJejHZ/hxE87ekAu48J15MJH0+wp7vg7gD2J02ZSMEBZvnCHo9gD/nRyp4BcyBrdAR8WwAAADA4TQInQr4WAy3+hdL1OXlN0wMAHidRrSeG6x2Rv/lHbMFqODdmNTVgf1gj60m3YlDAIyV30ychQcCXV3oWLOMx6J8ONusMeDeQ6YHDxud8ExNjN7k4znYsier1Dy3qOi+3vdxZZ1y0X5E9/7HkWTMvwtLqy7cAdLEllgVgE4nnIPfd2/PbognFm9wdLIJn2vL/gyGMvHXDOpIa4emT+WYH2TJAR5BkZk5ioPRfzn5EW7+QILx6v4cQD5C7yYdTWlk7drONx9Rwfw8Ig2C/ZR9Qj7APZbwzuL2J4OTy3lm9Wbj+7x3O2t4MOcPHwj1mF4Yq3sGbZaKRULvXSm/GATuda7W2xNKfCT6TdvQWZ9mAjv7IL46oZ0ujIzenewt20QE9vNCIUAbz5e8lGewMnJ2BmfeSP5AADoH/8Lvew6+ax4fYYP1Y/TIfCK4+P+qz4FH5ZED5pGszHS9StTcKR6PuwNiye/ga3aY1a8/bzjwvLYstXcXtnDxl/CFssM/t6XbeNt7lui8vb8nu4Wy23/wCiHossy3j84uo3IGNh9r3hqx9ix0YBz6BZkItzi+OQu7gZIwNlhkHjzh2bS5+MjCy3skm7io2eWd5P8lTmCPOM46KfRLL5wlm3vePJNY5zfpwlkMF6zYsOnq9Nhlhz2yOiyyCRhPSzLLLsf5nG8r/tl3m8R+VrfI2zJ/iVlyH+X/Nqa2IliZkhTqcfGxYRy77Hba+ofgi1cqfXbGDsPE9jgO9a0j6usgUOB/4TFYZp9P8AJqfi0P5AX/eojm3d7LlxfSFDGPav6SDZ5gMbZIePdvVP/wDn8Ikb1iet7Nav/Y8j5MkKDXL/AKwLghns7NT7eB6waHMGvr+xA79xov8AYO98Tv7dF11IftvmfT8kae5qE29pvkW48w+T3d5wOrZwOer1up42HZ4uB3Etp3dkjgcOPJ3m8PDyTyGN4dd3lwWpKPv5eIdrZUXGvHwR3BecvzdXslnV5I4yyOheO56t62Hp6vZAw4J4zcbfwnYt8gJbRjjOAzYPnLLGXxw9Xtl3dvEH+QGTiDrybpB2xMz1BvJZxkxDnC6KAt/11yeT1HGbyzy4dZf+WF1afk58wMn8oH5fBIjcBZ4gfkcQWhL+EwfnfyiBhYiF6if5vUCAQDAtYB1PNY02O3Q/9If/AHiZO2gMNgHdT8WxCEv/ANJkYgeScLv1bZ1OR0fjdlf4ukkCQIvS3QzYnVz1d4czrXZnkIzA6down7wRBOjq4uk7VY26b9UYRw9vGCT/AFbhsOLc4LM8j8Jr3C6EH7HPxftNbY4wSth2l/RZeuf07PUmOipPOm6vJN2jY3u/vJjzxm4RI/SP3nb9SbLOFxy9el07NvpGLuFb4F/+tqtH7b16XRvddft4yn7E7Y/INHfA2yjbN64I6Y9/6xpbpx8vSiC2xwlyFuXb1EWTF13DCWls+z5Yh5wmcaj6jnOM5yPUcXeDJ6l28Xlzt9vM/wCfPHPOFzjeM53/AGBdnpZLbYWzxLHRwul1McF0UXT+327ieN1OStXNmQaC+53Pkd8eFg1ukA3oJ3kcmIOX2erbJW9Q3fD6t5y//YYl2/5eWJLcJOuHbrwFpfmYbql/MkdTZmZwseQ89guZeW7M+oYWo2EwNxIDPLBkXSGhPb9f/I+hwOzQQaTu9dQR5L95G3QiOsXSIDZ8QbYWT1x93kbsFqwlnYD7Bvshd8//AKWPmiXvtvGChdIdgK8u1/azIYTXa+9EDqZTts37A+up+EIZgBGvZLqF44p7y+nEZN2GkfZjbyB003zNHYcVH8zntLo6LTPYFOqB72cd2G8ZzBgY2/vH6WzH9rDW3rmS4lj9I/QmI9wx7AWj9gceixl1HHQZbBB3OZfYmFjCbJxxly+5PHdWHl4SDnXY/wA5w+92Nu7NkIuuPtuTZC1mGYWwMD1AnRkVpetB5KFAFnpv9ELR8ugnqQSe5bG+h8S6Y6TVJc3VrNWH5HAXeeW5dMyxzA/8iVZlqYMejJdPL2WZuf7Ae2fXDMEN4S8E5jzrvPLxClrxuF1TwtT63/mEvABbEkzuG3LSPJuiHC1WOuFmbDCG15XnwezLdC7xdEETOZHeXob3xrvUJFxtDEQ0YHsp0/Jq9RHDH9XycddWHAifSnQg4Al2y/f8N3H8Ywv7LvAopZ8pBvs9tj2K9t1Z1Y/pf8TILOFyIPq7LSNLNGXhfzk49HS/jH5Sj5GhqJjaPhfPL4ZY+SsdWbZPG7/bD9eMH6Sv2FnsG+r6oIdx+93ext22HjaEe+RB05LSPJpZhhH5x+Ns+Xf5HuLJ8nTy1bPkzD9f/wARvGcaci9cXVs6iIcsvUuvLDgef7lvVrewEPUQOh0lp+WWM8jCZF6O13/DGQXTs8ZFQeYjH8wElzm9fqZjYfdxWUi7E/ZF3evRHvrszBx8H5JIZsa6HYQR/wDEDbtQ6kngVkAmu315BNWtgtR25pC8mnJERHSWudpLr9KLvXmbZny+Sn8SPQp6W6Q5HeMTBjrC23YAJRBjRmAQexpvqyEo0wOCnemQL0MaF5vm6NvbJY9h8JTi/LXIx7EbwNbTOX4+F2E/pLIb8cvrhVYCaPUvbCcDRexhxt+3rIbLibKQ7dG/14tjPS0E7NxdW7O7rr+8BB3bbfhiP/yL2/R//WDQvIxJ7tgnm8EJObA7XRbPB47zsQ5EMvcYb7Ed/wCsZhDjM7t6XXmbwniBh3AZZZHvZuZG28Px95x46u+n+NuggeO7WPVr5G3kNsWLsOuDLrOiO5czIWEBeAR8F1z3Gzx3w8df4O0P+KjKP+CM+P8Adv3x2bFHd1+8WQO2HjYb3oKRO1+Z7mvSmB/JX3X39sBsIyL22NQaZ/8Ahaimtmf2Wp92roNvYbtcGPbexmD5Y3o0T4BdHJZ2daQPpXWY458T6usd4yw87CWQe3J1zUsP2PAAvYRnSPREundOwIZTyMTvUfyL7XS/2P6+uWmOl/8Aicg+k/7AD+s3hoYkoVPstZwdp42g2I+dqbyD3sNbY9gBGNdtsQgBzP8Alpn7ZLty2sadk49Amr94y2LhDDIWILC8OF0l5c6CVhvc3v23FIME3vAyZE2W+fWGE3pMgA9dF0J2Pxn4XxkhkaCOvSFa8SGDN+5hYy9Jx0vOZqUJvvUdd3le4LrrWy6uzue/9LyM54+NrVK+nyJ17dYrwPwZTpi63nXGYQHewf8ApblrMiZjtyuoZB7bCTcs3u3uepHCHq1w4GZPcsK9Z9Q3y74WQeoh5ZHvZRNvJxb5dZejefIk5DTHhbHD6Zdsx7YceC6kcaW5w2Y/yjf8df5OCbOHdAwZjY4hWcRS7PTsRsDp4O0gixknQT8ZXttw4A87gPAWP2wJtilcYdnFv9uzfsfV8SU3D+b1Opps0JJmt79v+VBZh1h5Zzs39sxq3O09HyM5vyB0JgB6CEP6kkoODwjdYsR/Jm8tzckpHOt+SaGPxK5wIVvAd1iodJkMFGx8rnV0EX2XH/6xoeoFp7LvpenFONAy9QgTsY1U5jt2a6s85UhT5dAdJkbo6KX5DCsMUyF2fPRi6G8vC7KgTv8AkTg8Bl6sGJnvnLJl33/5DoIRGxlOgf1v5b/+my/YjA7lUv1nbpkvhgCOj1+5Ahmf5i64A/JlGMfa76f/AHqI69psIfbKcYdAJl0yvf8AyDMlIfX1ug4eiNiAt9eQdsDr1HRv5bnksVeEyHT+vBdEt3b8j5BMBFTfSGbfls7ibr/1lsOFkF+CXBe0lL+xb31alsPngX/uOCjCXYcl46F+8PVpk3vbzbLbfdm5jyYdOCmTNSzr/KbkLbbs/Fv6nMHXIOB53IjDwcPB7wx7PATyUOGE3WeHJHte0ecbZCjyOrd4TfKYZLOm/wD2QcJa94Raw+O0dZ1w7wb96j0ZYsnMJ7/ytpWDjJ0mt1+xBl5m3hi8qseUEo8s0uhwoWw+e6ige0WVL9GIUP4+WNAP4TUKLAGAML+EF6W+FgeC0ETRLoCJwu0HcbwMV0viRBu7kSxYB4x7iMIQmhePUfHdeIF8RmA4BgQPrn9YOa8GiNfpDH2Od26OnqenUgiF1MLT0nekdIlv5j8JAgvR3H7pF1dt9RdvkPYQHjYHxeYfpIJRif6vC/JnnuP0jTqH7lj9kM32Amw24x+9oyP2WL8y7/bDwZ0fbXWTdLE84Hqw8s9R5K8vHsuuHgRJ4YAOTPDD1acObw+LEsMez1vl849rLx3HLDg4W2Xg5eXHa3l4C2YhdBbGcPIu0c7dqEyHqOPneU2PHRXt/wBtl4cyC7ex3GB35NROiCG3HCJnUoBI4YNI4XpvQYw/4fX+WDBkjvkK2EJAABgGHPk9A2A48s3skXw5I9N1thtb+rOm97N3we7xj5IMhYTz/tjoJ3J7OD1y3Nfy66sbP2Wv8SPB1P8A+3RH6nYx9Opz8gXpaGARUAHkJ8sHQuh6il11bfI/O/Mh2ELLO/LgNoxYUsfrB+KXk1+zvIwumZeX6Q/eWbHHTY9LZAT7JqNYtC/Mv5XXORHh+V/KXm5J+STA8s/kh+TDr5CLhZs7MJ3bU6gO3COCIQx9S4+2M9tls68b/nOX/GcNkfNt8lkTeoZ48XhyWZGoTj7EnMOuR4tYcbx5br/WGbFs5nVrgeyD0yMS3olkOb6v7wSGbeSO5hzb1j0hs/OMR7Yssm3w3iC74eYfY57kD+G8/wAvWSxsmm8LbdjPZupp7MalqW93VN729LuNGb8I6Lb8sif+XYi7C3qwJ/JqYtGbWPe4d/8Ad8SeN8m6zj/2PLw8HtkK3hPGSL/9lnLYIyB7ujj2gmkkTw4V6RJJkF4WcDku3cwzucg4FqEQsJPyxEwZYeRGZkaeWWdSA9Qaum7PJDNi8gpA/YOWG6X9IWe2yVnsrfZhd8B/g/yw8k3pZ6ZLBaft1e39p/QkbbH7Cftp+2J6e3UsR+0DfZUPcz/3v44Y/bP7IxIy0nOFNcG04Bi8bPt1PY2AMttLbvk8xEcdFOF0zq1ZGMvYt4PS9p5DbvHjrHA8eznjLq9TNsX4odvLS9byWW2y3s/t8nYllz+cjyOGHf8A1B5xo8epMyJ7gzjZ/wC5Lvi+vF3LfwlIbCP+2AOC/wDbTe/y7s3C7n2SQ1OXmHrxuc/cTHDyvpbZx8saMcvNT0NlvPeEwTH1Dt/XgYcmEIdt4GXriWT+ca1l1I//AIC3g5fLyXaZ1b/bu6cv9EDB/XGCm31fPYAd2Ed4O+1+l+W/ezGCWMH6nD2X635MNn6jGZ8Lf939M8ewxpMXjdOOf+XSZLjuyJB33xHtbFD/AGE94Dl+AwwnTNY5ILxgt7Efgx9HDQBYn1dG6s/Ir9bd5j77QPy/4YL6WDQjYGx+WLR6idwAuglfyN/dmYP2Dzu/O0u7NmOIQd2P0tN9hN9vdu2DZtPjblpPRmq/7eNrbOdd2SaXkHD/APtDwtsfd1C3q22XUMf+ott76tl/89h3PUyl1ZbdQ7khY3Z/3PBW84fON+zel5c5x2M4zyOHhd6cN3A/cXnLtOoODiOSmDjS23ZOpOu8l1FTqGcm7w8j7x0V2ItOQ5f8HO3y95ervhumKEdQ/TbIPf8ABLYF+nGdN01Pres7duf9JiZ5vX/jen/by2IHwD8SYGW8/wAIy0L3u26m8uBYh02df+xbdTxt5R6lw2b1B/7fzQ3xCdDsHP8AYeytOn6X/hJHl42R96uvyIK+oH5BqRThA+C1+RgdX8oOQ6JbWDzj+IuoRkOWQlHuwujdiQxX/d2PWGtFOjSRNmO5f/bCxJqCDjHrE3ED0jzscDceR+c7+XQ6s2zX5Ljq1Y7LguvBW88g/kDPJ/COsXg94/7zF1AyEe8C442Ht7hJpFZtsCf1kjZ13uRpIg/YO5t/S6peZw2yp9PyeN4VcPIerb2ZTtBtvsvULNuo9lLvPPG2N59XcPHhnq/wrIl0cPd5Hk5egt9nuMJGXSf8d8feC6sLP8nv/wAuollhgBcvhyTwDj3JDPv5dB7YepauT8g5XLcNsm/kznYfMgqnYsjuQN4Tsv8A5d7KqbL4W0Q5F/R9ZeX90/S9ZZPBt2+QB0z42B7esDY3TOTkzqw73JAidHZGB+J5l4LQwCW1I3siE8G3fN4ON4zqJ3x3E7PXHR5HIeP5sEcMN0gBZx0zwXhZpJhDKNjb1wZMjXXH3277m+qLZ7vkcy4z2xBZ1HBGNepB+WHy7DI35fgEO+T+N2HUgsMneWLrticJYRGP1sfrbxJw44jDM7vZafFh5MM2f1kx1Dq+59KWEDgfxsPC/XEfBGk994o+gwIZdIyx9GP5hPkgT2+MHFpHBntv9n9pDvYOexJjEJC+But9u0c2Hg2eDWIS2bTLxJ49pKdx1/g/xv8Arc/wrxo2kwtZekOpA/8AUhVBN6m0JHx+XkMgkoG4yf8A425Own/2Hl6N2LC8A/8AIncurTuz/wD02zv/AFsOrsLTTbFHeuWN8joCmv8AwlF/W6+C3/sa7pF/wvWLf+wkPbJ/rDJ3ULOlYdASlWP7G+RUC+p4i8KUSenPkJM1ub8DM1gjIBCy2J6X1tvqbkei8v8AHRX1/wBlwhmUxgoeN3jVbDh/gug+Pcui3eCJ1DBbPZJDtEjrhzJem+4vyzhaXJIwgIPeGJnv7eUOL0sndba14Sxu9JdrOywHnX/ijwskidBf5D1/sPkj5PUO+z6IDJCyyx0ywmF5Zdoe5li6zLCRZ1yYmRT+U9fVm2zfwgcgI7ib8pFnPZDncgDbtN/t8Csj1nL20e302f0sD3bKQbDgy89lgz+F+GVCsu8tfkfzZwBv/wDFv+XhUVktBO+F3ftoy7IDmrth+CAf+N1B8nTLtALZr6zITod//ZLuGsnHevZOfL4r+sg63l+69UiHmghWZ5Bcr8g6Prh/9nCS/OxsE5MH4S3PZxJvxgT/AICQT1u0f1f6ws3oOiUdOP8AjWwzOjbeT8V+R/Gdf9Mvslqv9ntPqUj8h/2N2/tSlM+6UNF4l1M9tzf4so8Eut8o9mL2h1C8RwEFtsdwIuD3q12GQSQ5yHE3jl9Rxu2dzmrV9cD1L+/4m2z6F/Lot4Jj/t5cifkY8sceWkPbb3vgiG6+bLoi2C8MPY6TjDLIdGOT3mHjLqDpife7rl8+MnjH7jy3j7el0n48pYLnXAnCdN2XZODc5eSzSyzCOTLT5B+ImoCYeD/D/hjvlvvJH4j6x37l/ep2b9TqUv2zSV7be7SaLD9Gx53hFDwCyqn82Mi/LZh0ZXMGWjomvRMeF0zqy57Hyrl0CA+xj3v89njsg2RtujP1LCaVoo67BZC73ETZtdIg3bkyzqusW2j+XSXZ1BGqZ4kaQ+GCOxzuQtYEL8iJo45YhHSxKaZ5a97+5Gh7/wALY/GLCzDrbaaEnM4zW/Ftntlx7g1ZX2R+3q2/td6TpIh/UpnsRaP5eJmTnGXNnMtm6FurpbfIdn03mUw99ydn+Dutt1VsQTPQP7eV1l8ifX9IT/y2+WR7uonjATOEdTbdo7Hf+UDHZ/heSTi+/wCH0w4cZxqeEF2TEcfIDL/Z9rvuDf8ACUOpSzZ6nQz1ZHlhwYWcLOR1JaZZb/gSxz0bedvn+Azwmx1E8HvdLm8PHAXjl7gc9kjpvGDhmPkNTF2AZBasFiYJCM/LBgDNBl5OoB+WN8kDEE5eek4Jj+hdv/jBkFwWH/t22sHcJDAPlh+d3j1YhDDuZ+oQV7LT5ZrBNfzu/wAtPqADfznKKzLdiAddsvmwM9gG3p7Cnt+qfy2x3W2kb7bfrZChlsy+oO6Y16eD82Hyy+tkOCH4Tn5B8ui2nPJobD+jD3xslx/Fn8tPkb5H3/Lq9kX95/W6WMfG37QyhvszVk3BYBkj5bYDj7w2EePrDCNh649ct/8A1xnfPnD5dbllm3vLRww8AE4yNGWF6GG3hy7KOX7IjttvGfVvBwsBb5ZtjLLEa5HS2214+eGDxpBmHC7XWL7wf43/APix1gjh8jvgc+Du8LbbrgW7HAR7b34wvvCCeTldlXaBhlnD5e3OxDeBXOBebynj5Dvl57sizG8MdU8AXTx6TOnCbZwy64+zkCOmQzk7t53kxs2yTF/JGyALDJCw/LIeX/7rF5fsXxF2+RwbHpYeEl8sD1AGQx0+XWEZ/Ww9TtCtdTL6YD7H7RpB7vrsZbtj9t7QyLdcpkHcn87perCuT8IE7g/s7uZKy5BHGZ3oZPXVh+xQU5n+kjhtqXZiyvjJ/S/rEY0n9RkpH8lN4dT/AB47JIXbUPV3a8Prt2I6Qpf23pia8OJa5KPQz65TgOXbeC92yN5Z/jOMseNt4ZOH/gE92j1HdnHUPL4QceQ7XTf+8ajkceXBGuCW6+aTwLZgyK6+5b84xbFePC2vs+kLbxpPQ/sMHHWXQk7m1xt8ll03hvDiCWfdI1feM2DneNIRCRQcJ0h0/t5P9vD8izePV4vbcv7b7PtBw5dcJZZx0Z2OCzhdLscdQdd9I8y3rIOPUBhZtjBdcPy7MeM/kFkPknWy515bvlh+EDWR7MgQsZ9l/Lic+4wM4/pvUu7rBHrAG7JjtsJHWwX2zfYO5vZO/t2bJvpmPYJmY/JI3JZ5CTq7DJ/GdvkPfLpv+YxYDE/GwWPlkgl139IX7I/bT0w32092KM/ZmyJ8h5B/wabbzkBPI6hyF4BuOQynDdOLqc4bjfVt2h6tlq3h3rgFu/57HhPD1dEmbwbb09y2CIOMqsumwy9w6ssmPdto/wCQPJ6d8rNuMRNIOSu1ht0LZO8gr3w9Sm2OXVhDnXC7AyJ+WOrIOvtoDlYNT0tgt5YyHf8AvAm7s3Z1EUOuFj2PUzhwZtnd1cTNkS3V7ZfbJt6vcXRd2O3fE6DEkcGDLtvcumXZj6xkEE3vHZfyCSznd2HI8GaY22YkJ0BGWHDl5Fj8sz4SHAmuWXepf5B2WYLCacH9rLyR+3vNt9dwne7rDPG+5FGInneCZ/zk8GGMtfl1eWMcPVhvL+drIX5a/JF7kwTp8n8bZ6ruI+780aPGyfL/AIv+bOurt8mu7yBGs3CyIgsKfyQQ5sP7JPvEGe25Lf1n4sZdvAoh2AHcl72CB2R+t0LOmxHSP3sj2U+wC7mYMH9kLAu+T67s3ts+wXQ4UD9lDPsCBw5Ju7b+yGzASPl72w42Sf2xi3q3gd5ZERi2gRP/AO+6M4eBKN7t2HqZO4LToW/I+X5yHerePbESNvCxbifYfOB1shC6QZYeg7t6gHVvhP6us9l+S3a16+3UJWuEvFwcbHc/26ieNtId45Lweum88sWMfsceLTdh0x7hNk3UMdFslk+PAnkdWbZPtI2148nLON//AIAl4BgLEDPIGeEjRYsGwDyB+XoyJhYfl4eQEQUR3qCYvlk+2QHzGvhA/J/C/hADC6el+IjKdcdMLU4P5RvwAsumJfxtTv2ABASDeLJGjuLDvh2+yTrVoo6xnu3vtqAgxV6gGkftYpMPtme4bZuf2AAc+KX26fL7ZPhHLUgypBuzfuradww5kxHwYp4z4ZDGnbMeNlE4dMNxSTJoT9lhl/bP7flPVHaG3+zP/pY6XRxv8vb+l4bFsdr7gP0t4HNsQxb04ESXpn5xfFtuMn7a3aWzGS1JpPKHl4xZOZlucXYa8NrwuG8ZdSXW8tkKNvU2y7Xp65NsvBCNlll2X0OW2N3ljbXj04e+HSH/ACf4un1byjLZyvl3tvU+y78g64DNWcGHA9+M64zIlBscy7HC7stPIXiPaDhj2QhmRnGX/wCiPC7s43OjZZeXd2cLrI1Zl0ndYLyzrjsrLCQkj0ILD8se5J/LOC6ukvP52/yNXJoUlopOuA7tXLcF62AOrTztJzpWH2Got/IO94NH23b+rbrYDtdIhYY+EfckYw/hbH1AEHnl1+SciTQeuJw1gXTbHURpeF/BGx3ZDuF1dY7s+DB+wGXa5wXWFttvc9YfLOt/xq+fDMvXCOXWcbPq8cbLbLrfOB7lhH7DYdcdRuhHDL95OrHyHh68d8t3w8bwcJz4vPBtZj2lwl43leMwcPHDhnjWmG3jeE+uOnAaiOHnbxeoI4Du8hmcbaZZN7jgcktXyure+Ds8hYx8sdvEl3+MbwjkNtsm6P8AF6FmcL3fPJZmTGcmOOgx/wAJD3MMPcw7/ht3LOE3RXnOc504Wm37GQFhkfkOGEkm5fymAJyGc57wO77APrYcGlv9YwdT+07b/wDEOZNJsZ9t/eMO2yDrPhaew8cnWJw2fJ7MEp2n+YGpkA3LOXaxwHiPIH7NY/ZM52hH6SmZGX/UsG7dcLOCaXghtl4Bd5Dm7bb/AI20k3/+AdRyeDhclclvEZUuw3NuhvsH5dw7Xh5e4ZIo4743/C8QNmTPKunDDeb1wHPureC3Jad/boHfDYmZvKbZ4XYL5yu08vLeNkPxtlNi2G+uryLbM4IwOE5WR/x/jsJ8y3q9/wAenBz274Ogu5YeD5QScfJf+bYD7z3ed4LrL51x73mfJEezHu9bO5snlPT/AAfl6wWFn8kPyPRIDqAsPySyTerRs2bPAZAg0gncXx8V/G/tP7T+ttHHIOvdkyoJRZlQ3RuWz5e2A+reeMfzP823B1ZZx//Z;" vertex="1" parent="1">
                    <mxGeometry width="1600" height="1112" as="geometry"/>
                </mxCell>
            </root>
        </mxGraphModel>
    </diagram>
</mxfile>